<svg xmlns="http://www.w3.org/2000/svg" fill="none" viewBox="0 0 50 64"><defs/><path fill="#000" d="M49.83 1.38l-.11-.12c-.12-.11-.12-.11-.23-.11l-.12-.12h-.11c-.35-.11-8.95-2.98-14.8 1.38-3.55 2.64-5.16 7.22-5.04 13.65-.46.57-1.5 1.83-2.41 3.67-.92-1.84-2.3-3.1-3.1-3.67.11-5.85-1.5-10.1-4.93-12.62C12.2-1.49 1.3 2.18.86 2.29c0 0-.12 0-.12.12 0 0-.11 0-.11.11-.12 0-.12.12-.23.23l-.12.12c-.11.23-.23.46-.23.8.92 6.2 3.33 10.55 7.34 12.96 2.76 1.72 5.97 2.18 8.6 2.18 2.99 0 5.4-.57 6.43-.92.92.69 2.98 2.53 3.1 5.5-.23.92-.35 1.96-.46 2.99H7.05c-.34 0-.69.11-.92.34-.23.23-.34.58-.23.92L7.97 41.3c.11.57.57.92 1.14.92h1.15l2.98 20.76c.12.57.58 1.03 1.15 1.03h23.74c.58 0 1.03-.46 1.15-1.03l2.98-20.65h1.15c.57 0 1.03-.46 1.15-.92l2.06-13.64c0-.35 0-.7-.23-.92a1.3 1.3 0 00-.92-.35H27.35c.12-4.01 2.52-7.34 3.44-8.6.8.23 2.3.46 4.02.46 2.18 0 4.93-.46 7.45-1.95 4.13-2.75 6.65-7.45 7.69-14.34V1.6c0-.11-.12-.22-.12-.22zM8.54 14.57C5.56 12.73 3.5 9.52 2.58 5.05a41.47 41.47 0 0117.89 11c-2.64.47-7.8 1.04-11.93-1.48zM5.44 3.55c3.56-.57 8.6-.8 12.05 1.73 2.3 1.72 3.67 4.47 3.9 8.37A43.79 43.79 0 005.44 3.55zM37.1 61.82H15.3l-.45-3.33h22.7l-.45 3.33zm.8-5.62H14.5l-1.94-13.88h27.4L37.9 56.2zm4.48-16.17H10.03l-1.15-7.11H43.3l-.91 7.1zm1.6-11.47l-.23 1.95H8.65l-.34-1.95h35.67zM35.61 4.13c2.75-2.07 6.42-2.18 9.18-1.84a37.08 37.08 0 00-13.2 10.33c.46-3.9 1.73-6.77 4.02-8.5zm5.5 10.1c-3.2 1.94-6.76 1.83-8.83 1.48 4.94-7 11.82-10.55 15.03-11.93-1.03 5.05-3.1 8.6-6.2 10.44z"/></svg>