<svg xmlns="http://www.w3.org/2000/svg" fill="none" viewBox="0 0 64 64"><defs/><path fill="#000" d="M3.2 64h55.47A5.34 5.34 0 0064 58.67V12.8l-.02-.12a1.04 1.04 0 00-.13-.4.98.98 0 00-.1-.16 1 1 0 00-.17-.15l-.08-.08-13.37-8.22v-2.6a1.07 1.07 0 10-2.13 0v2.6l-13.36 8.22c-.03.02-.05.06-.09.08a1.1 1.1 0 00-.36.5 1.1 1.1 0 00-.03.21l-.03.12v21.22l-18.69-5.85a5.45 5.45 0 00-3.33.05C2.24 31.54.12 38.87.04 39.18l-.01.15a1 1 0 00-.03.14V60.8A3.2 3.2 0 003.2 64zm32-2.13h-32c-.59 0-1.07-.48-1.07-1.07V40.53h44.8V60.8c0 .59-.47 1.07-1.06 1.07H35.2zm23.47 0h-9.8c.13-.34.2-.7.2-1.07V48h12.8v10.67a3.2 3.2 0 01-3.2 3.2zm-9.6-56.35l10.1 6.21h-20.2l10.1-6.21zm-12.8 8.35h25.6v10.66h-25.6V13.87zm0 12.8h25.6v19.2h-12.8v-6.4l-.01-.05a1 1 0 00-.05-.22 1.19 1.19 0 00-.05-.19 1.1 1.1 0 00-.12-.16 1.03 1.03 0 00-.12-.16 1.1 1.1 0 00-.16-.1 1.05 1.05 0 00-.2-.12l-.04-.02-12.05-3.77v-8.01zm-23.48 3.57a3.29 3.29 0 012.02-.03L41 38.4H2.65c1.04-2.07 3.75-6 10.14-8.16z"/><path fill="#000" d="M7.47 42.67a3.2 3.2 0 100 6.4 3.2 3.2 0 000-6.4zm0 4.26a1.07 1.07 0 110-2.13 1.07 1.07 0 010 2.13z"/><path fill="#000" d="M15.47 50.13a3.73 3.73 0 100 7.47 3.73 3.73 0 000-7.47zm0 5.34a1.6 1.6 0 110-3.2 1.6 1.6 0 010 3.2z"/><path fill="#000" d="M26.67 41.6a3.2 3.2 0 100 6.4 3.2 3.2 0 000-6.4zm0 4.27a1.07 1.07 0 110-2.14 1.07 1.07 0 010 2.14z"/><path fill="#000" d="M39.47 51.2a4.27 4.27 0 100 8.53 4.27 4.27 0 000-8.53zm0 6.4a2.13 2.13 0 110-4.27 2.13 2.13 0 010 4.27z"/></svg>