<svg xmlns="http://www.w3.org/2000/svg" fill="none" viewBox="0 0 42 64"><defs/><path fill="#000" d="M38.08 7.47V3.35A3.47 3.47 0 0036.81.63c-.7-.55-1.6-.76-2.46-.55L3.73 7.48a3.2 3.2 0 00-2.98 3.19V60.8a3.2 3.2 0 003.2 3.2h34.13a3.2 3.2 0 003.2-3.2V10.67a3.2 3.2 0 00-3.2-3.2zm-3.23-5.32c.23-.05.46 0 .64.16.3.26.47.64.46 1.04v4.12H12.9l21.96-5.32zm4.3 58.65c0 .59-.48 1.07-1.07 1.07H3.95c-.59 0-1.07-.48-1.07-1.07V10.67c0-.6.48-1.07 1.07-1.07h34.13c.6 0 1.07.48 1.07 1.07V60.8z"/><path fill="#000" d="M26.33 45.62a3.2 3.2 0 003.2-3.2v-12.8c1.18 0 2.14-.96 2.14-2.14v-6.4c0-4.66-2.4-7.9-6.26-8.45l-1.06-.14a1.07 1.07 0 00-1.22 1.05v28.88a3.2 3.2 0 003.2 3.2zm-1.06-30.85c3.84.65 4.26 4.62 4.26 6.31v6.4h-1.06c-.6 0-1.07.48-1.07 1.07v13.87a1.07 1.07 0 11-2.13 0V14.77z"/><path fill="#000" d="M12.47 25.84v16.58a3.2 3.2 0 106.4 0V25.84a4.25 4.25 0 002.13-3.7v-8.52a1.07 1.07 0 10-2.13 0v5.33a1.07 1.07 0 01-2.14 0v-5.33a1.07 1.07 0 10-2.13 0v5.33a1.07 1.07 0 11-2.13 0v-5.33a1.07 1.07 0 10-2.14 0v8.53c0 1.52.81 2.93 2.14 3.7zm0-3.89c.34.13.7.2 1.06.2.8 0 1.55-.3 2.14-.83a3.1 3.1 0 003.2.63v.2c0 .9-.57 1.7-1.41 2-.44.14-.73.55-.73 1v17.27a1.07 1.07 0 11-2.13 0V25.16c0-.46-.29-.87-.72-1.01a2.1 2.1 0 01-1.41-2v-.2z"/><path fill="#000" d="M13.57 54.15H28.5a1.07 1.07 0 100-2.13H13.57a1.07 1.07 0 100 2.13z"/><path fill="#000" d="M25.23 56.28h-8.54a1.07 1.07 0 100 2.14h8.54a1.07 1.07 0 100-2.14z"/></svg>