<svg xmlns="http://www.w3.org/2000/svg" fill="none" viewBox="0 0 35 64"><defs/><path fill="#000" d="M4.24 28.08a5.9 5.9 0 003.22.72c1.07 0 2.48-.22 4.16-.6a54.54 54.54 0 004.65-1.25l.77-.24a67.15 67.15 0 005.42 1.5c1.69.37 3.1.58 4.16.59h.06a5.9 5.9 0 003.17-.72c2.02-1.1 3.22-3.32 3.22-6.75 0-3.22-.64-5.84-1.72-7.9a9.58 9.58 0 00-1.48-2.15V1.07a1.07 1.07 0 00-2.14 0v9.99c-2.72 1.56-8.36 7.45-10.69 11.6-2.31-4.13-7.9-9.97-10.64-11.57V1.07a1.07 1.07 0 00-2.13 0v10.16c-.46.46-1 1.18-1.53 2.2a16.9 16.9 0 00-1.72 7.9c0 3.43 1.2 5.64 3.22 6.75zm19.1-10.22c1.3-1.36 2.7-2.7 3.9-3.73.52-.45.99-.81 1.34-1.07.3.37.6.82.88 1.36a14.8 14.8 0 011.47 6.91c0 2.68-.8 4.16-2.1 4.88-.7.38-1.45.5-2.03.46h-.13c-.88 0-2.17-.2-3.74-.55a52.52 52.52 0 01-4.5-1.2l-.16-.06c.5-1.59 2.37-4.17 5.06-7zm-18.7-3.44c.27-.54.57-1 .86-1.36.36.26.82.62 1.35 1.07a54.3 54.3 0 013.9 3.73c2.7 2.83 4.57 5.41 5.07 7a118.6 118.6 0 01-2.7.78c-.68.18-1.34.34-1.97.48-1.56.35-2.85.55-3.73.55H7.3c-.6.04-1.35-.08-2.05-.46-1.3-.72-2.1-2.2-2.1-4.88 0-2.87.55-5.16 1.47-6.91z"/><path fill="#000" d="M32.88 43.75c-7.78 1.36-13.16 2.12-15.81 2.12-2.65 0-8.03-.76-15.82-2.12A1.07 1.07 0 000 44.8v4.27c0 .59.48 1.06 1.07 1.06 3.86 0 7.1 2.39 9.72 6.45a28.24 28.24 0 013.12 6.65c.13.46.55.77 1.02.77h4.27c.47 0 .9-.31 1.02-.77l.18-.55a28.24 28.24 0 012.94-6.1c2.63-4.06 5.86-6.45 9.73-6.45.59 0 1.06-.47 1.06-1.06V44.8c0-.66-.6-1.17-1.25-1.05zm-.88 4.3c-4.24.39-7.7 3.12-10.45 7.37a30.33 30.33 0 00-3.12 6.45H15.7a30.34 30.34 0 00-3.13-6.45c-2.75-4.25-6.21-6.98-10.45-7.37v-1.98C9.4 47.3 14.4 48 17.07 48c2.67 0 7.67-.69 14.93-1.93v1.98z"/></svg>