<svg xmlns="http://www.w3.org/2000/svg" fill="none" viewBox="0 0 64 60"><defs/><path fill="#000" d="M54.4.13H9.6C4.3.13 0 4.43 0 9.73V39.6c0 5.3 4.3 9.6 9.6 9.6h14.35l5.35 8.42a3.21 3.21 0 005.4 0l5.35-8.42H54.4c5.3 0 9.6-4.3 9.6-9.6V9.73c0-5.3-4.3-9.6-9.6-9.6zm-4.27 16a3.2 3.2 0 01-3.2 3.2h-4.26a3.2 3.2 0 01-3.2-3.2V2.27h10.66v13.86zm-12.8 0a3.2 3.2 0 01-3.2 3.2h-4.26a3.2 3.2 0 01-3.2-3.2V2.27h10.66v13.86zm-12.8 0a3.2 3.2 0 01-3.2 3.2h-4.26a3.2 3.2 0 01-3.2-3.2V2.27h10.66v13.86zM9.6 2.27h2.13v13.86a3.2 3.2 0 01-3.2 3.2H4.27c-.8 0-1.56-.3-2.14-.84V9.73A7.48 7.48 0 019.6 2.27zm44.8 44.8H39.47c-.37 0-.7.18-.9.49l-5.66 8.9a1.1 1.1 0 01-1.82 0l-5.66-8.9c-.2-.3-.53-.5-.9-.5H9.6a7.48 7.48 0 01-7.47-7.46V21.02c.68.3 1.4.44 2.14.45h4.26c1.69 0 3.27-.81 4.27-2.17a5.31 5.31 0 004.27 2.17h4.26c1.69 0 3.27-.81 4.27-2.17a5.31 5.31 0 004.27 2.17h4.26c1.69 0 3.27-.81 4.27-2.17a5.31 5.31 0 004.27 2.17h4.26c1.69 0 3.27-.81 4.27-2.17a5.31 5.31 0 004.27 2.17h4.26c.74 0 1.46-.16 2.14-.45V39.6a7.48 7.48 0 01-7.47 7.47zm7.47-28.58c-.58.54-1.35.84-2.14.84h-4.26a3.2 3.2 0 01-3.2-3.2V2.27h2.13a7.48 7.48 0 017.47 7.46v8.76z"/></svg>