<svg xmlns="http://www.w3.org/2000/svg" fill="none" viewBox="0 0 64 64"><defs/><g clip-path="url(#clip0)"><path fill="#000" d="M7.09 19.56a3.2 3.2 0 00-1.76 2.84v7.47c0 1.18.96 2.13 2.14 2.13v28.8a3.2 3.2 0 003.2 3.2h42.66a3.2 3.2 0 003.2-3.2V32c1.18 0 2.14-.95 2.14-2.13V22.4c0-1.2-.69-2.3-1.76-2.84 4.44-2.84 6.86-8.15 7-8.46a1.07 1.07 0 00-.98-1.5h-4.26V5.33a1.07 1.07 0 00-1.75-.82L53.35 7.5A17.33 17.33 0 0046.3.52 4.15 4.15 0 0044.07 0C36.93.45 33.5 6.23 32 10.13 30.49 6.23 27.07.47 19.93.03a4.13 4.13 0 00-2.22.5c-2.98 1.59-5.43 4-7.06 6.96L7.08 4.5a1.07 1.07 0 00-1.75.82V9.6H1.07a1.07 1.07 0 00-.98 1.5c.14.3 2.56 5.62 7 8.46zm17.44 1.77v8.54H7.47V22.4c0-.59.47-1.07 1.06-1.07h16zm2.06-6.27a15.26 15.26 0 01-4.92-8.2c3.36 1.47 5.13 5.5 5.76 7.28-.31.27-.6.58-.84.92zm1.14 3.07a3.2 3.2 0 013.2-3.2h2.14a3.2 3.2 0 013.2 3.2v1.07h-8.54v-1.07zm9.6 11.74H26.67v-8.54h10.66v8.54zm-.76-15.73c.64-1.79 2.4-5.8 5.77-7.29a15.25 15.25 0 01-4.93 8.2 5.36 5.36 0 00-.84-.9zM9.6 60.8V32h17.07v29.87h-16c-.6 0-1.07-.48-1.07-1.07zm19.2 1.07V32h6.4v29.87h-6.4zm25.6-1.07c0 .59-.48 1.07-1.07 1.07h-16V32H54.4v28.8zm1.07-39.47c.59 0 1.06.48 1.06 1.07v7.47H39.47v-8.54h16zm2.13-9.6h3.57c-1.49 2.56-4.99 7.47-9.97 7.47h-2.39a22.85 22.85 0 004.73-5.28 5.3 5.3 0 00.65-4.35l2.34-1.96v3.06c0 .59.48 1.06 1.07 1.06zm-13.4-9.6a2 2 0 011.08.26c1.57.86 5.38 3.3 6.82 7.6a3.2 3.2 0 01-.35 2.76c-1.19 1.83-3.67 5.05-7.02 6.45H38.4v-1.07c0-.35-.04-.7-.1-1.05 4.37-3.1 5.88-8.48 6.34-10.74a1.6 1.6 0 00-2.02-1.85c-4.64 1.3-6.99 6.03-7.94 8.59-.44-.14-.9-.23-1.36-.25.8-2.95 3.47-10.23 10.88-10.7zM11.9 10c1.43-4.3 5.25-6.74 6.82-7.58.33-.19.7-.28 1.08-.26 7.4.46 10.08 7.72 10.88 10.66-.46.03-.92.11-1.36.25-.95-2.56-3.3-7.28-7.94-8.58a1.61 1.61 0 00-1.54.37c-.4.37-.59.94-.47 1.48.45 2.26 1.96 7.65 6.34 10.74-.07.34-.11.7-.11 1.05v1.07h-6.33c-3.35-1.4-5.83-4.62-7.02-6.44A3.18 3.18 0 0111.9 10zm-5.5 1.73c.59 0 1.07-.47 1.07-1.06V7.6L9.8 9.56a5.3 5.3 0 00.65 4.37 22.8 22.8 0 004.73 5.27H12.8c-4.97 0-8.48-4.91-9.96-7.47H6.4z"/></g><defs><clipPath id="clip0"><path fill="#fff" d="M0 0h64v64H0z"/></clipPath></defs></svg>