<svg xmlns="http://www.w3.org/2000/svg" fill="none" viewBox="0 0 64 64"><defs/><g fill="#000" clip-path="url(#clip0)"><path d="M63.98 31.35a1.1 1.1 0 00-1.3-.84l.06-.11-9.22 2.05a21.45 21.45 0 00-2.03-7.7c.02-.12.02-.23 0-.35L48.97 9.1a1.07 1.07 0 00-1.7-.68l-7.42 5.49c-5.06-2-10.7-2-15.75 0l-7.31-5.5a1.07 1.07 0 00-1.7.7l-2.51 15.2c-1.26 2.53-2 5.28-2.2 8.09l-9.06-2a1.1 1.1 0 00-.46 2.14l9.43 2.13c.04 1.85.32 3.67.83 5.44l-5.66.8a1.07 1.07 0 10.15 2.13h.15l6.08-.84a21.62 21.62 0 0040.15 0l6.27.87h.15a1.07 1.07 0 00.15-2.13l-5.86-.81c.5-1.74.77-3.54.82-5.35l9.62-2.14c.59-.12.96-.7.84-1.3zm-16.8-20.19l1.48 9.1c-1.82-2.2-4.04-4-6.54-5.35l5.06-3.75zm-30.25 0l4.93 3.67a21.77 21.77 0 00-6.4 5.13l1.47-8.8zm24.81 24.72c.07.6.6 1.02 1.19.95h.23l8.2-1.7a19.42 19.42 0 01-.8 4.57l-7.48-1.07a1.08 1.08 0 00-.3 2.14l7.04.98a19.5 19.5 0 01-35.78 0l7.24-1a1.08 1.08 0 00-.3-2.14l-7.7 1.07a19.43 19.43 0 01-.81-4.67l8.43 1.87h.24a1.08 1.08 0 00.23-2.14l-8.89-1.98a19.48 19.48 0 0138.9 0L42.7 34.7c-.59.06-1.01.6-.95 1.18z"/><path d="M39.23 39.25c-.59 0-1.07.48-1.07 1.07a2.02 2.02 0 01-3.89.78c2.14-.6 3.69-2 3.69-3.68 0-2.23-2.65-3.97-6.03-3.97-3.38 0-6.03 1.74-6.03 3.97 0 1.68 1.51 3.09 3.69 3.68a2.02 2.02 0 01-3.89-.78 1.07 1.07 0 00-2.14 0 4.15 4.15 0 008.17 1.07h.4a4.15 4.15 0 008.17-1.07c0-.6-.48-1.07-1.07-1.07zm-7.33.02c-2.2 0-3.9-.98-3.9-1.84 0-.7 1.18-1.5 2.83-1.75v.76a1.07 1.07 0 002.14 0v-.76c1.64.26 2.82 1.07 2.82 1.75 0 .69-1.7 1.84-3.9 1.84z"/></g><defs><clipPath id="clip0"><path fill="#fff" d="M0 0h64v64H0z"/></clipPath></defs></svg>