<svg xmlns="http://www.w3.org/2000/svg" fill="none" viewBox="0 0 48 64"><defs/><path fill="#000" d="M37.83 18.7h-1.38v-5.04a7.19 7.19 0 004.45-6.53v-.07A7.03 7.03 0 0033.84 0H14.29a7.05 7.05 0 00-7.06 7.13c0 2.94 1.83 5.49 4.45 6.53v5.1h-1.44a9.56 9.56 0 00-9.55 9.55v26.15c0 5.3 4.32 9.54 9.55 9.54h27.52c5.3 0 9.55-4.31 9.55-9.54V28.3a9.51 9.51 0 00-9.48-9.61zM14.29 2.1h19.48A4.84 4.84 0 0138.55 6H9.52a4.9 4.9 0 014.77-3.92zM9.52 8.16h29.03a4.9 4.9 0 01-4.78 3.86H14.3a4.95 4.95 0 01-4.77-3.86zm24.84 5.95v4.58H13.83v-4.58h20.53zm3.47 47.66h-27.6a7.42 7.42 0 01-7.38-7.39V28.24a7.42 7.42 0 017.39-7.39h27.52a7.42 7.42 0 017.39 7.4v26.14h.06a7.42 7.42 0 01-7.38 7.39z"/><path fill="#000" d="M30.96 33.67c-.06 0-1.3-.26-3.14-.26-2.94 0-7 .65-9.41 3.66-2.03 2.48-2.61 6.14-1.63 10.78 0 .07 0 .07.06.13 0 .07 0 .07.07.14.06.13.13.2.2.32.06.07.19.13.32.2.07 0 .07 0 .13.06.07 0 .07.07.13.07 1.5.33 2.88.46 4.12.46 3.4 0 6.01-1.11 7.78-3.2 3.53-4.26 2.35-11.12 2.29-11.45a1.42 1.42 0 00-.92-.91zM27.9 44.58c-1.37 1.64-3.4 2.42-6.15 2.42-.52 0-1.1-.06-1.63-.13l4.97-4.97c.4-.39.4-1.1 0-1.5a1.1 1.1 0 00-1.5 0l-4.97 4.97c-.33-3 .2-5.36 1.5-7 1.96-2.35 5.3-2.87 7.78-2.87.78 0 1.5.06 1.96.13.13 1.83.33 6.2-1.96 8.95z"/><path fill="#000" d="M24.3 27.26a14 14 0 00-14 13.99 14 14 0 0014 13.99 14 14 0 0013.98-13.99A14.05 14.05 0 0024.3 27.26zm0 25.76a11.83 11.83 0 11-.01-23.66 11.83 11.83 0 010 23.66z"/></svg>