<svg xmlns="http://www.w3.org/2000/svg" fill="none" viewBox="0 0 64 64"><defs/><g fill="#000" clip-path="url(#clip0)"><path d="M47.6 22.93L39.17 1.42A2.28 2.28 0 0036.25.15L14.74 8.58a2.25 2.25 0 00-1.27 2.92l8.5 21.52a2.25 2.25 0 002.92 1.26l21.45-8.42a2.25 2.25 0 001.26-2.93zm-23.39 8.89L16 10.88l20.93-8.24 8.23 20.95-20.94 8.23z"/><path d="M26.82 36.44H3.78c-1.25 0-2.26 1-2.26 2.25v23.06c0 1.24 1.01 2.25 2.26 2.25h23.04c1.25 0 2.25-1 2.25-2.25V38.69c0-1.25-1-2.25-2.25-2.25zm-.28 25.02H4.05v-22.5h22.5v22.5z"/><path d="M60.85 36.3L38.58 30.4a2.3 2.3 0 00-2.76 1.64L29.9 54.31c-.33 1.2.39 2.43 1.59 2.75L53.77 63c1.2.32 2.43-.4 2.75-1.6l5.88-22.32a2.25 2.25 0 00-1.55-2.76zm-6.7 24.06l-21.73-5.71 5.78-21.73 21.73 5.78-5.77 21.66z"/><path d="M38.1 19.72a4.27 4.27 0 00-.9-1.17l-6.33-6.67-.75-.8a3.8 3.8 0 00-.62-.53 1.77 1.77 0 00-.76-.29c-.64-.04-1.28.2-1.72.69-.17.21-.3.46-.35.73-.06.32-.1.64-.09.96V22.8l.06.88c.01.19.05.38.12.56.12.3.37.52.67.63.3.12.65.12.96 0a1 1 0 00.67-.63 6 6 0 00.1-1.49v-1.8l5-1.97 1.2 1.27.54.54c.15.17.32.31.51.43a1.09 1.09 0 001.02.07c.3-.13.53-.36.67-.65.12-.3.12-.63 0-.92zm-9.05-.93l-.18-5.74 3.85 4.3-3.67 1.44z"/><path d="M18.46 49.23c1.2-.45 2-1.61 1.97-2.9a3.16 3.16 0 00-1.56-2.74 3.5 3.5 0 00-1.26-.46 9.99 9.99 0 00-1.63-.11h-4.2a1.7 1.7 0 00-1.27.38c-.3.35-.43.8-.38 1.26v9.92c-.05.46.08.91.37 1.27.35.3.81.44 1.27.4h4.04c.59-.03 1.18-.08 1.76-.17.48-.06.95-.18 1.4-.36a3.4 3.4 0 002.1-3.26 3.23 3.23 0 00-2.61-3.23zm-5.64-4.18h2.12c.73-.03 1.47.08 2.16.33.48.23.76.74.71 1.27 0 .3-.08.59-.23.85-.17.34-.47.6-.83.72-.5.14-1.03.2-1.55.19h-2.44l.06-3.36zm5.52 7.23c0 1.3-.9 1.95-2.7 1.95h-2.88l.06-3.85h2.75c.73-.04 1.46.11 2.1.46.47.32.72.87.67 1.44z"/><path d="M52.51 42.94c-.32-.8-.84-1.5-1.5-2.05a6.16 6.16 0 00-2.53-1.26 6.56 6.56 0 00-2.54-.2 5.8 5.8 0 00-4.13 2.55c-.55.8-.95 1.7-1.18 2.63-.17.6-.27 1.22-.3 1.84a7.15 7.15 0 00.62 3.3 5.26 5.26 0 002.3 2.4c.57.29 1.16.52 1.78.68.8.22 1.63.29 2.45.19a4.97 4.97 0 003.2-1.88c.3-.37.52-.8.64-1.26.1-.3.05-.62-.11-.89a1.13 1.13 0 00-.7-.53.96.96 0 00-.88.11c-.25.2-.46.44-.62.71-.4.57-.95 1.01-1.6 1.27-.66.21-1.36.21-2.02 0-.6-.12-1.16-.4-1.61-.8a3.23 3.23 0 01-.78-1.78 6.6 6.6 0 01.24-2.54 5.68 5.68 0 011.84-3.27 3.16 3.16 0 012.86-.53c.6.13 1.15.45 1.56.9.4.51.68 1.1.81 1.74.07.34.18.66.34.96.17.23.41.38.69.43.29.08.6.03.84-.14.26-.15.45-.4.52-.7.14-.63.07-1.28-.19-1.88z"/></g><defs><clipPath id="clip0"><path fill="#fff" d="M0 0h64v64H0z"/></clipPath></defs></svg>