<svg xmlns="http://www.w3.org/2000/svg" fill="none" viewBox="0 0 64 60"><defs/><path fill="#000" d="M63.65 16.53a1.3 1.3 0 00-.04-.05L50.4 4.74c-.12-.11-.26-.2-.42-.25l-9.55-3.42a1.26 1.26 0 00-1.69 1.12c0 .28-.41 6.64-6.78 6.74-6.4-.1-6.8-6.46-6.82-6.74a1.26 1.26 0 00-1.67-1.12l-9.54 3.46c-.15.05-.3.14-.42.25L.4 16.48a1.26 1.26 0 000 1.82l10.45 10.56v28.89c0 .7.56 1.25 1.26 1.25h39.8c.7 0 1.26-.56 1.26-1.25V28.86L63.61 18.3c.5-.48.52-1.27.04-1.77zm-10.53 8.75v-5.82a1.26 1.26 0 00-2.5 0v36.97H13.3V19.46a1.26 1.26 0 00-2.51 0v5.84l-7.72-7.83 11.95-10.7 7.86-2.83a9.26 9.26 0 0018.17 0l7.87 2.83 11.91 10.7-7.7 7.81z"/></svg>