<svg xmlns="http://www.w3.org/2000/svg" fill="none" viewBox="0 0 50 64"><defs/><path fill="#000" d="M45.62 0H4.38A3.92 3.92 0 00.47 3.91V60.1A3.92 3.92 0 004.38 64h41.24a3.92 3.92 0 003.91-3.91V3.9A3.92 3.92 0 0045.62 0zm0 2.13c.98 0 1.78.8 1.78 1.78v8.89H33.53V2.13h12.09zm-14.22 0V12.8H18.6V2.13h12.8zM2.6 3.91c0-.98.8-1.78 1.78-1.78h12.09V12.8H2.6V3.91zM47.4 60.1c0 .98-.8 1.78-1.78 1.78H4.38c-.98 0-1.78-.8-1.78-1.78V14.93h44.8V60.1z"/><path fill="#000" d="M10.07 3.2a4.27 4.27 0 100 8.54 4.27 4.27 0 000-8.54zm0 6.4a2.14 2.14 0 110-4.27 2.14 2.14 0 010 4.27z"/><path fill="#000" d="M39.93 11.73a4.27 4.27 0 100-8.54 4.27 4.27 0 000 8.54zm0-6.4a2.14 2.14 0 110 4.27 2.14 2.14 0 010-4.27z"/><path fill="#000" d="M5.8 38.4c0 5.76 2.56 10.93 6.6 14.45A19.11 19.11 0 0025 57.6c10.59 0 19.2-8.61 19.2-19.2S35.59 19.2 25 19.2A19.22 19.22 0 005.8 38.4zm36.27 0c0 9.4-7.66 17.07-17.07 17.07A17.09 17.09 0 017.93 38.4c0-9.41 7.66-17.07 17.07-17.07S42.07 29 42.07 38.4z"/></svg>