<svg xmlns="http://www.w3.org/2000/svg" fill="none" viewBox="0 0 56 64"><defs/><path fill="#000" d="M35.88 55.83a9.3 9.3 0 011.56-4.1c17.25-10.12 18.28-32.25 18.3-32.5.01-.49-.32-.93-.8-1.06a20.3 20.3 0 01-5.68-2.56 3.2 3.2 0 00-4.36-3.63 26.61 26.61 0 01-5.2-8.01C39.28 1.25 33.44 0 28 0c-5.45 0-11.29 1.25-11.7 3.97a23 23 0 01-1.9 3.7c-.95 1.54-2.06 2.99-3.3 4.31a3.2 3.2 0 00-4.36 3.63c-1.75 1.14-3.67 2-5.69 2.56-.47.13-.8.57-.78 1.07 0 .24 1.04 22.37 18.3 32.5a9.41 9.41 0 011.55 4.1c-6.8.62-10.25 1.93-10.25 3.9C9.87 63.78 24.97 64 28 64c3.03 0 18.13-.2 18.13-4.27 0-1.96-3.45-3.27-10.25-3.9zm10.25-41.96a1.07 1.07 0 110 2.13 1.07 1.07 0 010-2.13zM44 18.67a1.6 1.6 0 11-3.2 0 1.6 1.6 0 013.2 0zM28 2.13c6.18 0 9.38 1.53 9.6 2.14-.22.6-3.42 2.13-9.6 2.13-6.24 0-9.44-1.56-9.6-2.12.16-.59 3.36-2.15 9.6-2.15zM16.18 8.84l.04-.06a28.3 28.3 0 001.35-2.42 8.05 8.05 0 002.14 1.03A27.3 27.3 0 0028 8.53a27.3 27.3 0 008.52-1.22 8.05 8.05 0 001.9-.95c.34.67.78 1.5 1.36 2.42l.04.06a28.71 28.71 0 003.51 4.58c-.26.46-.4.98-.4 1.51V15a3.73 3.73 0 00-4.23 3.3 4.27 4.27 0 00-5.3 3.36 4.7 4.7 0 00-5.4 1.5 4.77 4.77 0 00-5.4-1.5 4.27 4.27 0 00-5.3-3.35 3.73 3.73 0 00-4.24-3.31v-.06c0-.53-.13-1.05-.39-1.5 1.32-1.41 2.5-2.95 3.5-4.59zM39.73 22.4a2.13 2.13 0 11-4.26 0 2.13 2.13 0 014.26 0zm-5.33 3.73a2.67 2.67 0 11-5.33 0 2.67 2.67 0 015.33 0zm-7.47 0a2.67 2.67 0 11-5.33 0 2.67 2.67 0 015.33 0zm-6.4-3.73a2.13 2.13 0 11-4.26 0 2.13 2.13 0 014.26 0zm-6.93-5.33a1.6 1.6 0 110 3.2 1.6 1.6 0 010-3.2zm-3.73-3.2a1.07 1.07 0 110 2.13 1.07 1.07 0 010-2.13zm-7.41 6.11c1.91-.6 3.73-1.47 5.42-2.56.56.46 1.26.71 1.99.71h.05a3.74 3.74 0 004.22 4.22v.05a4.27 4.27 0 005.36 4.1 4.76 4.76 0 008.5 2.61 4.76 4.76 0 008.5-2.6 4.27 4.27 0 005.37-4.1v-.06a3.74 3.74 0 004.22-4.22h.04c.73 0 1.43-.25 2-.71 1.68 1.1 3.5 1.95 5.41 2.56-.4 4.45-3.33 25.66-22.68 32.45a8.72 8.72 0 01-5.72 0c-19.32-6.78-22.27-28-22.68-32.45zM28 61.87c-9.29 0-14.63-1.31-15.83-2.13.67-.44 2.89-1.28 7.98-1.77-.05.5-.15 1-.28 1.47a1.07 1.07 0 102.05.58c.62-2.2.54-4.53-.21-6.68.88.4 1.78.77 2.73 1.1 2.3.8 4.82.8 7.12 0 .95-.33 1.85-.7 2.73-1.1a11.14 11.14 0 00-.21 6.68 1.07 1.07 0 102.05-.58 8.95 8.95 0 01-.28-1.47c5.1.5 7.3 1.33 7.98 1.77-1.2.82-6.54 2.13-15.83 2.13z"/></svg>