<svg xmlns="http://www.w3.org/2000/svg" fill="none" viewBox="0 0 64 30"><defs/><path fill="#000" d="M60.37 1.29c-.9.01-1.78.15-2.63.42-.46.15-.76.59-.74 1.07V5.6a11.84 11.84 0 01-7.03 1.9c-.72 0-1.29 0-1.62-.08L41.3.75A2.7 2.7 0 0039.37.1c-3.82 0-12.55 4.3-17.16 7-5.46 3.24-16.55 5.11-16.66 5.13l-.23.07c-5.6 2.32-5.74 6.95-5 9.17 1.55 7.95 19.08 8.41 23.08 8.41h38.44c.6 0 1.08-.48 1.08-1.07v-5.74c.56-.65.93-1.44 1.08-2.28V4.49c-.04-2.02-1.4-3.2-3.63-3.2zm-42.9 10.23l1.43 2.58a1.08 1.08 0 001.88-1.07l-1.26-2.3c.92-.35 1.79-.73 2.6-1.14l1.8 2.75a1.08 1.08 0 101.8-1.18l-1.7-2.6c.77-.44 1.56-.88 2.4-1.31l2.14 3.14a1.08 1.08 0 101.77-1.23l-2.02-2.9c.95-.48 1.92-.94 2.86-1.36l2.52 3.66a1.08 1.08 0 101.79-1.2l-.02-.01-2.24-3.23c1.94-.91 4-1.51 6.13-1.78.15-.02.3-.02.46 0l4.3 4.04a34.13 34.13 0 01-16.93 12.1 46.06 46.06 0 00-9.16-1.99 13.2 13.2 0 01-7.54-3.03 66.1 66.1 0 007-1.94zM6.03 14.37c.27 0 .96-.17 1.91-.36a15.65 15.65 0 0010.01 4.63c3.54.17 11.01 2.56 16.15 4.3h-4.72c-19.5.08-25.35-1.46-27.1-2.54-.24-.97-.58-4.2 3.75-6.03zm54.75 13.36H23.9c-4.73.07-16.02-.68-20.07-4.38 3.36.9 10.34 1.82 25.6 1.82 3.57 0 7.17 0 10.6-.13 3.23-.07 6.27-.17 9-.28 6.6-.25 11.22-.52 11.28-.53h.45v3.5zm1.07-7.19c-.06.31-.4 1.55-1.61 1.55-.08 0-4.03.24-9.83.47 2.08-7.38 8.67-9.82 11.44-10.52v8.5zm-13.7 2.11c-2.44.09-5.13.17-7.95.24-.96-.37-5.03-1.88-9.6-3.34A36.6 36.6 0 0045.68 7.9l1.4 1.36c.17.15.37.25.59.28.75.1 1.51.14 2.27.14 2.58 0 6.21-.5 8.83-2.84.22-.2.35-.5.35-.8V3.57c.4-.08.8-.13 1.2-.13 1.48 0 1.5.64 1.51 1.07l.02 5.32c-2.85.68-11.47 3.46-13.7 12.82z"/></svg>