<svg xmlns="http://www.w3.org/2000/svg" fill="none" viewBox="0 0 64 64"><defs/><path fill="#000" d="M54.09 8.87l-.04-.04A31.82 31.82 0 0031.98 0h-.2a32 32 0 00.01 64h.19a32 32 0 0022.1-55.13zm-2.72.91a31.63 31.63 0 00-8.96 20.97h-9.37V2.53a29.3 29.3 0 0118.33 7.25zM30.54 30.75h-9A31.65 31.65 0 0012.6 9.78a29.28 29.28 0 0117.95-7.24v28.2zm0 2.5v28.2a29.29 29.29 0 01-17.95-7.23 31.65 31.65 0 008.95-20.97h9zm2.5 0h9.37a31.62 31.62 0 008.96 20.97 29.3 29.3 0 01-18.33 7.25V33.25zM53.18 11.5a29.17 29.17 0 018.26 19.25H44.92a29.15 29.15 0 018.26-19.24zm-42.4 0a29.17 29.17 0 018.26 19.25H2.5a29.12 29.12 0 018.27-19.24zM2.5 33.25h16.53a29.17 29.17 0 01-8.26 19.25A29.13 29.13 0 012.5 33.25zM53.18 52.5a29.15 29.15 0 01-8.27-19.25h16.54a29.18 29.18 0 01-8.27 19.24z"/></svg>