<svg xmlns="http://www.w3.org/2000/svg" fill="none" viewBox="0 0 64 64"><defs/><g fill="#000" clip-path="url(#clip0)"><path d="M63.55 48.47a48.8 48.8 0 00-1.52-5.68V38.1a30.03 30.03 0 00-30-30.03 30.03 30.03 0 00-30.01 30v4.68C1.36 44.63.82 46.55.4 48.5c-.46 1.9-.8 4.26.61 5.86 1.03 1.06 2.6 1.57 5.25 1.57 1.96-.04 3.91-.2 5.85-.5 9.37-1.3 19.91-1.6 19.91-1.6s10.61.32 19.91 1.6c6.49.9 9.46.59 11-1.1 1.56-1.7 1.09-3.95.62-5.86zm-3.87-10.4v3.42c-.82-.23-1.66-.44-2.5-.64h-.06a92.58 92.58 0 00-8.36-1.62v-1.18c0-11.6-3.52-21.46-8.75-26.47a27.7 27.7 0 0119.67 26.49zm-3.51 8.6c-.89.99-4.57.61-7.26.24-7.93-1.1-16.8-1.35-16.88-1.35-.07 0-8.94.25-16.87 1.35-2.7.37-6.37.75-7.26-.24-.38-.42-.39-1.39 0-2.9l.17-.7a117.82 117.82 0 0124.78-2.67c7.8-.03 15.58.84 23.18 2.6l.19.77c.33 1.48.33 2.45-.06 2.87l.01.03zM32.02 10.42c7.94 0 14.4 12.4 14.4 27.66v.8c-4.52-.57-9.06-.85-13.6-.85-5.1 0-10.18.33-15.23.97v-.92c.04-15.26 6.5-27.66 14.43-27.66zM4.36 38.07a27.7 27.7 0 0119.67-26.48C18.8 16.6 15.3 26.46 15.3 38.07v1.25c-3.68.53-7.33 1.26-10.93 2.18v-3.43zm56.88 14.7c-1.17 1.25-5.37.84-8.95.35a222.18 222.18 0 00-20.27-1.62c-.1 0-10.91.33-20.27 1.62-3.51.49-7.81.9-8.95-.36-.51-.57-.54-1.79-.07-3.7.76-3.12 1.17-4.48 1.34-5.06l1.41-.37c-.32 1.53-.48 3.33.66 4.58 1.52 1.68 4.68 1.63 9.37.98 7.72-1.06 16.51-1.3 16.51-1.32 0-.01 8.84.26 16.58 1.32 1.59.25 3.2.38 4.8.41 2.08 0 3.61-.37 4.53-1.4 1.17-1.24.98-3.05.65-4.58l1.43.38c.19.58.59 1.94 1.34 5.04.43 1.93.4 3.15-.1 3.72z"/><path d="M32.02 20.16c-6.56 0-11.71 3.27-11.71 7.44s5.14 7.43 11.71 7.43c6.57 0 11.71-3.26 11.71-7.43s-5.15-7.44-11.7-7.44zm0 12.52c-5.07 0-9.37-2.34-9.37-5.1 0-2.75 4.29-5.09 9.37-5.09 5.08 0 9.37 2.34 9.37 5.1 0 2.75-4.3 5.09-9.37 5.09z"/></g><defs><clipPath id="clip0"><path fill="#fff" d="M0 0h64v64H0z"/></clipPath></defs></svg>