<?xml version="1.0" encoding="utf-8"?>
<!-- Generator: Adobe Illustrator 25.3.1, SVG Export Plug-In . SVG Version: 6.00 Build 0)  -->
<svg version="1.1" xmlns="http://www.w3.org/2000/svg" xmlns:xlink="http://www.w3.org/1999/xlink" x="0px" y="0px"
	 width="872.85px" height="792.78px" viewBox="0 0 872.85 792.78" enable-background="new 0 0 872.85 792.78" xml:space="preserve">
<g id="shops">
	<polygon id="sh_x5F_177" fill-rule="evenodd" clip-rule="evenodd" fill="#FFFFFF" points="55.1,400.2 55.21,364.55 90.61,364.55 
		99.76,400.2 	"/>
	<polygon id="sh_x5F_179" fill-rule="evenodd" clip-rule="evenodd" fill="#FFFFFF" points="55.1,435.26 55.1,400.2 99.76,400.2 
		108.85,435.26 	"/>
	<polygon id="sh_x5F_180" fill-rule="evenodd" clip-rule="evenodd" fill="#FFFFFF" points="1.34,471.77 1.34,400.2 55.1,400.2 
		55.1,435.26 108.85,435.26 108.85,471.77 	"/>
	
		<rect id="sh_x5F_181" x="58.54" y="471.77" fill-rule="evenodd" clip-rule="evenodd" fill="#FFFFFF" width="50.32" height="23.12"/>
	<polygon id="sh_x5F_185" fill-rule="evenodd" clip-rule="evenodd" fill="#FFFFFF" points="91.98,642.61 75.25,627.5 75.25,621.07 
		108.85,621.07 108.85,626.16 	"/>
	<path id="sh_x5F_188" fill-rule="evenodd" clip-rule="evenodd" fill="#FFFFFF" d="M1.34,621.08h19.96v47.98
		c8.44,7.62,14.16,12.8,22.6,20.42L22.75,710.1l-18.02-17.2H1.34C1.34,668.96,1.34,645.02,1.34,621.08"/>
	<polygon id="sh_x5F_189" fill="#FFFFFF" points="4.72,692.91 22.75,710.1 8.39,724.1 1.34,724.1 1.34,692.91 	"/>
	<polygon id="sh_x5F_187a" fill-rule="evenodd" clip-rule="evenodd" fill="#FFFFFF" points="43.81,670.1 53.77,679.55 44.08,689.34 
		34.12,679.88 	"/>
	<polygon id="sh_x5F_184" fill-rule="evenodd" clip-rule="evenodd" fill="#FFFFFF" points="39.49,621.08 39.49,542.07 
		108.85,542.07 108.85,621.08 39.6,621.08 	"/>
	<polyline id="sh_x5F_186a" fill-rule="evenodd" clip-rule="evenodd" fill="#FFFFFF" points="36.32,621.08 56.39,621.08 
		56.23,641.92 75.7,658.49 60.28,673.51 36.32,651.87 36.32,621.08 	"/>
	<polyline id="sh_x5F_186" fill-rule="evenodd" clip-rule="evenodd" fill="#FFFFFF" points="75.25,621.07 75.25,627.5 91.98,642.61 
		75.7,658.49 56.23,641.92 56.39,621.08 75.25,621.07 	"/>
	<polyline id="sh_x5F_187" fill-rule="evenodd" clip-rule="evenodd" fill="#FFFFFF" points="21.31,621.08 36.32,621.08 
		36.32,651.87 60.28,673.51 53.77,679.55 43.81,670.1 34.12,679.88 21.31,669.05 21.31,621.08 	"/>
	<rect id="sh_x5F_105" x="173.41" y="619.13" fill-rule="evenodd" clip-rule="evenodd" fill="#FFFFFF" width="30" height="70.98"/>
	<polygon id="sh_x5F_103" fill-rule="evenodd" clip-rule="evenodd" fill="#FFFFFF" points="107.45,690.12 107.45,686.05 
		134.99,658.11 145.55,667.16 173.41,667.16 173.41,690.12 	"/>
	<polygon id="sh_x5F_104" fill-rule="evenodd" clip-rule="evenodd" fill="#FFFFFF" points="145.55,667.15 134.99,658.11 
		173.41,619.14 173.41,667.15 	"/>
	
		<rect id="sh_x5F_106" x="203.41" y="619.13" fill-rule="evenodd" clip-rule="evenodd" fill="#FFFFFF" width="34.26" height="34.4"/>
	<polygon id="sh_x5F_107" fill-rule="evenodd" clip-rule="evenodd" fill="#FFFFFF" points="203.41,690.11 203.41,653.54 
		237.68,653.54 237.68,619.13 270.59,619.13 270.59,690.11 	"/>
	
		<rect id="sh_x5F_102" x="107.45" y="690.11" fill-rule="evenodd" clip-rule="evenodd" fill="#FFFFFF" width="33.78" height="19.63"/>
	
		<rect id="sh_x5F_108b" x="270.59" y="619.13" fill-rule="evenodd" clip-rule="evenodd" fill="#FFFFFF" width="19.16" height="70.98"/>
	
		<rect id="sh_x5F_108a" x="289.75" y="619.13" fill-rule="evenodd" clip-rule="evenodd" fill="#FFFFFF" width="19.16" height="70.98"/>
	
		<rect id="sh_x5F_109" x="308.91" y="619.13" fill-rule="evenodd" clip-rule="evenodd" fill="#FFFFFF" width="32.91" height="70.98"/>
	<polygon id="sh_x5F_117" fill-rule="evenodd" clip-rule="evenodd" fill="#FFFFFF" points="607.75,752.45 607.75,752.45 
		607.75,690.12 641.15,690.12 641.15,619.14 687.5,619.14 687.5,752.45 687.5,791.49 607.75,791.44 	"/>
	
		<rect id="sh_x5F_114" x="516.72" y="619.14" fill-rule="evenodd" clip-rule="evenodd" fill="#FFFFFF" width="91.03" height="172.3"/>
	<polygon id="sh_x5F_110" fill-rule="evenodd" clip-rule="evenodd" fill="#FFFFFF" points="406.67,791.44 406.67,619.13 
		341.82,619.13 341.82,690.11 203.41,690.11 203.41,791.44 	"/>
	<path id="sh_x5F_190" fill-rule="evenodd" clip-rule="evenodd" fill="#FFFFFF" d="M107.45,752.34v-42.59h33.78v-19.64h62.18v62.22
		C171.43,752.33,139.44,752.34,107.45,752.34"/>
	
		<rect id="sh_x5F_101" x="107.45" y="752.33" fill-rule="evenodd" clip-rule="evenodd" fill="#FFFFFF" width="95.96" height="39.1"/>
	
		<rect id="sh_x5F_113" x="406.67" y="619.14" fill-rule="evenodd" clip-rule="evenodd" fill="#FFFFFF" width="110.05" height="172.3"/>
	
		<rect id="sh_x5F_116" x="607.75" y="619.14" fill-rule="evenodd" clip-rule="evenodd" fill="#FFFFFF" width="33.4" height="70.98"/>
	<polygon id="sh_x5F_118" fill-rule="evenodd" clip-rule="evenodd" fill="#FFFFFF" points="705.19,791.51 836.66,791.59 
		871.51,791.44 871.51,749.6 871.52,626.92 826.06,626.92 826.06,561.65 736.24,561.65 736.09,583.22 705.19,619.14 	"/>
	<polygon id="sh_x5F_119" fill-rule="evenodd" clip-rule="evenodd" fill="#FFFFFF" points="736.09,545.14 736.09,495.14 
		787.78,495.14 787.78,384.68 768.98,384.68 768.98,361.82 871.51,361.82 871.51,545.14 	"/>
	
		<rect id="sh_x5F_120" x="736.09" y="463.38" fill-rule="evenodd" clip-rule="evenodd" fill="#FFFFFF" width="51.69" height="31.77"/>
	
		<rect id="sh_x5F_122" x="736.09" y="384.68" fill-rule="evenodd" clip-rule="evenodd" fill="#FFFFFF" width="51.69" height="54.87"/>
	
		<rect id="sh_x5F_161" x="736.09" y="361.82" fill-rule="evenodd" clip-rule="evenodd" fill="#FFFFFF" width="32.89" height="22.86"/>
	
		<rect id="sh_x5F_121" x="736.09" y="439.55" fill-rule="evenodd" clip-rule="evenodd" fill="#FFFFFF" width="51.69" height="23.82"/>
	
		<rect id="sh_x5F_160" x="433.75" y="361.43" fill-rule="evenodd" clip-rule="evenodd" fill="#FFFFFF" width="21.58" height="32.93"/>
	
		<rect id="sh_x5F_199" x="172.83" y="361.44" fill-rule="evenodd" clip-rule="evenodd" fill="#FFFFFF" width="23.95" height="32.93"/>
	
		<rect id="sh_x5F_198" x="196.78" y="361.44" fill-rule="evenodd" clip-rule="evenodd" fill="#FFFFFF" width="23.95" height="32.93"/>
	<rect id="sh_x5F_197" x="220.73" y="361.44" fill-rule="evenodd" clip-rule="evenodd" fill="#FFFFFF" width="22" height="32.93"/>
	
		<rect id="sh_x5F_196" x="242.72" y="361.44" fill-rule="evenodd" clip-rule="evenodd" fill="#FFFFFF" width="25.9" height="32.93"/>
	
		<rect id="sh_x5F_195" x="268.62" y="361.44" fill-rule="evenodd" clip-rule="evenodd" fill="#FFFFFF" width="23.95" height="32.93"/>
	
		<rect id="sh_x5F_194" x="292.57" y="361.44" fill-rule="evenodd" clip-rule="evenodd" fill="#FFFFFF" width="23.95" height="32.93"/>
	
		<rect id="sh_x5F_193" x="316.52" y="361.44" fill-rule="evenodd" clip-rule="evenodd" fill="#FFFFFF" width="23.95" height="32.93"/>
	
		<rect id="sh_x5F_192" x="340.46" y="361.44" fill-rule="evenodd" clip-rule="evenodd" fill="#FFFFFF" width="23.95" height="32.93"/>
	<polygon id="sh_x5F_172" fill-rule="evenodd" clip-rule="evenodd" fill="#FFFFFF" points="388.36,394.37 364.41,394.37 
		364.41,361.44 388.36,361.44 388.36,361.44 406.67,361.44 406.67,369.64 395.15,369.64 395.15,394.37 388.36,394.37 	"/>
	
		<rect id="sh_x5F_170" x="455.33" y="361.44" fill-rule="evenodd" clip-rule="evenodd" fill="#FFFFFF" width="21.01" height="32.94"/>
	
		<rect id="sh_x5F_168" x="476.33" y="361.44" fill-rule="evenodd" clip-rule="evenodd" fill="#FFFFFF" width="21.01" height="32.94"/>
	
		<rect id="sh_x5F_166" x="497.34" y="361.44" fill-rule="evenodd" clip-rule="evenodd" fill="#FFFFFF" width="19.19" height="32.94"/>
	
		<rect id="sh_x5F_164" x="516.53" y="361.44" fill-rule="evenodd" clip-rule="evenodd" fill="#FFFFFF" width="22.83" height="32.94"/>
	
		<rect id="sh_x5F_163" x="539.36" y="361.44" fill-rule="evenodd" clip-rule="evenodd" fill="#FFFFFF" width="21.01" height="32.94"/>
	
		<rect id="sh_x5F_157" x="560.37" y="361.44" fill-rule="evenodd" clip-rule="evenodd" fill="#FFFFFF" width="22.05" height="32.94"/>
	
		<rect id="sh_x5F_155" x="582.42" y="361.44" fill-rule="evenodd" clip-rule="evenodd" fill="#FFFFFF" width="19.96" height="32.94"/>
	
		<rect id="sh_x5F_151" x="623.39" y="361.44" fill-rule="evenodd" clip-rule="evenodd" fill="#FFFFFF" width="18.83" height="32.94"/>
	
		<rect id="sh_x5F_149" x="642.22" y="361.44" fill-rule="evenodd" clip-rule="evenodd" fill="#FFFFFF" width="19.25" height="32.94"/>
	<polygon id="sh_x5F_145" fill-rule="evenodd" clip-rule="evenodd" fill="#FFFFFF" points="640.59,394.37 640.59,447.95 
		673.61,447.95 688.87,432.27 688.87,413.51 661.47,413.51 661.47,394.37 	"/>
	
		<rect id="sh_x5F_146" x="661.47" y="394.37" fill-rule="evenodd" clip-rule="evenodd" fill="#FFFFFF" width="27.4" height="19.14"/>
	
		<rect id="sh_x5F_148" x="608.15" y="394.37" fill-rule="evenodd" clip-rule="evenodd" fill="#FFFFFF" width="32.43" height="53.58"/>
	
		<rect id="sh_x5F_150" x="575.72" y="394.37" fill-rule="evenodd" clip-rule="evenodd" fill="#FFFFFF" width="32.43" height="53.58"/>
	<polygon id="sh_x5F_153" fill-rule="evenodd" clip-rule="evenodd" fill="#FFFFFF" points="504.26,447.95 555.59,447.95 
		555.59,431.71 575.72,431.71 575.72,394.37 504.26,394.37 	"/>
	
		<rect id="sh_x5F_152" x="555.59" y="431.71" fill-rule="evenodd" clip-rule="evenodd" fill="#FFFFFF" width="20.13" height="16.24"/>
	<polygon id="sh_x5F_158" fill-rule="evenodd" clip-rule="evenodd" fill="#FFFFFF" points="434.2,447.95 471.84,447.95 
		471.84,394.37 415.18,394.37 415.18,429.12 434.2,429.12 	"/>
	
		<rect id="sh_x5F_165" x="276.35" y="394.37" fill-rule="evenodd" clip-rule="evenodd" fill="#FFFFFF" width="99.36" height="53.58"/>
	
		<rect id="sh_x5F_167" x="237.68" y="394.38" fill-rule="evenodd" clip-rule="evenodd" fill="#FFFFFF" width="38.67" height="53.58"/>
	
		<rect id="sh_x5F_169" x="205.42" y="394.37" fill-rule="evenodd" clip-rule="evenodd" fill="#FFFFFF" width="32.26" height="53.58"/>
	
		<rect id="sh_x5F_173" x="149.7" y="394.37" fill-rule="evenodd" clip-rule="evenodd" fill="#FFFFFF" width="23.14" height="22.45"/>
	<polygon id="sh_x5F_174" fill-rule="evenodd" clip-rule="evenodd" fill="#FFFFFF" points="162.76,361.43 172.83,361.43 
		172.83,380.98 149.7,380.98 149.7,374.7 	"/>
	<polygon id="sh_x5F_159" fill-rule="evenodd" clip-rule="evenodd" fill="#FFFFFF" points="149.7,416.82 172.83,416.82 
		172.83,447.95 168.75,447.95 149.7,428.6 	"/>
	<polygon id="sh_x5F_147" fill-rule="evenodd" clip-rule="evenodd" fill="#FFFFFF" points="675.8,361.43 661.47,361.43 
		661.47,394.36 688.87,394.36 688.87,374.7 	"/>
	
		<rect id="sh_x5F_101a" x="375.7" y="394.37" fill-rule="evenodd" clip-rule="evenodd" fill="#FFFFFF" width="19.45" height="34.75"/>
	
		<rect id="sh_x5F_154" x="602.72" y="361.44" fill-rule="evenodd" clip-rule="evenodd" fill="#FFFFFF" width="21.01" height="32.94"/>
	
		<rect id="sh_x5F_174a" x="149.7" y="380.98" fill-rule="evenodd" clip-rule="evenodd" fill="#FFFFFF" width="23.14" height="13.4"/>
	<polygon id="sh_x5F_162" fill-rule="evenodd" clip-rule="evenodd" fill="#FFFFFF" points="415.17,369.64 415.17,394.37 
		433.75,394.37 433.75,361.43 406.66,361.43 406.66,369.64 	"/>
	
		<rect id="sh_x5F_171" x="172.83" y="394.36" fill-rule="evenodd" clip-rule="evenodd" fill="#FFFFFF" width="32.59" height="53.58"/>
	<polygon id="sh_x5F_134" fill-rule="evenodd" clip-rule="evenodd" fill="#FFFFFF" points="310.44,571.4 310.44,525.17 
		342.87,525.17 342.87,564.05 335.27,571.4 	"/>
	
		<rect id="sh_x5F_135" x="310.44" y="478.93" fill-rule="evenodd" clip-rule="evenodd" fill="#FFFFFF" width="32.42" height="46.23"/>
	
		<rect id="sh_x5F_136" x="278.02" y="525.17" fill-rule="evenodd" clip-rule="evenodd" fill="#FFFFFF" width="32.42" height="46.23"/>
	
		<rect id="sh_x5F_137" x="278.02" y="478.93" fill-rule="evenodd" clip-rule="evenodd" fill="#FFFFFF" width="32.42" height="46.23"/>
	
		<rect id="sh_x5F_139" x="205.42" y="525.17" fill-rule="evenodd" clip-rule="evenodd" fill="#FFFFFF" width="22.11" height="46.23"/>
	
		<rect id="sh_x5F_141" x="172.83" y="525.17" fill-rule="evenodd" clip-rule="evenodd" fill="#FFFFFF" width="32.58" height="46.23"/>
	
		<rect id="sh_x5F_142" x="172.83" y="478.93" fill-rule="evenodd" clip-rule="evenodd" fill="#FFFFFF" width="54.69" height="46.23"/>
	<polygon id="sh_x5F_143" fill-rule="evenodd" clip-rule="evenodd" fill="#FFFFFF" points="153.78,552.05 153.78,525.17 
		172.83,525.17 172.83,571.4 	"/>
	
		<rect id="sh_x5F_138" x="227.52" y="478.93" fill-rule="evenodd" clip-rule="evenodd" fill="#FFFFFF" width="50.5" height="92.47"/>
	
		<rect id="sh_x5F_132" x="468.99" y="526.55" fill-rule="evenodd" clip-rule="evenodd" fill="#FFFFFF" width="35.27" height="44.85"/>
	
		<rect id="sh_x5F_133" x="468.99" y="497.62" fill-rule="evenodd" clip-rule="evenodd" fill="#FFFFFF" width="35.27" height="28.93"/>
	
		<rect id="sh_x5F_131" x="504.26" y="478.93" fill-rule="evenodd" clip-rule="evenodd" fill="#FFFFFF" width="32.59" height="47.62"/>
	
		<rect id="sh_x5F_129" x="536.84" y="478.93" fill-rule="evenodd" clip-rule="evenodd" fill="#FFFFFF" width="38.15" height="47.62"/>
	
		<rect id="sh_x5F_128" x="536.84" y="525.97" fill-rule="evenodd" clip-rule="evenodd" fill="#FFFFFF" width="38.15" height="44.85"/>
	<rect id="sh_x5F_127" x="575" y="478.36" fill-rule="evenodd" clip-rule="evenodd" fill="#FFFFFF" width="65.83" height="92.47"/>
	<polygon id="sh_x5F_123" fill-rule="evenodd" clip-rule="evenodd" fill="#FFFFFF" points="640.82,525.75 640.82,570.82 
		673.85,570.82 689.46,556.04 689.46,536.38 663.42,536.38 663.42,525.75 	"/>
	<polygon id="sh_x5F_126" fill-rule="evenodd" clip-rule="evenodd" fill="#FFFFFF" points="640.82,478.35 640.82,525.75 
		663.42,525.75 663.42,501.12 666.26,501.12 666.26,478.35 	"/>
	
		<rect id="sh_x5F_124" x="663.42" y="512.04" fill-rule="evenodd" clip-rule="evenodd" fill="#FFFFFF" width="26.03" height="24.34"/>
	<polygon id="sh_x5F_125" fill-rule="evenodd" clip-rule="evenodd" fill="#FFFFFF" points="663.42,501.12 663.42,512.04 
		689.46,512.04 689.46,493.91 673.85,478.35 666.26,478.35 666.26,501.12 	"/>
	
		<rect id="sh_x5F_191" x="468.99" y="478.93" fill-rule="evenodd" clip-rule="evenodd" fill="#FFFFFF" width="35.27" height="18.69"/>
	<path id="sh_x5F_111" fill-rule="evenodd" clip-rule="evenodd" fill="#FFFFFF" d="M154.39,497.07c19.4,0,18.45,0.23,18.45,0.23
		v-17.67L154.39,497.07z"/>
	
		<rect id="sh_x5F_130" x="504.26" y="526.55" fill-rule="evenodd" clip-rule="evenodd" fill="#FFFFFF" width="32.59" height="44.85"/>
	<rect id="sh_x5F_144" x="153.78" y="497.3" fill-rule="evenodd" clip-rule="evenodd" fill="#FFFFFF" width="19.4" height="27.87"/>
	<polygon id="sh_x5F_182" fill-rule="evenodd" clip-rule="evenodd" fill="#FFFFFF" points="1.34,526.92 1.34,471.77 58.54,471.77 
		58.54,494.88 108.85,494.88 108.85,526.92 	"/>
	
		<rect id="sh_x5F_156" x="471.84" y="394.37" fill-rule="evenodd" clip-rule="evenodd" fill="#FFFFFF" width="32.42" height="53.58"/>
</g>
<g id="Layer_1">
	
		<polygon fill="none" stroke="#24211C" stroke-width="2.689" stroke-linecap="round" stroke-linejoin="round" stroke-miterlimit="22.926" points="
		871.51,1.51 1.34,1.34 1.34,791.44 871.51,791.44 	"/>
	
		<polygon fill="none" stroke="#24211C" stroke-width="1.417" stroke-linecap="round" stroke-linejoin="round" stroke-miterlimit="22.926" points="
		36.32,651.87 36.32,621.08 75.25,621.08 75.25,627.5 91.98,642.62 86.92,647.55 60.28,673.51 	"/>
	
		<rect x="433.75" y="361.43" fill="none" stroke="#24211C" stroke-width="1.528" stroke-linecap="round" stroke-linejoin="round" stroke-miterlimit="22.926" width="21.58" height="32.93"/>
	<rect x="172.83" y="361.44" fill="none" stroke="#24211C" stroke-miterlimit="22.926" width="23.95" height="32.93"/>
	
		<rect x="196.78" y="361.44" fill="none" stroke="#24211C" stroke-width="1.348" stroke-linecap="round" stroke-linejoin="round" stroke-miterlimit="22.926" width="23.95" height="32.93"/>
	
		<rect x="220.73" y="361.44" fill="none" stroke="#24211C" stroke-width="1.34" stroke-linecap="round" stroke-linejoin="round" stroke-miterlimit="22.926" width="22" height="32.93"/>
	
		<rect x="242.72" y="361.44" fill="none" stroke="#24211C" stroke-width="1.34" stroke-linecap="round" stroke-linejoin="round" stroke-miterlimit="22.926" width="25.9" height="32.93"/>
	
		<rect x="268.62" y="361.44" fill="none" stroke="#24211C" stroke-width="1.33" stroke-linecap="round" stroke-linejoin="round" stroke-miterlimit="22.926" width="23.95" height="32.93"/>
	
		<rect x="292.57" y="361.44" fill="none" stroke="#24211C" stroke-width="1.34" stroke-linecap="round" stroke-linejoin="round" stroke-miterlimit="22.926" width="23.95" height="32.93"/>
	
		<rect x="316.52" y="361.44" fill="none" stroke="#24211C" stroke-width="1.345" stroke-linecap="round" stroke-linejoin="round" stroke-miterlimit="22.926" width="23.95" height="32.93"/>
	
		<rect x="340.46" y="361.44" fill="none" stroke="#24211C" stroke-width="1.528" stroke-linecap="round" stroke-linejoin="round" stroke-miterlimit="22.926" width="23.95" height="32.93"/>
	
		<polygon fill="none" stroke="#24211C" stroke-width="1.34" stroke-linecap="round" stroke-linejoin="round" stroke-miterlimit="22.926" points="
		388.36,394.37 364.41,394.37 364.41,361.44 388.36,361.44 388.36,361.44 406.67,361.44 406.67,369.64 395.15,369.64 395.15,394.37 
		388.36,394.37 	"/>
	
		<rect x="455.33" y="361.44" fill="none" stroke="#24211C" stroke-width="1.345" stroke-linecap="round" stroke-linejoin="round" stroke-miterlimit="22.926" width="21.01" height="32.94"/>
	
		<rect x="476.33" y="361.44" fill="none" stroke="#24211C" stroke-width="1.333" stroke-linecap="round" stroke-linejoin="round" stroke-miterlimit="22.926" width="21.01" height="32.94"/>
	
		<rect x="497.34" y="361.44" fill="none" stroke="#24211C" stroke-width="1.322" stroke-linecap="round" stroke-linejoin="round" stroke-miterlimit="22.926" width="19.19" height="32.94"/>
	
		<rect x="516.53" y="361.44" fill="none" stroke="#24211C" stroke-width="1.326" stroke-linecap="round" stroke-linejoin="round" stroke-miterlimit="22.926" width="22.83" height="32.94"/>
	
		<rect x="539.36" y="361.44" fill="none" stroke="#24211C" stroke-width="1.345" stroke-linecap="round" stroke-linejoin="round" stroke-miterlimit="22.926" width="21.01" height="32.94"/>
	
		<rect x="560.37" y="361.44" fill="none" stroke="#24211C" stroke-width="1.322" stroke-linecap="round" stroke-linejoin="round" stroke-miterlimit="22.926" width="22.05" height="32.94"/>
	
		<rect x="582.42" y="361.44" fill="none" stroke="#24211C" stroke-width="1.322" stroke-linecap="round" stroke-linejoin="round" stroke-miterlimit="22.926" width="19.96" height="32.94"/>
	
		<rect x="623.39" y="361.44" fill="none" stroke="#24211C" stroke-width="1.326" stroke-linecap="round" stroke-linejoin="round" stroke-miterlimit="22.926" width="18.83" height="32.94"/>
	
		<rect x="642.22" y="361.44" fill="none" stroke="#24211C" stroke-width="1.318" stroke-linecap="round" stroke-linejoin="round" stroke-miterlimit="22.926" width="19.25" height="32.94"/>
	
		<polygon fill="none" stroke="#24211C" stroke-width="1.345" stroke-linecap="round" stroke-linejoin="round" stroke-miterlimit="22.926" points="
		310.44,571.4 310.44,525.17 342.87,525.17 342.87,564.05 335.27,571.4 	"/>
	
		<rect x="310.44" y="478.93" fill="none" stroke="#24211C" stroke-width="1.269" stroke-linecap="round" stroke-linejoin="round" stroke-miterlimit="22.926" width="32.42" height="46.23"/>
	
		<rect x="278.02" y="525.17" fill="none" stroke="#24211C" stroke-width="1.269" stroke-linecap="round" stroke-linejoin="round" stroke-miterlimit="22.926" width="32.42" height="46.23"/>
	
		<rect x="278.02" y="478.93" fill="none" stroke="#24211C" stroke-width="1.269" stroke-linecap="round" stroke-linejoin="round" stroke-miterlimit="22.926" width="32.42" height="46.23"/>
	
		<rect x="205.42" y="525.17" fill="none" stroke="#24211C" stroke-width="1.34" stroke-linecap="round" stroke-linejoin="round" stroke-miterlimit="22.926" width="22.11" height="46.23"/>
	
		<rect x="172.83" y="525.17" fill="none" stroke="#24211C" stroke-width="1.34" stroke-linecap="round" stroke-linejoin="round" stroke-miterlimit="22.926" width="32.58" height="46.23"/>
	
		<rect x="172.83" y="478.93" fill="none" stroke="#24211C" stroke-width="1.345" stroke-linecap="round" stroke-linejoin="round" stroke-miterlimit="22.926" width="54.69" height="46.23"/>
	
		<polygon fill="none" stroke="#24211C" stroke-width="1.345" stroke-linecap="round" stroke-linejoin="round" stroke-miterlimit="22.926" points="
		153.78,552.05 153.78,525.17 172.83,525.17 172.83,571.4 	"/>
	
		<line fill="none" stroke="#24211C" stroke-width="0.216" stroke-miterlimit="22.926" x1="172.83" y1="498.08" x2="172.83" y2="478.93"/>
	
		<line fill="none" stroke="#24211C" stroke-width="0.216" stroke-miterlimit="22.926" x1="153.78" y1="497.66" x2="172.83" y2="497.66"/>
	
		<line fill="none" stroke="#24211C" stroke-width="0.216" stroke-miterlimit="22.926" x1="153.78" y1="497.66" x2="172.83" y2="497.66"/>
	<polyline fill="none" stroke="#24211C" stroke-width="0.216" stroke-miterlimit="22.926" points="153.78,497.66 172.83,497.66 
		172.83,498.08 	"/>
	
		<polygon fill="none" stroke="#24211C" stroke-width="1.345" stroke-linecap="round" stroke-linejoin="round" stroke-miterlimit="22.926" points="
		153.78,525.16 153.78,497.66 172.83,478.93 172.83,525.16 	"/>
	
		<rect x="227.52" y="478.93" fill="none" stroke="#24211C" stroke-width="1.273" stroke-linecap="round" stroke-linejoin="round" stroke-miterlimit="22.926" width="50.5" height="92.47"/>
	
		<rect x="173.41" y="619.13" fill="none" stroke="#24211C" stroke-width="1.269" stroke-linecap="round" stroke-linejoin="round" stroke-miterlimit="22.926" width="30" height="70.98"/>
	
		<polygon fill="none" stroke="#24211C" stroke-width="1.369" stroke-linecap="round" stroke-linejoin="round" stroke-miterlimit="22.926" points="
		107.45,690.12 107.45,686.05 134.99,658.11 145.55,667.16 173.41,667.16 173.41,690.12 	"/>
	
		<polygon fill="none" stroke="#24211C" stroke-width="1.342" stroke-linecap="round" stroke-linejoin="round" stroke-miterlimit="22.926" points="
		145.55,667.15 134.99,658.11 173.41,619.14 173.41,667.15 	"/>
	
		<rect x="203.41" y="619.13" fill="none" stroke="#24211C" stroke-width="1.345" stroke-linecap="round" stroke-linejoin="round" stroke-miterlimit="22.926" width="34.26" height="34.4"/>
	
		<polygon fill="none" stroke="#24211C" stroke-width="1.34" stroke-linecap="round" stroke-linejoin="round" stroke-miterlimit="22.926" points="
		203.41,690.11 203.41,653.54 237.68,653.54 237.68,619.13 270.59,619.13 270.59,690.11 	"/>
	
		<rect x="107.45" y="690.11" fill="none" stroke="#24211C" stroke-width="1.348" stroke-linecap="round" stroke-linejoin="round" stroke-miterlimit="22.926" width="33.78" height="19.63"/>
	
		<rect x="270.59" y="619.13" fill="none" stroke="#24211C" stroke-width="1.27" stroke-linecap="round" stroke-linejoin="round" stroke-miterlimit="22.926" width="38.32" height="70.98"/>
	
		<rect x="308.91" y="619.13" fill="none" stroke="#24211C" stroke-width="1.34" stroke-linecap="round" stroke-linejoin="round" stroke-miterlimit="22.926" width="32.91" height="70.98"/>
	
		<polygon fill="none" stroke="#24211C" stroke-width="1.345" stroke-linecap="round" stroke-linejoin="round" stroke-miterlimit="22.926" points="
		607.75,752.45 607.75,752.45 607.75,690.12 641.15,690.12 641.15,619.14 687.5,619.14 687.5,752.45 687.5,791.49 607.75,791.44 	
		"/>
	
		<rect x="516.72" y="619.14" fill="none" stroke="#24211C" stroke-width="1.273" stroke-linecap="round" stroke-linejoin="round" stroke-miterlimit="22.926" width="91.03" height="172.3"/>
	
		<polygon fill="none" stroke="#24211C" stroke-width="1.345" stroke-linecap="round" stroke-linejoin="round" stroke-miterlimit="22.926" points="
		406.67,791.44 406.67,619.13 341.82,619.13 341.82,690.11 203.41,690.11 203.41,791.44 	"/>
	
		<path fill="none" stroke="#24211C" stroke-width="1.34" stroke-linecap="round" stroke-linejoin="round" stroke-miterlimit="22.926" d="
		M107.45,752.34v-42.59h33.78v-19.64h62.18v62.22C171.43,752.33,139.44,752.34,107.45,752.34z"/>
	
		<polygon fill="none" stroke="#24211C" stroke-width="1.345" stroke-linecap="round" stroke-linejoin="round" stroke-miterlimit="22.926" points="
		705.19,791.51 836.66,791.59 871.51,791.44 871.51,749.6 871.52,626.92 826.06,626.92 826.06,561.65 736.24,561.65 736.09,583.22 
		705.19,619.14 	"/>
	
		<polygon fill="none" stroke="#24211C" stroke-width="1.345" stroke-linecap="round" stroke-linejoin="round" stroke-miterlimit="22.926" points="
		736.09,545.14 736.09,495.14 787.78,495.14 787.78,384.68 736.09,384.68 736.09,361.82 871.51,361.82 871.51,545.14 	"/>
	
		<rect x="736.09" y="463.38" fill="none" stroke="#24211C" stroke-width="1.344" stroke-linecap="round" stroke-linejoin="round" stroke-miterlimit="22.926" width="51.69" height="31.77"/>
	
		<rect x="736.09" y="384.68" fill="none" stroke="#24211C" stroke-width="1.345" stroke-linecap="round" stroke-linejoin="round" stroke-miterlimit="22.926" width="51.69" height="78.69"/>
	
		<rect x="468.99" y="526.55" fill="none" stroke="#24211C" stroke-width="1.27" stroke-linecap="round" stroke-linejoin="round" stroke-miterlimit="22.926" width="35.27" height="44.85"/>
	
		<rect x="468.99" y="497.62" fill="none" stroke="#24211C" stroke-width="1.269" stroke-linecap="round" stroke-linejoin="round" stroke-miterlimit="22.926" width="35.27" height="28.93"/>
	
		<rect x="504.26" y="478.93" fill="none" stroke="#24211C" stroke-width="1.269" stroke-linecap="round" stroke-linejoin="round" stroke-miterlimit="22.926" width="32.59" height="47.62"/>
	
		<rect x="536.84" y="478.93" fill="none" stroke="#24211C" stroke-width="1.266" stroke-linecap="round" stroke-linejoin="round" stroke-miterlimit="22.926" width="38.15" height="47.62"/>
	
		<rect x="536.84" y="526.55" fill="none" stroke="#24211C" stroke-width="1.27" stroke-linecap="round" stroke-linejoin="round" stroke-miterlimit="22.926" width="38.15" height="44.85"/>
	
		<rect x="575" y="478.93" fill="none" stroke="#24211C" stroke-width="1.34" stroke-linecap="round" stroke-linejoin="round" stroke-miterlimit="22.926" width="65.83" height="92.47"/>
	
		<polygon fill="none" stroke="#24211C" stroke-width="1.345" stroke-linecap="round" stroke-linejoin="round" stroke-miterlimit="22.926" points="
		640.82,526.33 640.82,571.4 673.85,571.4 689.46,556.62 689.46,536.96 663.42,536.96 663.42,526.33 	"/>
	
		<polygon fill="none" stroke="#24211C" stroke-width="1.345" stroke-linecap="round" stroke-linejoin="round" stroke-miterlimit="22.926" points="
		640.82,478.93 640.82,526.33 663.42,526.33 663.42,501.7 666.26,501.7 666.26,478.93 	"/>
	
		<rect x="663.42" y="512.62" fill="none" stroke="#24211C" stroke-width="1.348" stroke-linecap="round" stroke-linejoin="round" stroke-miterlimit="22.926" width="26.03" height="24.34"/>
	
		<polygon fill="none" stroke="#24211C" stroke-width="1.345" stroke-linecap="round" stroke-linejoin="round" stroke-miterlimit="22.926" points="
		663.42,501.7 663.42,512.62 689.46,512.62 689.46,494.49 673.85,478.93 666.26,478.93 666.26,501.7 	"/>
	
		<polygon fill="none" stroke="#24211C" stroke-width="1.345" stroke-linecap="round" stroke-linejoin="round" stroke-miterlimit="22.926" points="
		640.59,394.37 640.59,447.95 673.61,447.95 688.87,432.27 688.87,413.51 661.47,413.51 661.47,394.37 	"/>
	
		<rect x="661.47" y="394.37" fill="none" stroke="#24211C" stroke-width="1.33" stroke-linecap="round" stroke-linejoin="round" stroke-miterlimit="22.926" width="27.4" height="19.14"/>
	
		<rect x="608.15" y="394.37" fill="none" stroke="#24211C" stroke-width="1.34" stroke-linecap="round" stroke-linejoin="round" stroke-miterlimit="22.926" width="32.43" height="53.58"/>
	
		<rect x="575.72" y="394.37" fill="none" stroke="#24211C" stroke-width="1.34" stroke-linecap="round" stroke-linejoin="round" stroke-miterlimit="22.926" width="32.43" height="53.58"/>
	
		<polygon fill="none" stroke="#24211C" stroke-width="1.269" stroke-linecap="round" stroke-linejoin="round" stroke-miterlimit="22.926" points="
		504.26,447.95 555.59,447.95 555.59,431.71 575.72,431.71 575.72,394.37 504.26,394.37 	"/>
	
		<rect x="555.59" y="431.71" fill="none" stroke="#24211C" stroke-width="1.34" stroke-linecap="round" stroke-linejoin="round" stroke-miterlimit="22.926" width="20.13" height="16.24"/>
	
		<rect x="471.84" y="394.37" fill="none" stroke="#24211C" stroke-width="1.269" stroke-linecap="round" stroke-linejoin="round" stroke-miterlimit="22.926" width="32.42" height="53.58"/>
	
		<polygon fill="none" stroke="#24211C" stroke-width="1.345" stroke-linecap="round" stroke-linejoin="round" stroke-miterlimit="22.926" points="
		434.2,447.95 471.84,447.95 471.84,394.37 415.18,394.37 415.18,429.12 434.2,429.12 	"/>
	
		<rect x="276.35" y="394.37" fill="none" stroke="#24211C" stroke-width="1.345" stroke-linecap="round" stroke-linejoin="round" stroke-miterlimit="22.926" width="99.36" height="53.58"/>
	
		<rect x="237.68" y="394.38" fill="none" stroke="#24211C" stroke-width="1.34" stroke-linecap="round" stroke-linejoin="round" stroke-miterlimit="22.926" width="38.67" height="53.58"/>
	
		<rect x="205.42" y="394.37" fill="none" stroke="#24211C" stroke-width="1.34" stroke-linecap="round" stroke-linejoin="round" stroke-miterlimit="22.926" width="32.26" height="53.58"/>
	
		<polygon fill="none" stroke="#24211C" stroke-width="1.34" stroke-linecap="round" stroke-linejoin="round" stroke-miterlimit="22.926" points="
		168.75,447.95 205.42,447.95 205.42,394.37 149.7,394.37 149.7,428.6 	"/>
	
		<polygon fill="none" stroke="#24211C" stroke-width="1.345" stroke-linecap="round" stroke-linejoin="round" stroke-miterlimit="22.926" points="
		91.98,642.61 75.25,627.5 75.25,621.07 108.85,621.07 108.85,626.16 	"/>
	
		<polygon fill="none" stroke="#24211C" stroke-width="1.34" stroke-linecap="round" stroke-linejoin="round" stroke-miterlimit="22.926" points="
		56.39,621.08 56.23,641.92 75.7,658.49 60.28,673.51 36.32,651.87 36.32,621.08 	"/>
	
		<path fill="none" stroke="#24211C" stroke-width="1.345" stroke-linecap="round" stroke-linejoin="round" stroke-miterlimit="22.926" d="
		M21.31,669.05v-47.98h15.01v30.79c8.44,7.62,15.52,14.02,23.96,21.65l-16.37,15.96L21.31,669.05z"/>
	
		<path fill="none" stroke="#24211C" stroke-width="1.345" stroke-linecap="round" stroke-linejoin="round" stroke-miterlimit="22.926" d="
		M1.34,621.08h19.96v47.98c8.44,7.62,14.16,12.8,22.6,20.42L22.75,710.1l-18.02-17.2H1.34C1.34,668.96,1.34,645.02,1.34,621.08z"/>
	<polygon fill="none" stroke="#12100B" stroke-miterlimit="10" points="4.72,692.91 22.75,710.1 8.39,724.1 1.34,724.1 1.34,692.91 
			"/>
	
		<polygon fill="none" stroke="#24211C" stroke-width="1.34" stroke-linecap="round" stroke-linejoin="round" stroke-miterlimit="22.926" points="
		1.34,526.92 1.34,471.77 58.54,471.77 58.54,494.88 108.85,494.88 108.85,526.92 	"/>
	
		<rect x="58.54" y="471.77" fill="none" stroke="#24211C" stroke-width="1.264" stroke-linecap="round" stroke-linejoin="round" stroke-miterlimit="22.926" width="50.32" height="23.12"/>
	
		<polygon fill="none" stroke="#24211C" stroke-width="1.345" stroke-linecap="round" stroke-linejoin="round" stroke-miterlimit="22.926" points="
		1.34,471.77 1.34,400.2 55.1,400.2 55.1,435.26 108.85,435.26 108.85,471.77 	"/>
	
		<polygon fill="none" stroke="#24211C" stroke-width="1.345" stroke-linecap="round" stroke-linejoin="round" stroke-miterlimit="22.926" points="
		55.1,435.26 55.1,400.2 99.76,400.2 108.85,435.26 	"/>
	
		<path fill="none" stroke="#24211C" stroke-width="1.269" stroke-linecap="round" stroke-linejoin="round" stroke-miterlimit="22.926" d="
		M1.34,330.9V1.52H871.5c0,120.37,0.01,239.93,0.01,360.3H736.09v-31.1L1.34,330.9z"/>
	
		<rect x="149.7" y="394.37" fill="none" stroke="#24211C" stroke-width="1.34" stroke-linecap="round" stroke-linejoin="round" stroke-miterlimit="22.926" width="23.14" height="22.45"/>
	<polygon fill="none" stroke="#24211C" stroke-width="1.179" stroke-miterlimit="22.926" points="162.76,361.43 172.83,361.43 
		172.83,394.36 149.7,394.36 149.7,374.7 	"/>
	
		<polygon fill="none" stroke="#24211C" stroke-width="1.269" stroke-linecap="round" stroke-linejoin="round" stroke-miterlimit="22.926" points="
		43.81,670.1 53.77,679.55 44.08,689.34 34.12,679.88 	"/>
	
		<rect x="736.09" y="361.82" fill="none" stroke="#24211C" stroke-width="1.345" stroke-linecap="round" stroke-linejoin="round" stroke-miterlimit="22.926" width="32.89" height="22.86"/>
	<path fill-rule="evenodd" clip-rule="evenodd" fill="#FFFFFF" d="M285.6,193.61h-1.61h-1.93h-1.93l-1.93,0.3h-1.93h-1.93h-1.93
		h-1.93l-1.61,0.32h-1.93h-1.93h-1.93l-14.17,42.09h-58.94l17.39-52.38h-0.32h-0.97l-3.86,0.32l-19.33,0.93l19.65-19.01l-4.19-4.38
		l-12.24-11.84h18.68h1.93h1.94h2.25l1.93-0.32h6.12l23.83-71.09h42.84v48.34l-2.9,8.73l0.96-0.62l1.29-0.93l0.64-0.32V193.61z
		 M360.97,236.02V172.1l-3.22-9.37l0.64-1.55l0.97-2.49l0.64-2.82l0.65-2.8l0.32-0.93v-40.22v-0.32l-0.97-0.61l-1.29-0.94
		l-0.96-0.64l-0.97-0.61l-1.29-0.94l-0.97-0.3l-1.29-0.62l-1.29-0.62l-0.97-0.31l-1.29-0.63l-1.29-0.31l-1.29-0.32h-0.97l-2.58-0.61
		l-2.25-0.31l-2.26-0.63h-1.28l-8.05-24.64H285.6v48.34l0.65-1.87l2.25,6.86l-0.97,0.62l-1.29,0.94l-0.65,0.32v59.87h0.32l0.33,1.56
		l0.32,1.25l0.32,1.56l0.32,1.24l0.32,1.55l0.32,1.25l0.64,1.56l0.32,1.25l0.32,1.56l0.32,1.24l0.32,1.57l0.32,1.25l0.97,2.81
		l0.32,1.55l0.32,1.26l0.32,1.55l0.32,1.25l0.32,1.56l0.65,1.24l0.32,1.26l0.33,1.56l0.32,1.25l0.32,1.56l0.32,1.24l0.32,1.56
		l0.64,1.25l0.64,4.68H360.97z M586.42,235.39h-0.32l-0.97,0.31l-1.29,0.32l-0.96,0.31h-0.97l-0.96,0.31l-0.97,0.31h-1.3l-0.96,0.32
		h-0.97h-1.29l-0.96,0.3h-0.97h-2.58h-2.25h-2.26h-2.25l-1.93-0.3l-2.26-0.32l-1.92-0.31l-1.93-0.31l-1.94-0.63l-1.94-0.61
		l-1.93-0.94l-1.61-0.94l-1.93-0.93l-1.62-0.94l-1.61-1.25l-1.29-1.25l-1.6-1.24l-0.65-0.63v10.6h-49.6v-4.05l-0.64,0.63l-0.97,0.32
		l-0.96,0.31l-0.97,0.62l-0.96,0.31l-0.97,0.32l-0.96,0.31l-0.97,0.31l-0.96,0.31l-1.29,0.32l-0.96,0.3h-0.97l-0.97,0.31h-0.96
		l-0.97,0.32h-0.96l-1.29,0.31h-0.97h-0.96h-0.97h-1.61h-1.61l-1.61-0.31h-1.28l-1.61-0.32h-1.29l-1.29-0.31l-1.61-0.3l-1.29-0.32
		h-1.29l-0.97-0.62l-1.29-0.31l-1.29-0.32l-0.96-0.31l-1.29-0.62l-0.96-0.31l-1.29-0.64l-0.97-0.62l-0.97-0.32l-0.97-0.61
		l-0.97-0.63l-0.97-0.63l-0.64-0.62l-0.97-0.62l-0.97-0.62l-0.65-0.63h-0.32l-1.29,0.94l-1.29,0.62l-1.29,0.93l-1.29,0.63
		l-1.29,0.63l-1.29,0.61l-1.29,0.63l-1.29,0.63l-1.29,0.32l-1.29,0.62l-0.96,0.3l-1.29,0.63l-1.29,0.31l-1.29,0.31l-1.29,0.31
		l-1.29,0.32l-1.28,0.3l-1.29,0.31h-0.96l-1.29,0.32h-1.29h-1.29h-1.29h-0.97h-1.29h-1.28h-1.29l-0.96-0.32l-2.9-0.31l-2.58-0.62
		l-2.58-0.31l-2.58-0.94l-2.25-0.61l-2.26-0.94l-2.25-0.63l-1.93-1.24l-1.93-0.94l-1.93-1.25l-1.93-1.25l2.26,7.49l-21.26-0.31
		V172.1l3.22,9.66v-39.6l-0.32,0.31l-0.97,0.93l-0.65,0.62v0.31l-0.32,2.81l-0.65,3.12l-0.32,1.87v-40.22l0.97,0.62l0.64,0.94
		l0.97,0.93l0.97,1.25l0.64,0.93l0.64,0.94h1.29l1.29,0.31l1.29,0.31h1.61l1.29,0.3l1.29,0.32l1.61,0.31l1.29,0.31h1.29l1.61,0.31
		l1.29,0.31l1.61,0.31l31.56,6.55L400.26,130h13.53v60.18v1.55l0.32,0.94v0.62l0.32,0.62v0.63l0.32,0.31l0.32,0.31v0.31h0.32
		l0.32,0.32h0.32l0.64,0.31l0.65,0.31h0.97h0.97l0.96,0.31l1.29-0.31h1.29h0.96l0.65-0.31l0.64-0.31l0.64-0.32h0.33l0.32-0.31v-0.31
		l0.32-0.31l0.32-0.31v-0.62l0.32-0.63v-0.62l0.33-0.93v-0.94V130h49.6v60.18v1.25l0.32,1.24v0.62l0.32,0.62v0.63l0.33,0.31
		l0.33,0.31v0.31h0.32h0.33l0.32,0.32h0.32l0.64,0.31h0.64h0.65h0.96h0.64l0.32-0.31h0.64l0.64-0.32l0.33-0.31l0.64-0.31l0.31-0.31
		l0.65-0.63l0.65-0.62l0.65-0.94l0.64-0.63l0.64-0.93l0.65-0.94l0.32-0.92V130h49.6v47.4l1.29-0.94l1.29-1.24l1.28-0.94l1.61-1.24
		l1.3-0.94h-3.88v-29.63l3.22-2.81l0.97-0.93l1.29-0.94l0.96-0.62l1.29-0.93l1.3-0.63l0.96-0.62l1.29-0.63l1.29-0.62l1.28-0.62
		l0.97-0.63l1.29-0.31l1.29-0.62l1.6-0.31l1.3-0.31l1.29-0.32l1.29-0.31l1.28-0.31h1.3l1.61-0.31l1.29-0.31h1.29h1.29l1.28-0.31
		h1.61h1.29l1.29-0.32h1.28h1.61h1.28h1.3h1.29h0.32v68.91h-0.97h-0.96l-0.97,0.32h-0.63l-0.65,0.31h-0.64l-0.33,0.3l-0.31,0.31
		l-0.33,0.32v0.31v0.63l-0.33,0.31v0.62v0.31h0.33v0.31l0.33,0.32h0.31h0.33l0.32,0.32h0.32l0.65,0.31h0.96h0.64h0.65l0.64-0.31
		h0.64V235.39z M638.92,237.57h49.6V198.9h13.85v38.66h49.6V130h-49.6v38.66h-13.85V130h-49.6v28.38v-0.31l-0.97-2.19l-0.96-2.18
		l-0.97-1.86l-0.97-1.87l-1.29-1.88l-1.29-1.86l-1.61-1.87l-1.29-1.56l-1.62-1.56l-1.92-1.56l-1.93-1.55l-1.93-1.26l-1.93-1.24
		l-1.93-0.94l-2.25-0.93l-2.26-0.94l-2.58-0.93l-2.25-0.62l-2.58-0.63l-2.58-0.62l-2.9-0.62l-2.58-0.31l-2.89-0.32h-3.22h-2.89
		h-2.91v68.91h0.33h1.29h0.64h0.96h0.64h0.64h0.64h0.65v0.63l-0.32,0.61l-0.65,0.62l-0.65,0.31l-0.64,0.63l-0.64,0.3l-0.65,0.63
		l-0.64,0.31l-0.33,0.32h-0.64l-0.65,0.32v33.04l0.65-0.3l0.96-0.32l0.96-0.31l0.97-0.32l0.96-0.32l0.64-0.31l0.65-0.31v4.36H638.92
		z"/>
	<path fill-rule="evenodd" clip-rule="evenodd" fill="#DC0D15" d="M271.76,145.9l14.49-42.71l9.02,27.12h0.32l2.9-1.56l2.9-1.25
		l0.96-0.61l0.33-0.94l1.29-3.43l1.28-3.12l1.61-2.81l1.93-2.49l2.58-2.5l2.58-1.87l2.9-1.87l2.9-1.24l3.54-0.94l3.54-0.62
		l3.87-0.32h0.32l-6.44-19.33h-32.53h-11.92h-32.21l-22.22,66.1h1.61h1.93h6.12h2.26h1.93l4.18-0.31h1.93h6.12h2.25h1.93h4.19h1.93
		h4.18l0.33-0.63l1.93-1.87l1.93-1.87L271.76,145.9z M199.61,229.47h44.12l12.56-37.11h-0.64h-1.93h-1.93l-1.94-0.32h-1.93h-1.61
		h-1.93h-1.93l-1.93-0.31h-1.61h-1.93l-1.93-0.3h-1.93l-10.95-0.63l6.44-8.42l1.29-1.56l-1.93,0.31h-2.58h-2.25l-2.58,0.31h-2.26
		h-2.57l-0.33,0.31L199.61,229.47z M371.92,226.97l-19.32-58l-0.64,1.25l-1.61,2.19l-1.61,2.18l-1.61,1.87l-1.61,2.18l-1.93,1.88
		l-1.93,1.87l-2.25,1.56l-2.26,1.56l-2.25,1.55l-2.26,1.57l-2.57,1.56l-2.58,1.25l-2.58,1.24l-2.58,1.24l-2.9,0.94l-2.26,0.94
		l11.27,33.67h43.48V226.97z M371.92,136.85v64.86c-0.65-3.42-0.65-7.17-0.65-11.22v-53.64H371.92z M371.92,201.71v-64.86h35.1
		v53.64c0,9.04,4.83,12.78,13.2,12.78c9.99,0,14.17-4.98,14.17-12.78v-53.64h35.75v53.64c0,8.73,4.84,12.17,11.6,12.48
		c7.72,0,12.23-5.31,15.78-12.48v-53.64h35.75v93.85h-35.75v-9.35c-9.02,6.55-17.71,10.6-26.73,10.29
		c-15.78,0-23.51-4.99-29.95-11.85c-12.89,9.36-24.48,12.79-34.79,11.54C383.51,228.23,374.5,217.31,371.92,201.71 M371.92,229.47
		v-2.5l0.96,2.5H371.92z M586.42,171.78v19.02c-7.73,0.31-12.56,3.11-12.88,9.36c-0.64,5.3,3.22,8.73,9.98,9.04h2.9v19.03
		c-4.19,1.55-8.69,2.18-13.52,2.48c-22.55,1.57-35.43-9.04-33.82-32.11c0.65-13.72,8.05-26.18,38.33-27.13
		C580.3,171.47,583.2,171.78,586.42,171.78 M586.42,135.3v23.39c-2.9-0.32-6.12,0-9.66,0c-11.92,0.92-20.3,2.49-26.73,6.85v-19.95
		C558.73,136.54,572.26,135.61,586.42,135.3 M586.42,228.23c4.83-1.56,9.02-3.75,12.89-6.56v9.04h35.75v-58.3
		c-2.58-23.71-17.07-37.73-48.63-37.11v23.39c9.67,0.92,13.85,4.99,12.89,13.72c-4.51,0-8.7-0.31-12.89-0.63v19.02h1.94
		c3.54,0.31,7.09,0,10.95,0v9.97c-3.54,4.06-7.4,7.8-12.89,8.43V228.23z M646.01,136.85h35.75v38.36h27.7v-38.36h35.75v93.85h-35.75
		v-38.35h-27.7v38.35h-35.75V136.85z"/>
	<polygon fill-rule="evenodd" clip-rule="evenodd" fill="#006531" points="309.76,190.49 322.32,231.02 335.2,231.02 320.39,186.44 
			"/>
	<path fill-rule="evenodd" clip-rule="evenodd" fill="#DC0D15" d="M363.55,129.38c-1.61,5.3-4.51,8.74-8.05,11.54
		c-1.93,30.23-20.94,48.02-55.72,54.25c-1.93-4.68-3.87-9.36-5.8-14.35c-16.11-0.92-31.89-1.56-47.67-2.49
		c7.73-5.92,15.46-11.85,23.19-17.78c14.82-9.35,29.63-18.71,44.45-28.06c5.8-10.91,11.91-21.82,25.12-21.82
		C351.31,110.67,360,116.91,363.55,129.38"/>
	<path fill-rule="evenodd" clip-rule="evenodd" fill="#006531" d="M340.68,134.06c4.19,0,7.41-3.44,7.41-7.48
		c0-3.75-3.22-7.18-7.41-7.18c-4.19,0-7.73,3.43-7.73,7.18C332.95,130.62,336.49,134.06,340.68,134.06"/>
	<path fill-rule="evenodd" clip-rule="evenodd" fill="#FFFFFF" d="M342.29,128.75c1.93,0,3.54-1.55,3.54-3.44
		c0-1.86-1.61-3.42-3.54-3.42c-1.94,0-3.55,1.56-3.55,3.42C338.75,127.2,340.36,128.75,342.29,128.75"/>
	<path fill-rule="evenodd" clip-rule="evenodd" fill="#006531" d="M382.55,127.2c-7.73-1.57-14.82-2.81-21.9-3.75
		c-0.97,2.5-0.97,5.3,0,8.42C368.7,130.31,375.79,128.75,382.55,127.2"/>
	<path fill-rule="evenodd" clip-rule="evenodd" fill="#006531" d="M346.48,111.6c-23.83-6.23-36.07,1.57-39.61,18.71
		c-16.1,7.17-29.31,15.9-38.65,25.56c-21.9,0.32-43.81,0.63-65.38,0.63c3.22,3.11,6.44,6.55,9.66,9.68
		c-3.86,3.74-7.73,7.48-11.92,11.22c13.21-0.62,26.41-1.25,39.62-1.87c-2.9,3.75-5.8,7.17-8.37,10.92c19.32,1.56,39.29,1.24,59.26,0
		c3.86,14.96,8.05,29.94,11.92,44.9h11.59c-4.19-16.53-8.37-32.74-12.56-48.95c0-2.48-0.32-4.99-0.32-7.48
		c-10.31,0-20.61,0.31-31.24,0.31c-8.05-1.88-6.44-4.68-3.22-7.49c16.1-14.04,32.53-26.81,52.18-31.8
		C319.1,116.59,330.7,111.6,346.48,111.6"/>
	
		<rect x="107.45" y="752.33" fill="none" stroke="#24211C" stroke-width="1.345" stroke-linecap="round" stroke-linejoin="round" stroke-miterlimit="22.926" width="95.96" height="39.1"/>
	
		<polygon fill="none" stroke="#24211C" stroke-width="1.348" stroke-linecap="round" stroke-linejoin="round" stroke-miterlimit="22.926" points="
		149.7,416.82 172.83,416.82 172.83,447.95 168.75,447.95 149.7,428.6 	"/>
	
		<polygon fill="none" stroke="#24211C" stroke-width="1.34" stroke-linecap="round" stroke-linejoin="round" stroke-miterlimit="22.926" points="
		55.1,400.2 55.21,364.55 90.61,364.55 99.76,400.2 	"/>
	
		<rect x="468.99" y="478.93" fill="none" stroke="#24211C" stroke-width="1.269" stroke-linecap="round" stroke-linejoin="round" stroke-miterlimit="22.926" width="35.27" height="18.69"/>
	
		<polygon fill="none" stroke="#24211C" stroke-width="1.34" stroke-linecap="round" stroke-linejoin="round" stroke-miterlimit="22.926" points="
		675.8,361.43 661.47,361.43 661.47,394.36 688.87,394.36 688.87,374.7 	"/>
	
		<rect x="406.67" y="619.14" fill="none" stroke="#24211C" stroke-width="1.269" stroke-linecap="round" stroke-linejoin="round" stroke-miterlimit="22.926" width="110.05" height="172.3"/>
	<rect x="375.7" y="394.37" fill="none" stroke="#24211C" stroke-miterlimit="22.926" width="19.45" height="34.75"/>
	<path fill="none" stroke="#24211C" stroke-width="1.056" stroke-miterlimit="22.926" d="M154.39,497.07
		c19.4,0,18.45,0.23,18.45,0.23v-17.67L154.39,497.07z"/>
	
		<rect x="602.38" y="361.44" fill="none" stroke="#24211C" stroke-width="1.333" stroke-linecap="round" stroke-linejoin="round" stroke-miterlimit="22.926" width="21.01" height="32.94"/>
	
		<rect x="607.75" y="619.14" fill="none" stroke="#24211C" stroke-width="1.34" stroke-linecap="round" stroke-linejoin="round" stroke-miterlimit="22.926" width="33.4" height="70.98"/>
	
		<rect x="504.26" y="526.55" fill="none" stroke="#24211C" stroke-width="1.264" stroke-linecap="round" stroke-linejoin="round" stroke-miterlimit="22.926" width="32.59" height="44.85"/>
	
		<rect x="149.7" y="380.98" fill="none" stroke="#24211C" stroke-width="1.117" stroke-miterlimit="22.926" width="23.14" height="13.4"/>
	
		<polygon fill="none" stroke="#24211C" stroke-width="1.34" stroke-linecap="round" stroke-linejoin="round" stroke-miterlimit="22.926" points="
		415.17,369.64 415.17,394.37 433.75,394.37 433.75,361.43 406.66,361.43 406.66,369.64 	"/>
	<polygon fill="none" stroke="#24211C" stroke-width="1.264" stroke-miterlimit="22.926" points="39.49,621.08 39.49,542.07 
		108.85,542.07 108.85,621.08 39.6,621.08 	"/>
	
		<rect x="736.09" y="439.55" fill="none" stroke="#24211C" stroke-width="1.345" stroke-linecap="round" stroke-linejoin="round" stroke-miterlimit="22.926" width="51.69" height="23.82"/>
	<rect x="289.77" y="619.37" fill-rule="evenodd" clip-rule="evenodd" fill="#FFFFFF" width="0" height="70.28"/>
	
		<rect x="289.77" y="619.37" fill="none" stroke="#24211C" stroke-width="1.27" stroke-linecap="round" stroke-linejoin="round" stroke-miterlimit="22.926" width="0" height="70.28"/>
	<g>
		<path fill="#24211C" d="M446.2,575.27c-6.1,0-11.06-4.96-11.06-11.06c0-6.1,4.96-11.06,11.06-11.06c6.1,0,11.06,4.96,11.06,11.06
			C457.27,570.31,452.3,575.27,446.2,575.27 M446.2,554.22c-5.51,0-9.99,4.48-9.99,9.99c0,5.51,4.48,9.99,9.99,9.99
			c5.51,0,9.99-4.48,9.99-9.99C456.19,558.7,451.71,554.22,446.2,554.22"/>
		<path fill="#24211C" d="M446.2,571.15c-0.73,0-1.38-0.38-1.66-0.96c-0.21-0.42-0.22-0.77-0.22-1.4v-4.97
			c0-0.63,0.01-0.98,0.22-1.41c0.28-0.58,0.94-0.95,1.66-0.95c0.73,0,1.38,0.38,1.66,0.96c0.21,0.42,0.22,0.77,0.22,1.4v4.97
			c0,0.63-0.01,0.98-0.22,1.4C447.58,570.78,446.93,571.15,446.2,571.15 M446.2,562.55c-0.36,0-0.61,0.18-0.7,0.35
			c-0.09,0.19-0.11,0.32-0.11,0.93v4.97c0,0.6,0.02,0.74,0.11,0.92c0.09,0.18,0.34,0.36,0.7,0.36c0.36,0,0.61-0.18,0.7-0.35
			c0.09-0.19,0.11-0.32,0.11-0.93v-4.97c0-0.6-0.02-0.74-0.11-0.92C446.81,562.72,446.56,562.55,446.2,562.55 M446.2,561.12
			c-1.12,0-2.03-0.91-2.03-2.03c0-1.12,0.91-2.03,2.03-2.03c1.12,0,2.03,0.91,2.03,2.03C448.23,560.21,447.32,561.12,446.2,561.12
			 M446.2,558.13c-0.53,0-0.95,0.43-0.95,0.95c0,0.53,0.43,0.95,0.95,0.95c0.53,0,0.95-0.43,0.95-0.95
			C447.15,558.56,446.73,558.13,446.2,558.13"/>
	</g>
	<g>
		<path fill="#24211C" d="M138.93,360.81h-22.1c-0.7,0-1.31-0.66-1.31-1.41c0-0.71,0.56-1.51,1.31-1.51h3.31v-9.31
			c-2.29-0.61-3.92-2.69-3.92-5.1c0-2.91,2.37-5.29,5.29-5.29c2.91,0,5.29,2.37,5.29,5.29c0,2.43-1.71,4.56-4.04,5.13v9.28h2.02
			c-0.01-0.08-0.01-0.15-0.01-0.23v-0.56c-0.94-0.48-1.54-1.46-1.54-2.52v-1.54c0-1.07,0.61-2.04,1.54-2.52
			c0.12-2.49,2.11-4.47,4.54-4.47h4.64c2.4,0,4.37,1.93,4.54,4.38c1.04,0.44,1.74,1.47,1.74,2.62v1.54c0,1.07-0.61,2.04-1.54,2.52
			v0.56c0,0.08,0,0.15-0.01,0.23h0.24c0.75,0,1.31,0.8,1.31,1.51C140.24,360.15,139.63,360.81,138.93,360.81 M116.84,358.96
			c-0.07,0.02-0.23,0.24-0.23,0.44c0,0.17,0.15,0.33,0.23,0.33h22.1c0.09,0,0.23-0.17,0.23-0.33c0-0.19-0.16-0.41-0.24-0.44h-0.91
			c-0.18,0-0.34-0.09-0.44-0.23c-0.1-0.14-0.13-0.33-0.07-0.49c0.07-0.21,0.11-0.4,0.11-0.59v-0.91c0-0.23,0.14-0.43,0.36-0.51
			c0.71-0.25,1.18-0.92,1.18-1.66v-1.54c0-0.8-0.55-1.5-1.33-1.71c-0.24-0.06-0.4-0.28-0.4-0.52v-0.05c0-2.01-1.56-3.64-3.47-3.64
			h-4.64c-1.92,0-3.47,1.63-3.47,3.64v0.11c0,0.23-0.14,0.43-0.36,0.51c-0.71,0.25-1.18,0.92-1.18,1.66v1.54
			c0,0.74,0.48,1.41,1.18,1.66c0.21,0.08,0.36,0.28,0.36,0.51v0.91c0,0.19,0.04,0.38,0.11,0.59c0.06,0.16,0.03,0.35-0.07,0.49
			c-0.1,0.14-0.26,0.23-0.44,0.23h-3.22c-0.3,0-0.54-0.24-0.54-0.54v-10.26c0-0.27,0.19-0.49,0.46-0.53
			c2.04-0.31,3.58-2.09,3.58-4.16c0-2.32-1.89-4.21-4.21-4.21c-2.32,0-4.21,1.89-4.21,4.21c0,2.04,1.46,3.78,3.47,4.14
			c0.26,0.05,0.44,0.27,0.44,0.53v10.28c0,0.3-0.24,0.54-0.54,0.54H116.84z M138.93,358.96L138.93,358.96L138.93,358.96z
			 M135.81,351.01h-8.34c-0.15,0-0.29-0.06-0.39-0.16c-0.1-0.1-0.16-0.25-0.15-0.39c0.05-1.55,1.25-2.77,2.72-2.77h3.98
			c1.47,0,2.67,1.21,2.72,2.77c0.01,0.15-0.05,0.29-0.15,0.39C136.1,350.95,135.96,351.01,135.81,351.01 M128.11,349.93h7.06
			c-0.24-0.68-0.84-1.17-1.54-1.17h-3.98C128.96,348.76,128.35,349.25,128.11,349.93"/>
		<path fill="#24211C" d="M123.54,341.47c-0.29-0.28-0.66-0.42-1.13-0.42h-2.38v4.79h1.12v-1.72h1.26c0.46,0,0.83-0.14,1.13-0.43
			c0.29-0.29,0.43-0.66,0.43-1.11C123.97,342.12,123.83,341.75,123.54,341.47 M122.29,343.19h-1.14v-1.23h1.14
			c0.34,0,0.56,0.22,0.56,0.59C122.85,342.94,122.62,343.19,122.29,343.19"/>
		<path fill="#24211C" d="M128.19,355.29h-2.75v-2.75h0.28c1.66,0,2.47,0.78,2.47,2.4V355.29z"/>
		<path fill="#24211C" d="M135.38,355.01c0-1.66,0.78-2.47,2.4-2.47h0.35v2.75h-2.75V355.01z"/>
		<path fill="#24211C" d="M129.8,358.42c0.09-0.24,0.14-0.5,0.14-0.77v-0.77h3.6v0.77c0,0.27,0.06,0.53,0.14,0.77H129.8z"/>
	</g>
	<g>
		<path fill="#24211C" d="M724.67,360.81h-22.1c-0.7,0-1.31-0.66-1.31-1.41c0-0.71,0.56-1.51,1.31-1.51h3.31v-9.31
			c-2.29-0.61-3.92-2.69-3.92-5.1c0-2.91,2.37-5.29,5.29-5.29c2.91,0,5.29,2.37,5.29,5.29c0,2.43-1.71,4.56-4.04,5.13v9.28h2.02
			c-0.01-0.08-0.01-0.15-0.01-0.23v-0.56c-0.94-0.48-1.54-1.46-1.54-2.52v-1.54c0-1.07,0.61-2.04,1.54-2.52
			c0.12-2.49,2.11-4.47,4.54-4.47h4.64c2.4,0,4.37,1.93,4.54,4.38c1.04,0.44,1.74,1.47,1.74,2.62v1.54c0,1.07-0.61,2.04-1.54,2.52
			v0.56c0,0.08,0,0.15-0.01,0.23h0.24c0.75,0,1.31,0.8,1.31,1.51C725.98,360.15,725.37,360.81,724.67,360.81 M702.58,358.96
			c-0.07,0.02-0.23,0.24-0.23,0.44c0,0.17,0.15,0.33,0.23,0.33h22.1c0.09,0,0.23-0.17,0.23-0.33c0-0.19-0.16-0.41-0.24-0.44h-0.91
			c-0.18,0-0.34-0.09-0.44-0.23c-0.1-0.14-0.13-0.33-0.07-0.49c0.07-0.21,0.11-0.4,0.11-0.59v-0.91c0-0.23,0.14-0.43,0.36-0.51
			c0.71-0.25,1.18-0.92,1.18-1.66v-1.54c0-0.8-0.55-1.5-1.33-1.71c-0.24-0.06-0.4-0.28-0.4-0.52v-0.05c0-2.01-1.56-3.64-3.47-3.64
			h-4.64c-1.92,0-3.47,1.63-3.47,3.64v0.11c0,0.23-0.14,0.43-0.36,0.51c-0.71,0.25-1.18,0.92-1.18,1.66v1.54
			c0,0.74,0.48,1.41,1.18,1.66c0.21,0.08,0.36,0.28,0.36,0.51v0.91c0,0.19,0.04,0.38,0.11,0.59c0.06,0.16,0.03,0.35-0.07,0.49
			c-0.1,0.14-0.26,0.23-0.44,0.23h-3.22c-0.3,0-0.54-0.24-0.54-0.54v-10.26c0-0.27,0.19-0.49,0.46-0.53
			c2.04-0.31,3.58-2.09,3.58-4.16c0-2.32-1.89-4.21-4.21-4.21c-2.32,0-4.21,1.89-4.21,4.21c0,2.04,1.46,3.78,3.47,4.14
			c0.26,0.05,0.44,0.27,0.44,0.53v10.28c0,0.3-0.24,0.54-0.54,0.54H702.58z M724.67,358.96L724.67,358.96L724.67,358.96z
			 M721.55,351.01h-8.34c-0.15,0-0.29-0.06-0.39-0.16c-0.1-0.1-0.16-0.25-0.15-0.39c0.05-1.55,1.24-2.77,2.72-2.77h3.98
			c1.47,0,2.67,1.21,2.72,2.77c0.01,0.15-0.05,0.29-0.15,0.39C721.84,350.95,721.7,351.01,721.55,351.01 M713.85,349.93h7.06
			c-0.24-0.68-0.84-1.17-1.54-1.17h-3.98C714.7,348.76,714.09,349.25,713.85,349.93"/>
		<path fill="#24211C" d="M709.28,341.47c-0.29-0.28-0.66-0.42-1.13-0.42h-2.38v4.79h1.12v-1.72h1.26c0.46,0,0.83-0.14,1.13-0.43
			c0.29-0.29,0.43-0.66,0.43-1.11C709.71,342.12,709.57,341.75,709.28,341.47 M708.03,343.19h-1.14v-1.23h1.14
			c0.34,0,0.56,0.22,0.56,0.59C708.59,342.94,708.36,343.19,708.03,343.19"/>
		<path fill="#24211C" d="M713.93,355.29h-2.75v-2.75h0.28c1.66,0,2.47,0.78,2.47,2.4V355.29z"/>
		<path fill="#24211C" d="M721.12,355.01c0-1.66,0.78-2.47,2.4-2.47h0.35v2.75h-2.75V355.01z"/>
		<path fill="#24211C" d="M715.54,358.42c0.09-0.24,0.14-0.5,0.14-0.77v-0.77h3.6v0.77c0,0.27,0.06,0.53,0.14,0.77H715.54z"/>
	</g>
	<g>
		<g>
			<path fill="#24211C" d="M14.49,570.49c-0.36,0-0.85-0.21-1.17-1.2l-2.69-8.44H8.95c-0.3,0-0.54-0.24-0.54-0.54v-1.78
				c0-0.03,0-0.05,0.01-0.08c0.4-2.8,2.16-4.22,5.25-4.22h1.56c3.54,0,5.33,1.86,5.33,5.54l0,0.54c0,0.3-0.24,0.54-0.54,0.54h-1.67
				l-2.69,8.44C15.34,570.29,14.84,570.49,14.49,570.49 M9.49,559.78h1.53c0.23,0,0.44,0.15,0.51,0.37l2.81,8.81
				c0.05,0.15,0.1,0.26,0.14,0.34c0.04-0.07,0.09-0.18,0.14-0.34l2.81-8.81c0.07-0.22,0.28-0.37,0.51-0.37l1.53,0
				c0-3.08-1.31-4.46-4.25-4.46h-1.56c-2.52,0-3.84,1.03-4.17,3.26V559.78z"/>
			<path fill="#24211C" d="M27.01,553.47c-1.4,0-2.55-1.14-2.55-2.55s1.14-2.55,2.55-2.55c1.4,0,2.55,1.14,2.55,2.55
				S28.42,553.47,27.01,553.47 M27.01,549.46c-0.81,0-1.47,0.66-1.47,1.47s0.66,1.47,1.47,1.47c0.81,0,1.47-0.66,1.47-1.47
				S27.82,549.46,27.01,549.46"/>
			<path fill="#24211C" d="M14.49,553.47c-1.4,0-2.55-1.14-2.55-2.55s1.14-2.55,2.55-2.55c1.4,0,2.55,1.14,2.55,2.55
				S15.89,553.47,14.49,553.47 M14.49,549.46c-0.81,0-1.47,0.66-1.47,1.47s0.66,1.47,1.47,1.47c0.81,0,1.47-0.66,1.47-1.47
				S15.3,549.46,14.49,549.46"/>
			<path fill="#24211C" d="M27.01,570.49c-0.28,0-0.81-0.15-1.12-1.14l-1.53-4.8h-2.52c-0.19,0-0.36-0.1-0.46-0.26
				c-0.1-0.16-0.11-0.36-0.02-0.52l4.22-8.47c0.34-0.67,0.86-1.06,1.43-1.06c0.57,0,1.09,0.39,1.43,1.06l4.22,8.47
				c0.08,0.17,0.07,0.37-0.02,0.52c-0.1,0.16-0.27,0.26-0.46,0.26h-2.52l-1.53,4.8C27.82,570.35,27.3,570.49,27.01,570.49
				 M22.71,563.48h2.04c0.23,0,0.44,0.15,0.51,0.37l1.65,5.18c0.03,0.1,0.07,0.18,0.1,0.25c0.03-0.06,0.06-0.14,0.1-0.25l1.65-5.18
				c0.07-0.22,0.28-0.37,0.51-0.37h2.04l-3.83-7.69c-0.17-0.34-0.36-0.46-0.47-0.46c-0.11,0-0.3,0.12-0.47,0.46L22.71,563.48z"/>
		</g>
		<g>
			<path fill="#24211C" d="M18.95,583.24c-1.45,0-2.62-1.18-2.62-2.62c0-1.45,1.18-2.62,2.62-2.62c1.45,0,2.62,1.18,2.62,2.62
				C21.58,582.06,20.4,583.24,18.95,583.24 M18.95,579.07c-0.85,0-1.55,0.69-1.55,1.55c0,0.85,0.69,1.55,1.55,1.55
				c0.85,0,1.55-0.69,1.55-1.55C20.5,579.76,19.81,579.07,18.95,579.07"/>
			<path fill="#24211C" d="M29.11,598.62l-1.83-8.79c-0.04-0.21-0.21-0.38-0.43-0.42l-4.48-0.86c-0.95-2.94-1.03-3.12-1.06-3.19
				c-0.23-0.51-0.7-0.92-1.29-1.13c-0.26-0.11-0.53-0.17-0.79-0.15c-0.01,0-0.02,0-0.02,0c-0.94-0.03-1.79,0.43-2.17,1.16
				c-0.28,0.52-0.31,0.92-0.34,1.87l-0.03,1.15c-2.66,0.6-4.65,2.97-4.65,5.8c0,3.28,2.67,5.95,5.95,5.95
				c3.25,0,5.89-2.62,5.95-5.85l2.3,5.31c0.26,0.55,0.79,0.87,1.37,0.87c0.14,0,0.28-0.02,0.42-0.06c0.72-0.2,1.19-0.86,1.12-1.61
				C29.12,598.66,29.11,598.64,29.11,598.62 M17.97,598.94c-2.69,0-4.88-2.19-4.88-4.88c0-2.23,1.5-4.1,3.54-4.68l-0.04,1.58
				c-0.02,0.63,0.22,1.23,0.66,1.69c0.44,0.45,1.03,0.7,1.67,0.7h3.87c0.04,0.23,0.06,0.47,0.06,0.71
				C22.84,596.75,20.65,598.94,17.97,598.94 M27.71,599.25c-0.09,0.02-0.38,0.07-0.52-0.22l-2.78-6.43
				c-0.09-0.2-0.28-0.32-0.49-0.32h-5c-0.34,0-0.66-0.13-0.9-0.38c-0.24-0.24-0.36-0.57-0.35-0.91l0.1-3.85
				c0.02-0.89,0.05-1.1,0.21-1.39c0.19-0.36,0.64-0.59,1.13-0.59c0.01,0,0.03,0,0.04,0c0.01,0,0.04,0,0.05,0c0.01,0,0.02,0,0.04,0
				c0.02,0,0.04,0,0.06,0c0.1,0,0.2,0.03,0.31,0.07c0.01,0.01,0.03,0.01,0.04,0.02c0.32,0.11,0.57,0.31,0.68,0.56
				c0.03,0.08,0.21,0.56,1.11,3.37c0.06,0.19,0.22,0.33,0.41,0.36l4.44,0.85l1.75,8.4C28.06,599.13,27.8,599.23,27.71,599.25"/>
		</g>
	</g>
	<g>
		<g>
			<path fill="#24211C" d="M842.67,588.35c-0.36,0-0.85-0.21-1.17-1.2l-2.69-8.44h-1.67c-0.3,0-0.54-0.24-0.54-0.54v-1.78
				c0-0.03,0-0.05,0.01-0.08c0.4-2.8,2.16-4.22,5.25-4.22h1.56c3.54,0,5.33,1.86,5.33,5.54l0,0.54c0,0.3-0.24,0.54-0.54,0.54h-1.67
				l-2.69,8.44C843.52,588.14,843.03,588.35,842.67,588.35 M837.68,577.64h1.53c0.23,0,0.44,0.15,0.51,0.37l2.81,8.81
				c0.05,0.15,0.1,0.26,0.14,0.34c0.04-0.07,0.09-0.18,0.14-0.34l2.81-8.81c0.07-0.22,0.28-0.37,0.51-0.37l1.53,0
				c0-3.08-1.31-4.46-4.25-4.46h-1.56c-2.52,0-3.84,1.03-4.17,3.26V577.64z"/>
			<path fill="#24211C" d="M855.2,571.32c-1.4,0-2.55-1.14-2.55-2.55c0-1.4,1.14-2.55,2.55-2.55s2.55,1.14,2.55,2.55
				C857.75,570.18,856.6,571.32,855.2,571.32 M855.2,567.31c-0.81,0-1.47,0.66-1.47,1.47c0,0.81,0.66,1.47,1.47,1.47
				s1.47-0.66,1.47-1.47C856.67,567.97,856.01,567.31,855.2,567.31"/>
			<path fill="#24211C" d="M842.67,571.32c-1.4,0-2.55-1.14-2.55-2.55c0-1.4,1.14-2.55,2.55-2.55c1.4,0,2.55,1.14,2.55,2.55
				C845.22,570.18,844.08,571.32,842.67,571.32 M842.67,567.31c-0.81,0-1.47,0.66-1.47,1.47c0,0.81,0.66,1.47,1.47,1.47
				c0.81,0,1.47-0.66,1.47-1.47C844.14,567.97,843.48,567.31,842.67,567.31"/>
			<path fill="#24211C" d="M855.2,588.35c-0.28,0-0.81-0.15-1.12-1.14l-1.53-4.8h-2.52c-0.19,0-0.36-0.1-0.46-0.26
				c-0.1-0.16-0.11-0.36-0.02-0.52l4.22-8.47c0.34-0.67,0.86-1.06,1.43-1.06c0.57,0,1.09,0.39,1.43,1.06l4.22,8.47
				c0.08,0.17,0.07,0.37-0.02,0.52c-0.1,0.16-0.27,0.26-0.46,0.26h-2.52l-1.53,4.8C856.01,588.2,855.48,588.35,855.2,588.35
				 M850.9,581.33h2.04c0.23,0,0.44,0.15,0.51,0.37l1.65,5.18c0.03,0.1,0.07,0.18,0.1,0.25c0.03-0.06,0.06-0.14,0.1-0.25l1.65-5.18
				c0.07-0.22,0.28-0.37,0.51-0.37h2.04l-3.83-7.69c-0.17-0.34-0.36-0.46-0.47-0.46c-0.11,0-0.3,0.12-0.47,0.46L850.9,581.33z"/>
		</g>
		<g>
			<path fill="#24211C" d="M847.14,601.09c-1.45,0-2.62-1.18-2.62-2.62c0-1.45,1.18-2.62,2.62-2.62c1.45,0,2.62,1.18,2.62,2.62
				C849.76,599.91,848.59,601.09,847.14,601.09 M847.14,596.92c-0.85,0-1.55,0.69-1.55,1.55c0,0.85,0.69,1.55,1.55,1.55
				c0.85,0,1.55-0.69,1.55-1.55C848.69,597.62,847.99,596.92,847.14,596.92"/>
			<path fill="#24211C" d="M857.3,616.47l-1.83-8.79c-0.04-0.21-0.21-0.38-0.43-0.42l-4.48-0.86c-0.95-2.94-1.03-3.12-1.06-3.19
				c-0.23-0.51-0.7-0.92-1.29-1.13c-0.26-0.11-0.53-0.17-0.79-0.15c-0.01,0-0.02,0-0.02,0c-0.94-0.03-1.79,0.43-2.17,1.16
				c-0.28,0.52-0.31,0.92-0.34,1.87l-0.03,1.15c-2.66,0.6-4.65,2.97-4.65,5.8c0,3.28,2.67,5.95,5.95,5.95
				c3.25,0,5.89-2.62,5.95-5.85l2.3,5.31c0.26,0.55,0.79,0.87,1.37,0.87c0.14,0,0.28-0.02,0.42-0.06c0.72-0.2,1.19-0.86,1.12-1.61
				C857.3,616.51,857.3,616.49,857.3,616.47 M846.15,616.79c-2.69,0-4.88-2.19-4.88-4.88c0-2.23,1.5-4.1,3.54-4.68l-0.04,1.58
				c-0.02,0.63,0.22,1.23,0.66,1.69c0.44,0.45,1.03,0.7,1.67,0.7h3.87c0.04,0.23,0.06,0.47,0.06,0.71
				C851.03,614.6,848.84,616.79,846.15,616.79 M855.9,617.1c-0.09,0.02-0.38,0.07-0.52-0.22l-2.78-6.43
				c-0.09-0.2-0.28-0.32-0.49-0.32h-5c-0.34,0-0.66-0.13-0.9-0.38c-0.24-0.24-0.36-0.57-0.35-0.91l0.1-3.85
				c0.02-0.89,0.05-1.1,0.21-1.39c0.19-0.36,0.64-0.59,1.13-0.59c0.01,0,0.03,0,0.04,0c0.01,0,0.04,0,0.05,0c0.01,0,0.02,0,0.04,0
				c0.02,0,0.04,0,0.06,0c0.1,0,0.2,0.03,0.31,0.07c0.01,0.01,0.03,0.01,0.04,0.02c0.32,0.11,0.57,0.31,0.68,0.56
				c0.03,0.08,0.21,0.56,1.11,3.37c0.06,0.19,0.22,0.33,0.41,0.36l4.44,0.85l1.75,8.4C856.25,616.98,855.98,617.08,855.9,617.1"/>
		</g>
	</g>
	<g>
		<path fill="#24211C" d="M126.76,520.43c1.24,0,2.24-1.01,2.24-2.24c0-1.24-1.01-2.24-2.24-2.24c-1.24,0-2.24,1.01-2.24,2.24
			C124.51,519.43,125.52,520.43,126.76,520.43 M126.76,517.02c0.64,0,1.17,0.52,1.17,1.17s-0.52,1.17-1.17,1.17
			c-0.64,0-1.17-0.52-1.17-1.17S126.11,517.02,126.76,517.02"/>
		<path fill="#24211C" d="M138.7,520.93c-0.42-0.02-3.55-0.18-4.66,0.26c-1.14,0.45-3.36,2.77-3.59,3.01l-0.39,0.37
			c-0.53-1.8-0.67-2.27-0.73-2.4c-0.28-0.67-0.99-1.13-1.81-1.17c-0.81-0.04-1.57,0.34-1.92,0.97c-0.25,0.44-0.29,0.81-0.34,1.59
			l-0.31,5.83c0,0,0,0,0,0.01l-2.47,2.33h-2.21c-1.7,0-3.08,1.38-3.08,3.08c0,1.7,1.38,3.08,3.07,3.08c0.1,0,0.43,0.01,0.88,0.01
			c1.09,0,2.88-0.04,3.71-0.26c1.39-0.38,3.37-2.66,3.68-3.02l7.96-7.53h2.19c1.7,0,3.08-1.38,3.08-3.08
			C141.76,522.31,140.39,520.94,138.7,520.93 M126.33,523.62c0.04-0.73,0.07-0.89,0.2-1.12c0.15-0.27,0.53-0.45,0.93-0.42
			c0.4,0.02,0.75,0.23,0.88,0.52c0.06,0.14,0.34,1.08,0.84,2.8c0,0,0,0,0,0.01l-3.1,2.93L126.33,523.62z M138.68,526.01h-2.4
			c-0.14,0-0.27,0.05-0.37,0.15l-8.14,7.69c-0.01,0.01-0.03,0.03-0.04,0.04c-0.78,0.92-2.32,2.48-3.16,2.7
			c-0.87,0.24-3.39,0.24-4.3,0.22c-1.11,0-2.01-0.9-2.01-2.01c0-1.11,0.9-2.01,2.01-2.01h2.43c0.14,0,0.27-0.05,0.37-0.15l8.14-7.7
			c0.88-0.93,2.53-2.5,3.22-2.77c0.69-0.27,2.95-0.26,4.22-0.19c0.01,0,0.02,0,0.03,0c1.11,0,2.01,0.9,2.01,2.01
			S139.79,526.01,138.68,526.01"/>
	</g>
	<g>
		<path fill="#24211C" d="M710.64,520.43c1.24,0,2.24-1.01,2.24-2.24c0-1.24-1.01-2.24-2.24-2.24c-1.24,0-2.24,1.01-2.24,2.24
			C708.39,519.43,709.4,520.43,710.64,520.43 M710.64,517.02c0.64,0,1.17,0.52,1.17,1.17s-0.52,1.17-1.17,1.17s-1.17-0.52-1.17-1.17
			S709.99,517.02,710.64,517.02"/>
		<path fill="#24211C" d="M722.58,520.93c-0.42-0.02-3.55-0.18-4.66,0.26c-1.14,0.45-3.36,2.77-3.59,3.01l-0.39,0.37
			c-0.53-1.8-0.67-2.27-0.73-2.4c-0.28-0.67-0.99-1.13-1.81-1.17c-0.81-0.04-1.57,0.34-1.92,0.97c-0.25,0.44-0.29,0.81-0.34,1.59
			l-0.31,5.83c0,0,0,0,0,0.01l-2.47,2.33h-2.21c-1.7,0-3.08,1.38-3.08,3.08c0,1.7,1.38,3.08,3.07,3.08c0.1,0,0.43,0.01,0.88,0.01
			c1.09,0,2.88-0.04,3.71-0.26c1.39-0.38,3.37-2.66,3.68-3.02l7.96-7.53h2.19c1.7,0,3.08-1.38,3.08-3.08
			C725.64,522.31,724.27,520.94,722.58,520.93 M710.21,523.62c0.04-0.73,0.07-0.89,0.2-1.12c0.15-0.27,0.53-0.45,0.93-0.42
			c0.4,0.02,0.76,0.23,0.88,0.52c0.06,0.14,0.34,1.08,0.84,2.8c0,0,0,0,0,0.01l-3.1,2.93L710.21,523.62z M722.56,526.01h-2.4
			c-0.14,0-0.27,0.05-0.37,0.15l-8.14,7.69c-0.01,0.01-0.03,0.03-0.04,0.04c-0.78,0.92-2.32,2.48-3.16,2.7
			c-0.87,0.24-3.39,0.24-4.3,0.22c-1.11,0-2.01-0.9-2.01-2.01c0-1.11,0.9-2.01,2.01-2.01h2.43c0.14,0,0.27-0.05,0.37-0.15l8.14-7.7
			c0.88-0.93,2.53-2.5,3.22-2.77c0.69-0.27,2.95-0.26,4.22-0.19c0.01,0,0.02,0,0.03,0c1.11,0,2.01,0.9,2.01,2.01
			S723.67,526.01,722.56,526.01"/>
	</g>
	<g>
		<path fill="#24211C" d="M571.27,588.77c1.24,0,2.24-1.01,2.24-2.24c0-1.24-1.01-2.24-2.24-2.24c-1.24,0-2.24,1.01-2.24,2.24
			C569.03,587.77,570.03,588.77,571.27,588.77 M571.27,585.36c0.64,0,1.17,0.52,1.17,1.17s-0.52,1.17-1.17,1.17
			s-1.17-0.52-1.17-1.17S570.63,585.36,571.27,585.36"/>
		<path fill="#24211C" d="M583.21,589.27c-0.42-0.02-3.55-0.18-4.66,0.26c-1.14,0.45-3.36,2.77-3.59,3.01l-0.39,0.37
			c-0.53-1.8-0.67-2.27-0.73-2.4c-0.28-0.67-0.99-1.13-1.81-1.17c-0.81-0.04-1.57,0.34-1.92,0.97c-0.25,0.44-0.29,0.81-0.34,1.59
			l-0.31,5.83c0,0,0,0,0,0.01l-2.47,2.33h-2.21c-1.7,0-3.08,1.38-3.08,3.08c0,1.7,1.38,3.08,3.07,3.08c0.1,0,0.43,0.01,0.88,0.01
			c1.09,0,2.88-0.04,3.71-0.26c1.39-0.38,3.37-2.66,3.68-3.02l7.96-7.53h2.19c1.7,0,3.08-1.38,3.08-3.08
			C586.28,590.66,584.9,589.28,583.21,589.27 M570.85,591.96c0.04-0.73,0.07-0.89,0.2-1.12c0.15-0.27,0.53-0.45,0.93-0.42
			c0.4,0.02,0.76,0.23,0.88,0.52c0.06,0.14,0.34,1.08,0.84,2.8c0,0,0,0,0,0.01l-3.1,2.93L570.85,591.96z M583.2,594.36h-2.4
			c-0.14,0-0.27,0.05-0.37,0.15l-8.14,7.69c-0.01,0.01-0.03,0.03-0.04,0.04c-0.78,0.92-2.32,2.48-3.16,2.7
			c-0.87,0.24-3.39,0.24-4.3,0.22c-1.11,0-2.01-0.9-2.01-2.01c0-1.11,0.9-2.01,2.01-2.01h2.43c0.14,0,0.27-0.05,0.37-0.15l8.14-7.7
			c0.88-0.93,2.53-2.5,3.22-2.77c0.69-0.27,2.95-0.26,4.22-0.19c0.01,0,0.02,0,0.03,0c1.11,0,2.01,0.9,2.01,2.01
			S584.3,594.36,583.2,594.36"/>
	</g>
	<g>
		<path fill="#24211C" d="M233.22,588.77c1.24,0,2.24-1.01,2.24-2.24c0-1.24-1.01-2.24-2.24-2.24s-2.24,1.01-2.24,2.24
			C230.98,587.77,231.98,588.77,233.22,588.77 M233.22,585.36c0.64,0,1.17,0.52,1.17,1.17s-0.52,1.17-1.17,1.17
			s-1.17-0.52-1.17-1.17S232.58,585.36,233.22,585.36"/>
		<path fill="#24211C" d="M245.16,589.27c-0.42-0.02-3.55-0.18-4.66,0.26c-1.14,0.45-3.36,2.77-3.59,3.01l-0.39,0.37
			c-0.53-1.8-0.67-2.27-0.73-2.4c-0.28-0.67-0.99-1.13-1.81-1.17c-0.81-0.04-1.57,0.34-1.92,0.97c-0.25,0.44-0.29,0.81-0.34,1.59
			l-0.31,5.83c0,0,0,0,0,0.01l-2.47,2.33h-2.21c-1.7,0-3.08,1.38-3.08,3.08c0,1.7,1.38,3.08,3.07,3.08c0.1,0,0.43,0.01,0.88,0.01
			c1.09,0,2.88-0.04,3.71-0.26c1.39-0.38,3.37-2.66,3.68-3.02l7.96-7.53h2.19c1.7,0,3.08-1.38,3.08-3.08
			C248.23,590.66,246.85,589.28,245.16,589.27 M232.8,591.96c0.04-0.73,0.07-0.89,0.2-1.12c0.15-0.27,0.53-0.45,0.93-0.42
			c0.4,0.02,0.75,0.23,0.88,0.52c0.06,0.14,0.34,1.08,0.84,2.8c0,0,0,0,0,0.01l-3.1,2.93L232.8,591.96z M245.14,594.36h-2.4
			c-0.14,0-0.27,0.05-0.37,0.15l-8.14,7.69c-0.01,0.01-0.03,0.03-0.04,0.04c-0.78,0.92-2.32,2.48-3.16,2.7
			c-0.87,0.24-3.39,0.24-4.3,0.22c-1.11,0-2.01-0.9-2.01-2.01c0-1.11,0.9-2.01,2.01-2.01h2.43c0.14,0,0.27-0.05,0.37-0.15l8.14-7.7
			c0.88-0.93,2.53-2.5,3.22-2.77c0.69-0.27,2.95-0.26,4.22-0.19c0.01,0,0.02,0,0.03,0c1.11,0,2.01,0.9,2.01,2.01
			S246.25,594.36,245.14,594.36"/>
	</g>
	<g>
		<g>
			<path fill="#24211C" d="M125.04,422.44c-1.55,0-2.82,1.26-2.82,2.82c0,1.55,1.26,2.82,2.82,2.82c1.55,0,2.82-1.26,2.82-2.82
				C127.86,423.7,126.59,422.44,125.04,422.44 M125.04,427c-0.96,0-1.74-0.78-1.74-1.74c0-0.96,0.78-1.74,1.74-1.74
				c0.96,0,1.74,0.78,1.74,1.74C126.78,426.22,126,427,125.04,427"/>
			<path fill="#24211C" d="M133.09,422.44c-1.55,0-2.82,1.26-2.82,2.82c0,1.55,1.26,2.82,2.82,2.82c1.55,0,2.82-1.26,2.82-2.82
				C135.91,423.7,134.65,422.44,133.09,422.44 M133.09,427c-0.96,0-1.74-0.78-1.74-1.74c0-0.96,0.78-1.74,1.74-1.74
				c0.96,0,1.74,0.78,1.74,1.74C134.83,426.22,134.05,427,133.09,427"/>
			<path fill="#24211C" d="M136.37,419.53h-13.46l-0.01-0.03c-0.01-0.06-0.02-0.11-0.03-0.17l-0.28-1.73
				c2.96-0.08,8.76-0.77,10.74-1.38c4.58-1.41,4.64-6.96,4.64-7.19c0-0.3-0.24-0.54-0.54-0.54h-16.37l-0.33-1.65
				c-0.03-0.16-0.13-0.29-0.27-0.36c-0.01,0-0.01-0.01-0.02-0.01c-0.02-0.01-0.03-0.02-0.05-0.02c-0.07-0.03-0.16-0.05-0.24-0.05
				l-2.95,0.15c-0.3,0.02-0.53,0.27-0.51,0.57c0.02,0.29,0.25,0.51,0.54,0.51c0.01,0,0.02,0,0.03,0l2.5-0.13l0.32,1.6
				c0,0.01,0,0.02,0,0.02l0.41,2.33l1.39,8.46c0.01,0.06,0.03,0.12,0.06,0.17c0.01,0.29,0.25,0.52,0.54,0.52h13.89
				c0.3,0,0.54-0.24,0.54-0.54C136.91,419.77,136.67,419.53,136.37,419.53 M121.55,411.27l-0.3-1.71h15.6
				c-0.14,1.32-0.78,4.68-3.84,5.63c-1.91,0.59-7.8,1.27-10.6,1.33L121.55,411.27z"/>
		</g>
		
			<rect x="123.92" y="432.08" fill-rule="evenodd" clip-rule="evenodd" fill="#FFFFFF" stroke="#000000" stroke-miterlimit="10" width="10.87" height="33.41"/>
		
			<rect x="123.92" y="461.32" fill-rule="evenodd" clip-rule="evenodd" fill="#FFFFFF" stroke="#000000" stroke-miterlimit="10" width="10.87" height="4.18"/>
		
			<rect x="123.92" y="457.14" fill-rule="evenodd" clip-rule="evenodd" fill="#FFFFFF" stroke="#000000" stroke-miterlimit="10" width="10.87" height="4.18"/>
		
			<rect x="123.92" y="452.96" fill-rule="evenodd" clip-rule="evenodd" fill="#FFFFFF" stroke="#000000" stroke-miterlimit="10" width="10.87" height="4.18"/>
		
			<rect x="123.92" y="448.78" fill-rule="evenodd" clip-rule="evenodd" fill="#FFFFFF" stroke="#000000" stroke-miterlimit="10" width="10.87" height="4.18"/>
		
			<rect x="123.92" y="444.6" fill-rule="evenodd" clip-rule="evenodd" fill="#FFFFFF" stroke="#000000" stroke-miterlimit="10" width="10.87" height="4.18"/>
		
			<rect x="123.92" y="440.42" fill-rule="evenodd" clip-rule="evenodd" fill="#FFFFFF" stroke="#000000" stroke-miterlimit="10" width="10.87" height="4.18"/>
		
			<rect x="123.92" y="436.24" fill-rule="evenodd" clip-rule="evenodd" fill="#FFFFFF" stroke="#000000" stroke-miterlimit="10" width="10.87" height="4.18"/>
		
			<rect x="123.92" y="368.98" fill-rule="evenodd" clip-rule="evenodd" fill="#FFFFFF" stroke="#000000" stroke-miterlimit="10" width="10.87" height="33.41"/>
		
			<rect x="123.92" y="398.21" fill-rule="evenodd" clip-rule="evenodd" fill="#FFFFFF" stroke="#000000" stroke-miterlimit="10" width="10.87" height="4.18"/>
		
			<rect x="123.92" y="394.03" fill-rule="evenodd" clip-rule="evenodd" fill="#FFFFFF" stroke="#000000" stroke-miterlimit="10" width="10.87" height="4.18"/>
		
			<rect x="123.92" y="389.85" fill-rule="evenodd" clip-rule="evenodd" fill="#FFFFFF" stroke="#000000" stroke-miterlimit="10" width="10.87" height="4.18"/>
		
			<rect x="123.92" y="385.67" fill-rule="evenodd" clip-rule="evenodd" fill="#FFFFFF" stroke="#000000" stroke-miterlimit="10" width="10.87" height="4.18"/>
		
			<rect x="123.92" y="381.49" fill-rule="evenodd" clip-rule="evenodd" fill="#FFFFFF" stroke="#000000" stroke-miterlimit="10" width="10.87" height="4.18"/>
		
			<rect x="123.92" y="377.31" fill-rule="evenodd" clip-rule="evenodd" fill="#FFFFFF" stroke="#000000" stroke-miterlimit="10" width="10.87" height="4.18"/>
		
			<rect x="123.92" y="373.13" fill-rule="evenodd" clip-rule="evenodd" fill="#FFFFFF" stroke="#000000" stroke-miterlimit="10" width="10.87" height="4.18"/>
	</g>
	<g>
		<g>
			<path fill="#24211C" d="M708.34,422.44c-1.55,0-2.82,1.26-2.82,2.82c0,1.55,1.26,2.82,2.82,2.82s2.82-1.26,2.82-2.82
				C711.16,423.7,709.9,422.44,708.34,422.44 M708.34,427c-0.96,0-1.74-0.78-1.74-1.74c0-0.96,0.78-1.74,1.74-1.74
				c0.96,0,1.74,0.78,1.74,1.74C710.08,426.22,709.3,427,708.34,427"/>
			<path fill="#24211C" d="M716.39,422.44c-1.55,0-2.82,1.26-2.82,2.82c0,1.55,1.26,2.82,2.82,2.82c1.55,0,2.82-1.26,2.82-2.82
				C719.21,423.7,717.95,422.44,716.39,422.44 M716.39,427c-0.96,0-1.74-0.78-1.74-1.74c0-0.96,0.78-1.74,1.74-1.74
				c0.96,0,1.74,0.78,1.74,1.74C718.13,426.22,717.35,427,716.39,427"/>
			<path fill="#24211C" d="M719.67,419.53h-13.46l-0.01-0.03c-0.01-0.06-0.02-0.11-0.03-0.17l-0.28-1.73
				c2.96-0.08,8.76-0.77,10.74-1.38c4.58-1.41,4.64-6.96,4.64-7.19c0-0.3-0.24-0.54-0.54-0.54h-16.37l-0.33-1.65
				c-0.03-0.16-0.13-0.29-0.27-0.36c-0.01,0-0.01-0.01-0.02-0.01c-0.02-0.01-0.03-0.02-0.05-0.02c-0.07-0.03-0.16-0.05-0.24-0.05
				l-2.95,0.15c-0.3,0.02-0.53,0.27-0.51,0.57c0.02,0.29,0.25,0.51,0.54,0.51c0.01,0,0.02,0,0.03,0l2.5-0.13l0.32,1.6
				c0,0.01,0,0.02,0,0.02l0.41,2.33l1.39,8.46c0.01,0.06,0.03,0.12,0.06,0.17c0.01,0.29,0.25,0.52,0.54,0.52h13.89
				c0.3,0,0.54-0.24,0.54-0.54C720.21,419.77,719.97,419.53,719.67,419.53 M704.86,411.27l-0.3-1.71h15.6
				c-0.14,1.32-0.78,4.68-3.84,5.63c-1.91,0.59-7.8,1.27-10.6,1.33L704.86,411.27z"/>
		</g>
		
			<rect x="707.23" y="432.08" fill-rule="evenodd" clip-rule="evenodd" fill="#FFFFFF" stroke="#000000" stroke-miterlimit="10" width="10.87" height="33.41"/>
		
			<rect x="707.23" y="461.32" fill-rule="evenodd" clip-rule="evenodd" fill="#FFFFFF" stroke="#000000" stroke-miterlimit="10" width="10.87" height="4.18"/>
		
			<rect x="707.23" y="457.14" fill-rule="evenodd" clip-rule="evenodd" fill="#FFFFFF" stroke="#000000" stroke-miterlimit="10" width="10.87" height="4.18"/>
		
			<rect x="707.23" y="452.96" fill-rule="evenodd" clip-rule="evenodd" fill="#FFFFFF" stroke="#000000" stroke-miterlimit="10" width="10.87" height="4.18"/>
		
			<rect x="707.23" y="448.78" fill-rule="evenodd" clip-rule="evenodd" fill="#FFFFFF" stroke="#000000" stroke-miterlimit="10" width="10.87" height="4.18"/>
		
			<rect x="707.23" y="444.6" fill-rule="evenodd" clip-rule="evenodd" fill="#FFFFFF" stroke="#000000" stroke-miterlimit="10" width="10.87" height="4.18"/>
		
			<rect x="707.23" y="440.42" fill-rule="evenodd" clip-rule="evenodd" fill="#FFFFFF" stroke="#000000" stroke-miterlimit="10" width="10.87" height="4.18"/>
		
			<rect x="707.23" y="436.24" fill-rule="evenodd" clip-rule="evenodd" fill="#FFFFFF" stroke="#000000" stroke-miterlimit="10" width="10.87" height="4.18"/>
		
			<rect x="707.23" y="368.98" fill-rule="evenodd" clip-rule="evenodd" fill="#FFFFFF" stroke="#000000" stroke-miterlimit="10" width="10.87" height="33.41"/>
		
			<rect x="707.23" y="398.21" fill-rule="evenodd" clip-rule="evenodd" fill="#FFFFFF" stroke="#000000" stroke-miterlimit="10" width="10.87" height="4.18"/>
		
			<rect x="707.23" y="394.03" fill-rule="evenodd" clip-rule="evenodd" fill="#FFFFFF" stroke="#000000" stroke-miterlimit="10" width="10.87" height="4.18"/>
		
			<rect x="707.23" y="389.85" fill-rule="evenodd" clip-rule="evenodd" fill="#FFFFFF" stroke="#000000" stroke-miterlimit="10" width="10.87" height="4.18"/>
		
			<rect x="707.23" y="385.67" fill-rule="evenodd" clip-rule="evenodd" fill="#FFFFFF" stroke="#000000" stroke-miterlimit="10" width="10.87" height="4.18"/>
		
			<rect x="707.23" y="381.49" fill-rule="evenodd" clip-rule="evenodd" fill="#FFFFFF" stroke="#000000" stroke-miterlimit="10" width="10.87" height="4.18"/>
		
			<rect x="707.23" y="377.31" fill-rule="evenodd" clip-rule="evenodd" fill="#FFFFFF" stroke="#000000" stroke-miterlimit="10" width="10.87" height="4.18"/>
		
			<rect x="707.23" y="373.13" fill-rule="evenodd" clip-rule="evenodd" fill="#FFFFFF" stroke="#000000" stroke-miterlimit="10" width="10.87" height="4.18"/>
	</g>
	<g>
		<g>
			<path fill="#24211C" d="M401.11,447.71c-1.55,0-2.82,1.26-2.82,2.82c0,1.55,1.26,2.82,2.82,2.82c1.55,0,2.82-1.26,2.82-2.82
				C403.93,448.98,402.66,447.71,401.11,447.71 M401.11,452.27c-0.96,0-1.74-0.78-1.74-1.74c0-0.96,0.78-1.74,1.74-1.74
				s1.74,0.78,1.74,1.74C402.85,451.49,402.07,452.27,401.11,452.27"/>
			<path fill="#24211C" d="M409.16,447.71c-1.55,0-2.82,1.26-2.82,2.82c0,1.55,1.26,2.82,2.82,2.82c1.55,0,2.82-1.26,2.82-2.82
				C411.98,448.98,410.71,447.71,409.16,447.71 M409.16,452.27c-0.96,0-1.74-0.78-1.74-1.74c0-0.96,0.78-1.74,1.74-1.74
				c0.96,0,1.74,0.78,1.74,1.74C410.9,451.49,410.12,452.27,409.16,452.27"/>
			<path fill="#24211C" d="M412.44,444.8h-13.46l-0.01-0.03c-0.01-0.06-0.02-0.11-0.03-0.17l-0.28-1.73
				c2.96-0.08,8.76-0.77,10.74-1.38c4.58-1.41,4.64-6.96,4.64-7.19c0-0.3-0.24-0.54-0.54-0.54h-16.37l-0.33-1.65
				c-0.03-0.16-0.13-0.29-0.27-0.36c-0.01,0-0.01-0.01-0.02-0.01c-0.02-0.01-0.03-0.02-0.05-0.02c-0.07-0.03-0.16-0.05-0.24-0.05
				l-2.95,0.15c-0.3,0.02-0.53,0.27-0.51,0.57c0.02,0.29,0.25,0.51,0.54,0.51c0.01,0,0.02,0,0.03,0l2.5-0.13l0.32,1.6
				c0,0.01,0,0.02,0,0.02l0.41,2.33l1.39,8.46c0.01,0.06,0.03,0.12,0.06,0.17c0.01,0.29,0.25,0.52,0.54,0.52h13.89
				c0.3,0,0.54-0.24,0.54-0.54C412.98,445.04,412.74,444.8,412.44,444.8 M397.62,436.55l-0.3-1.71h15.6
				c-0.14,1.32-0.78,4.68-3.84,5.63c-1.91,0.59-7.8,1.27-10.6,1.33L397.62,436.55z"/>
		</g>
		
			<rect x="399.99" y="457.35" fill-rule="evenodd" clip-rule="evenodd" fill="#FFFFFF" stroke="#000000" stroke-miterlimit="10" width="10.87" height="33.41"/>
		
			<rect x="399.99" y="486.59" fill-rule="evenodd" clip-rule="evenodd" fill="#FFFFFF" stroke="#000000" stroke-miterlimit="10" width="10.87" height="4.18"/>
		
			<rect x="399.99" y="482.41" fill-rule="evenodd" clip-rule="evenodd" fill="#FFFFFF" stroke="#000000" stroke-miterlimit="10" width="10.87" height="4.18"/>
		
			<rect x="399.99" y="478.23" fill-rule="evenodd" clip-rule="evenodd" fill="#FFFFFF" stroke="#000000" stroke-miterlimit="10" width="10.87" height="4.18"/>
		
			<rect x="399.99" y="474.05" fill-rule="evenodd" clip-rule="evenodd" fill="#FFFFFF" stroke="#000000" stroke-miterlimit="10" width="10.87" height="4.18"/>
		
			<rect x="399.99" y="469.87" fill-rule="evenodd" clip-rule="evenodd" fill="#FFFFFF" stroke="#000000" stroke-miterlimit="10" width="10.87" height="4.18"/>
		
			<rect x="399.99" y="465.69" fill-rule="evenodd" clip-rule="evenodd" fill="#FFFFFF" stroke="#000000" stroke-miterlimit="10" width="10.87" height="4.18"/>
		
			<rect x="399.99" y="461.51" fill-rule="evenodd" clip-rule="evenodd" fill="#FFFFFF" stroke="#000000" stroke-miterlimit="10" width="10.87" height="4.18"/>
		
			<rect x="399.99" y="394.25" fill-rule="evenodd" clip-rule="evenodd" fill="#FFFFFF" stroke="#000000" stroke-miterlimit="10" width="10.87" height="33.41"/>
		
			<rect x="399.99" y="423.48" fill-rule="evenodd" clip-rule="evenodd" fill="#FFFFFF" stroke="#000000" stroke-miterlimit="10" width="10.87" height="4.18"/>
		
			<rect x="399.99" y="419.3" fill-rule="evenodd" clip-rule="evenodd" fill="#FFFFFF" stroke="#000000" stroke-miterlimit="10" width="10.87" height="4.18"/>
		
			<rect x="399.99" y="415.12" fill-rule="evenodd" clip-rule="evenodd" fill="#FFFFFF" stroke="#000000" stroke-miterlimit="10" width="10.87" height="4.18"/>
		
			<rect x="399.99" y="410.94" fill-rule="evenodd" clip-rule="evenodd" fill="#FFFFFF" stroke="#000000" stroke-miterlimit="10" width="10.87" height="4.18"/>
		
			<rect x="399.99" y="406.76" fill-rule="evenodd" clip-rule="evenodd" fill="#FFFFFF" stroke="#000000" stroke-miterlimit="10" width="10.87" height="4.18"/>
		
			<rect x="399.99" y="402.58" fill-rule="evenodd" clip-rule="evenodd" fill="#FFFFFF" stroke="#000000" stroke-miterlimit="10" width="10.87" height="4.18"/>
		
			<rect x="399.99" y="398.4" fill-rule="evenodd" clip-rule="evenodd" fill="#FFFFFF" stroke="#000000" stroke-miterlimit="10" width="10.87" height="4.18"/>
	</g>
	<g>
		<g>
			<path fill="#24211C" d="M401.11,510.62c-1.55,0-2.82,1.26-2.82,2.82c0,1.55,1.26,2.82,2.82,2.82c1.55,0,2.82-1.26,2.82-2.82
				C403.93,511.88,402.66,510.62,401.11,510.62 M401.11,515.18c-0.96,0-1.74-0.78-1.74-1.74c0-0.96,0.78-1.74,1.74-1.74
				s1.74,0.78,1.74,1.74C402.85,514.4,402.07,515.18,401.11,515.18"/>
			<path fill="#24211C" d="M409.16,510.62c-1.55,0-2.82,1.26-2.82,2.82c0,1.55,1.26,2.82,2.82,2.82c1.55,0,2.82-1.26,2.82-2.82
				C411.98,511.88,410.71,510.62,409.16,510.62 M409.16,515.18c-0.96,0-1.74-0.78-1.74-1.74c0-0.96,0.78-1.74,1.74-1.74
				c0.96,0,1.74,0.78,1.74,1.74C410.9,514.4,410.12,515.18,409.16,515.18"/>
			<path fill="#24211C" d="M412.44,507.71h-13.46l-0.01-0.03c-0.01-0.06-0.02-0.11-0.03-0.17l-0.28-1.73
				c2.96-0.08,8.76-0.77,10.74-1.38c4.58-1.41,4.64-6.96,4.64-7.19c0-0.3-0.24-0.54-0.54-0.54h-16.37l-0.33-1.65
				c-0.03-0.16-0.13-0.29-0.27-0.36c-0.01,0-0.01-0.01-0.02-0.01c-0.02-0.01-0.03-0.02-0.05-0.02c-0.07-0.03-0.16-0.05-0.24-0.05
				l-2.95,0.15c-0.3,0.02-0.53,0.27-0.51,0.57c0.02,0.29,0.25,0.51,0.54,0.51c0.01,0,0.02,0,0.03,0l2.5-0.13l0.32,1.6
				c0,0.01,0,0.02,0,0.02l0.41,2.33l1.39,8.46c0.01,0.06,0.03,0.12,0.06,0.17c0.01,0.29,0.25,0.52,0.54,0.52h13.89
				c0.3,0,0.54-0.24,0.54-0.54C412.98,507.95,412.74,507.71,412.44,507.71 M397.62,499.45l-0.3-1.71h15.6
				c-0.14,1.32-0.78,4.68-3.84,5.63c-1.91,0.59-7.8,1.27-10.6,1.33L397.62,499.45z"/>
		</g>
		
			<rect x="399.99" y="520.26" fill-rule="evenodd" clip-rule="evenodd" fill="#FFFFFF" stroke="#000000" stroke-miterlimit="10" width="10.87" height="33.41"/>
		
			<rect x="399.99" y="549.5" fill-rule="evenodd" clip-rule="evenodd" fill="#FFFFFF" stroke="#000000" stroke-miterlimit="10" width="10.87" height="4.18"/>
		
			<rect x="399.99" y="545.32" fill-rule="evenodd" clip-rule="evenodd" fill="#FFFFFF" stroke="#000000" stroke-miterlimit="10" width="10.87" height="4.18"/>
		
			<rect x="399.99" y="541.14" fill-rule="evenodd" clip-rule="evenodd" fill="#FFFFFF" stroke="#000000" stroke-miterlimit="10" width="10.87" height="4.18"/>
		
			<rect x="399.99" y="536.96" fill-rule="evenodd" clip-rule="evenodd" fill="#FFFFFF" stroke="#000000" stroke-miterlimit="10" width="10.87" height="4.18"/>
		
			<rect x="399.99" y="532.78" fill-rule="evenodd" clip-rule="evenodd" fill="#FFFFFF" stroke="#000000" stroke-miterlimit="10" width="10.87" height="4.18"/>
		
			<rect x="399.99" y="528.6" fill-rule="evenodd" clip-rule="evenodd" fill="#FFFFFF" stroke="#000000" stroke-miterlimit="10" width="10.87" height="4.18"/>
		
			<rect x="399.99" y="524.42" fill-rule="evenodd" clip-rule="evenodd" fill="#FFFFFF" stroke="#000000" stroke-miterlimit="10" width="10.87" height="4.18"/>
	</g>
</g>
</svg>
