<svg xmlns="http://www.w3.org/2000/svg" fill="none" viewBox="0 0 56 39"><defs/><g fill="#FF6903" fill-rule="evenodd" clip-path="url(#clip0)" clip-rule="evenodd"><path d="M55.1.7c-.4 4.4-1.9 6.6-3.4 9.6-1.4 2.9-3.6 9.7-8.2 7-1.8-1.1-2.6-5.7-3.6-8.6-.7-2-4-7.7-1.2-8.4 2-.5 3.3 3 4.1 4.3 1.2 2.1 2.1 3.5 2.9 5.3 2.1-1.8 5.1-12.8 9.4-9.2z"/><path d="M31.1 31.5c2.1-2.9 3.1-8.3 7.4-8.2-1.3 3.2-1.9 13.8-6 14.9-4.5 1.1-7.3-7.1-8.6-10.1-.7-1.5-3.2-4.8-.2-5.3 3.3-.4 5.4 7.7 7.4 8.7z"/><path d="M18.7 3c.1 2-2 1.8-2.6 3.1C14.4 10 14 23.5 7.2 21.9c-3-.7-5.7-9.5-6.7-13.4-.6-2.2-.9-4.4 1-4.8 3.7-.7 4.8 8.4 6.6 10.1C10.1 8.9 11.4 1 18.7 3z"/></g><defs><clipPath id="clip0"><path fill="#fff" d="M0 0h55.1v38.3H0z"/></clipPath></defs></svg>