<svg xmlns="http://www.w3.org/2000/svg" fill="none" viewBox="0 0 116 174"><defs/><g clip-path="url(#clip0)"><path fill="#FFD900" d="M0 0v.7L.7 0H0z"/><path fill="#000" d="M.7 0L0 .7v9.6L10.3 0H.7z"/><path fill="#000" d="M38.7 0L0 38.8v9.6L48.3 0h-9.6z"/><path fill="#000" d="M18.9 0L0 18.9v9.6L28.5 0h-9.6z"/><path fill="#000" d="M57.8 0L0 58v9.6L67.4 0h-9.6z"/><path fill="#000" d="M76.8 0L0 77.1v9.6L86.4 0h-9.6z"/><path fill="#000" d="M95.5 0L0 95.7v9.6L105.1 0h-9.6z"/><path fill="#000" d="M115.5 0h-.8L0 115v9.6L115.5 8.8V0z"/><path fill="#000" d="M115.5 18.1L0 133.9v9.6L115.5 27.7v-9.6z"/><path fill="#000" d="M115.5 37.4L0 153.2v9.6L115.5 47v-9.6z"/><path fill="#000" d="M115.5 56.5L0 172.3v1h8.7L115.5 66.1v-9.6z"/><path fill="#000" d="M115.5 74.9l-98 98.4H27l88.5-88.8v-9.6z"/><path fill="#000" d="M115.5 94.9l-78.3 78.3h9.6l68.7-68.7v-9.6z"/><path fill="#000" d="M115.5 113.8l-59.4 59.4h9.6l49.8-49.8v-9.6z"/><path fill="#000" d="M115.5 132.7L75 173.2h9.6l30.9-30.9v-9.6z"/><path fill="#000" d="M103.6 173.2l11.9-11.9v-9.6l-21.4 21.5h9.5z"/></g><defs><clipPath id="clip0"><path fill="#fff" d="M0 0h115.5v173.3H0z"/></clipPath></defs></svg>