<svg width="69" height="85" viewBox="0 0 69 85" fill="none" xmlns="http://www.w3.org/2000/svg">
<g clip-path="url(#clip0)">
<path d="M68.03 42.0859H0.751953V84.1711H68.03V42.0859Z" fill="#8E44B1"/>
<path d="M48.298 18.4935L47.5699 17.7654L37.2307 7.42609L37.085 7.28046C35.4832 5.75142 33.5901 5.38736 32.1338 6.91641L20.4111 18.3479L24.5614 22.4253L34.4638 12.6685L44.2206 22.4981L48.298 18.4935Z" fill="white"/>
<path d="M63.0788 52.6429L57.7635 47.3276L39.7062 29.2703C36.7938 26.3578 31.9882 26.3578 29.0029 29.2703L26.8185 31.4546L11.0184 47.2548L5.70312 52.5701L28.8573 75.7242L29.0029 75.8698C31.6969 78.5639 35.9928 78.7823 38.9053 76.5251C39.1965 76.3067 39.415 76.0883 39.6334 75.8698L49.9727 65.5306L63.0788 52.6429Z" fill="#FF6903"/>
<g clip-path="url(#clip1)">
<path d="M68.03 42.0859H0.751953V84.1711H68.03V42.0859Z" fill="#8E44B1"/>
<path d="M48.298 18.4935L47.5699 17.7654L37.2307 7.42609L37.085 7.28046C35.4832 5.75142 33.5901 5.38736 32.1338 6.91641L20.4111 18.3479L24.5614 22.4253L34.4638 12.6685L44.2206 22.4981L48.298 18.4935Z" fill="white"/>
<path d="M63.0788 52.6429L57.7635 47.3276L39.7062 29.2703C36.7938 26.3578 31.9882 26.3578 29.0029 29.2703L26.8185 31.4546L11.0184 47.2548L5.70312 52.5701L28.8573 75.7242L29.0029 75.8698C31.6969 78.5639 35.9928 78.7823 38.9053 76.5251C39.1965 76.3067 39.415 76.0883 39.6334 75.8698L49.9727 65.5306L63.0788 52.6429Z" fill="#FF6903"/>
<path d="M34.0994 64.292L22.668 52.7877L34.6091 40.9922L46.0405 52.4964L34.0994 64.292Z" fill="#181716"/>
</g>
<path d="M34.0994 64.292L22.668 52.7877L34.6091 40.9922L46.0405 52.4964L34.0994 64.292Z" fill="#181716"/>
</g>
<defs>
<clipPath id="clip0">
<rect width="67.2781" height="84.0976" fill="white" transform="translate(0.751953)"/>
</clipPath>
<clipPath id="clip1">
<rect width="67.2781" height="84.0976" fill="white" transform="translate(0.751953)"/>
</clipPath>
</defs>
</svg>
