<svg xmlns="http://www.w3.org/2000/svg" fill="none" viewBox="0 0 174 96"><defs/><g clip-path="url(#clip0)"><path fill="#FF6903" d="M116.9 0H56.3C15.6 0 0 16.1 0 58.9v25.7h35.5V60.9c0-28.1 7.2-30.9 32.1-30.9h37.9c24.9 0 32.1 2.8 32.1 30.9v23.8h35.6V58.9C173.3 16.1 157.5 0 116.9 0z"/><path fill="#fff" d="M73.3 83.1c0-7.1-5.7-12.8-12.8-12.8-7.1 0-12.8 5.7-12.8 12.8 0 7.1 5.7 12.8 12.8 12.8 7.1 0 12.8-5.8 12.8-12.8z"/><path fill="#fff" d="M125.6 83.1c0-7.1-5.7-12.8-12.8-12.8-7.1 0-12.8 5.7-12.8 12.8 0 7.1 5.7 12.8 12.8 12.8 7.1 0 12.8-5.8 12.8-12.8z"/></g><defs><clipPath id="clip0"><path fill="#fff" d="M0 0h173.3v95.9H0z"/></clipPath></defs></svg>