<svg xmlns="http://www.w3.org/2000/svg" fill="none" viewBox="0 0 116 97"><g fill="#181716" fill-rule="evenodd" clip-path="url(#clip0)" clip-rule="evenodd"><path d="M79 13.3c.2 2.4-2.3 7.5-4.2 8.9-2.4-1.6.1-7.4 2.7-9.3.5 0 1 0 1.5.4zM83.8 29.5c5.1.7-3.8 15.6-6.2 14.6-2.3-.9 1.4-9.7 3.8-13.2.5-.7 1.5-1.5 2.4-1.4zM59.7 18.7c2.6.2 1.3 3.7.3 6.2-.8 2-2.1 5.5-3.5 4.9-1.3-.6.3-7.1 1-8.9.6-1.4 1.3-2.3 2.2-2.2zM89.6 43.8c3.1.3.7 4.6-1 7.5-1.6 2.6-3.9 6.6-5.1 6-1.6-.7 1.8-7.5 2.5-9 .9-2.3 2-4.1 3.6-4.5zM67 37.3c1.9.2 1.2 2.7.5 4.4-1.2 2.8-3.8 7.3-5.1 6.8-2.3-.9 2.2-11.5 4.6-11.2zM31.9 46.4c-3.1-1.5 1.1-9 3.3-11.9.8-1.1 2.6-2.3 3.7-.7.9 1.4-1.6 5.1-2.9 7.2-1.3 2.3-2.6 4.7-4.1 5.4zM46.2 43.6c4.4 1.2-3.5 14.9-6.6 13.6-3.9-1.6 3-14.6 6.6-13.6zM65.8 56.8c4.2.3-1.7 10.6-3.5 13-.7 1-1.7 1.6-2.4 1.2-1.6-.8 0-3.6 1-6.1 1.1-2.7 2.6-8.2 4.9-8.1zM75.6 68c3.8.8-3.8 12.5-5.7 11.6-1.6-.8 2.8-12.2 5.7-11.6zM49.9 60.3c.5 2.7-1.8 7.5-3.8 10-2.5-1.4.4-8.3 2.8-10.2h.8c0 .1.1.2.2.2zM28 55.8c5.4-.3-3 12.4-4.6 11.8-2.2-.8 2.2-10.5 4.6-11.8zM61.4 83.7c4.8.9-2.3 13.1-4.6 12.2-2-.8-.1-8.3 2.6-11.3.5-.6 1.3-1 2-.9zM29.9 74.6c2.7.9.2 5.7-1.6 8.5-1.8 2.9-3 5.5-4.7 4.5-1.3-.8 1.4-9.2 3.5-11.8.6-.8 1.8-1.6 2.8-1.2zM47.3 84.3c4.3.6-2.8 13.5-5.5 11.9-1.9-1.1 2.1-11.1 4.9-12 .2-.1.5.1.6.1z"/></g><defs><clipPath id="clip0"><path fill="#fff" d="M0 0h115.5v96.3H0z"/></clipPath></defs></svg>