<svg xmlns="http://www.w3.org/2000/svg" fill="none" viewBox="0 0 85 169"><g clip-path="url(#clip0)"><path fill="#60CABC" d="M42.01 37.79V42H84.1V0H78.7c-24.68 0-36.7 12.38-36.7 37.79z"/><path fill="#FF6903" d="M0 37.79V42h42.01V0h-5.39C12.02 0 0 12.38 0 37.79z"/></g><g clip-path="url(#clip1)"><path fill="#FFD900" d="M0 42.08v.51l.51-.5H0z"/><path fill="#000" d="M.51 42.08L0 42.6v7l7.5-7.5H.51zM28.18 42.08L0 70.33v7l35.17-35.25h-7zM13.76 42.08L0 55.85v6.99l20.75-20.76h-6.99zM42.09 42.08L0 84.31v7l49.08-49.23h-7zM55.92 42.08L0 98.22v7l62.9-63.14h-6.98zM69.54 42.08L0 111.77v6.98l76.53-76.67h-7zM84.1 42.08h-.58L0 125.82v6.99l84.1-84.32v-6.4zM84.1 55.26L0 139.58v6.99l84.1-84.32v-6.99zM84.1 69.32L0 153.63v7L84.1 76.3v-7zM84.1 83.22L0 167.54v.73h6.33L84.1 90.2v-6.99zM84.1 96.62l-71.36 71.65h6.92L84.1 103.6v-7zM84.1 111.18L27.09 168.2h6.99l50.02-50.02v-6.99zM84.1 124.94L40.85 168.2h6.99l36.26-36.26v-6.99zM84.1 138.7l-29.5 29.5h7l22.5-22.5v-7zM75.43 168.2l8.67-8.67v-7L68.52 168.2h6.91z"/><path fill="#60CABC" d="M56.07 104.41H42v63.78h14.06v-63.78z"/><path fill="#8E44B1" d="M70.12 104.41H56.07v63.78h14.05v-63.78z"/></g><defs><clipPath id="clip0"><path fill="#fff" d="M0 0h84.1v42.09H0z"/></clipPath><clipPath id="clip1"><path fill="#fff" d="M0 0h84.1v126.18H0z" transform="translate(0 42.08)"/></clipPath></defs></svg>