<svg xmlns="http://www.w3.org/2000/svg" fill="none" viewBox="0 0 231 58"><defs/><g clip-path="url(#clip0)"><path fill="#FFD900" d="M231 0H0v57.8h231V0z"/><path fill="#181716" d="M48 26H31.5c-4.3 0-8.3 1.9-10.9 5.3l-12 15.1c-.6.8-.8 1.7-.7 2.6.1.9.6 1.7 1.3 2.3.6.5 1.3.7 2.1.7 1.1 0 2-.5 2.7-1.3l12-15.1c1.4-1.7 3.4-2.7 5.6-2.7H48c.5 0 .9.4.9.9v14.8c0 1.9 1.5 3.4 3.4 3.4s3.4-1.5 3.4-3.4V33.8c.1-4.3-3.4-7.8-7.7-7.8z"/><path fill="#181716" d="M82.1 35.1h-14a2.9 2.9 0 010-5.8h14c2.6 0 4.8-2.1 4.8-4.8V13.8c0-2.6-2.1-4.8-4.8-4.8h-14a4.8 4.8 0 00-4.8 4.8 2.9 2.9 0 01-5.8 0c0-5.8 4.7-10.6 10.6-10.6h14c5.8 0 10.6 4.7 10.6 10.6v10.7c-.1 5.8-4.8 10.6-10.6 10.6z"/><path fill="#181716" d="M38.1 46.8c0 2.4-2 4.4-4.4 4.4-2.4 0-4.4-2-4.4-4.4 0-2.4 2-4.4 4.4-4.4 2.4 0 4.4 2 4.4 4.4z"/><path fill="#181716" d="M46.6 10.3c0 2.4-2 4.4-4.4 4.4-2.4 0-4.4-2-4.4-4.4 0-2.4 2-4.4 4.4-4.4 2.4 0 4.4 1.9 4.4 4.4z"/><path fill="#181716" d="M115.8 7.6c-2.1-2.2-4.3-.1-6.2 1.6.2 2-.8 3.2-3.3 5.7-2.6 2.5-6.2 5.9-5.5 11.8.2 1.8 1.8 3.2 3.6 3.2h.4c2-.2 3.4-2 3.2-4-.2-2.1.8-3.3 3.3-5.7 2.5-2.4 5.9-5.6 5.6-11-.3-.6-.7-1.1-1.1-1.6z"/><path fill="#181716" d="M211.1 24.5c3.1 1.8 4.4 2.7 4.7 4.8.3 2.1-.8 3.3-3.4 5.8-2.7 2.5-6.3 6-5.6 12 .5 4.3 3 6.8 5.5 8.6 1.3.1 2.6-.1 3.7-.8.8-.5 1.4-1.2 1.8-2.1.2-.7.2-1.5.1-2.3-2.5-1.5-3.6-2.4-3.8-4.3-.3-2.1.8-3.3 3.4-5.8 2.7-2.5 6.3-6 5.6-12-.7-5.9-5.1-8.5-8.3-10.3-3.1-1.8-4.4-2.7-4.7-4.8-.2-1.8.5-3 2.4-4.9-.1-.2-.1-.5-.2-.7-1.1-3.3-3.4-3.6-6-3.4-2.1 2.3-4 5.4-3.5 9.9.8 5.9 5.1 8.5 8.3 10.3z"/><path fill="#181716" d="M164.4 21.1c-.2-1.4-1.1-2.5-2.5-2.9l-30.3-8.9c-1.8-.5-3.8.5-4.3 2.4-.5 1.8.5 3.8 2.4 4.3l22.9 6.7-18.9 11.8c-.8.5-1.4 1.4-1.6 2.3l-2.3 12.9.5.5c.8.7 1.8 1.4 2.9 1.4 1.4 0 2.8-1 3.8-2.3l1.8-9.7 24.2-15c.9-.8 1.6-2.2 1.4-3.5z"/><path fill="#181716" d="M169.9 49c-1.1 0-2.2-.1-3.3-.2-1.8-.3-3-1.9-2.7-3.7.3-1.8 1.9-3 3.7-2.7 4.2.6 8.5-.4 11.9-3 3.4-2.6 5.7-6.3 6.3-10.5.6-4.2-.4-8.5-3-11.9a16.1 16.1 0 00-10.5-6.3c-1.8-.3-3-1.9-2.7-3.7.3-1.8 1.9-3 3.7-2.7 5.9.9 11.2 4 14.8 8.8a22.1 22.1 0 014.2 16.7c-.9 5.9-4 11.2-8.8 14.8-4.2 2.9-8.8 4.4-13.6 4.4z"/><path fill="#181716" d="M95.1 41.1c-.1-.7 0-1.4.4-2 .9-1.3 2.7-1.7 4-.9l10.7 6.9 7.5-9.8c1-1.3 2.8-1.5 4.1-.5 1.3 1 1.5 2.8.5 4.1l-9.2 12c-.9 1.2-2.6 1.5-3.9.7l-12.9-8.4c-.7-.6-1.1-1.3-1.2-2.1z"/><path fill="#181716" d="M30 20.4c-.4.5-.9.9-1.6 1.1-1.5.3-2.9-.6-3.2-2.1L22.7 7.7 11.2 9.3c-1.5.2-2.8-.8-3-2.3-.2-1.5.8-2.8 2.3-3l14-1.8c1.4-.2 2.7.7 3 2.1l3 14.1a3 3 0 01-.5 2z"/></g><defs><clipPath id="clip0"><path fill="#fff" d="M0 0h231v57.8H0z"/></clipPath></defs></svg>