<svg xmlns="http://www.w3.org/2000/svg" fill="none" viewBox="0 0 116 239"><defs/><g clip-path="url(#clip0)"><path fill="#FFD900" d="M116-561H0v800h116v-800z"/><path fill="#fff" d="M21.3 224.4H85l-5.3 14.2h7.7l4.4-11.8 5.2 11.8h7.9l-9.5-21.5 2.6-7.3h8.1v-7.3H75.5c-1.9 0-2.6 3-.4 3.6l15.2 3.6-2.7 7.3H23.5l2.9-9.4c2.2-7.1 13.1-5.1 18.7-5.1v-7.3c-9.5 0-22-1.8-25.6 10.3l-10.1 33h7.5l1.9-6.1 5.5 6.1H34l-12.7-14.1z"/></g><defs><clipPath id="clip0"><path fill="#fff" d="M0 0h115.5v238.6H0z"/></clipPath></defs></svg>