<svg xmlns="http://www.w3.org/2000/svg" fill="none" viewBox="0 0 89 61"><g fill="#fff" clip-path="url(#clip0)"><path d="M17.3 9.52h-4.6c-1.44 0-2.55-1.11-2.55-2.38V2.38C10.15 1.11 11.26 0 12.7 0h4.6a2.34 2.34 0 012.38 2.38v4.6c0 1.43-1.1 2.54-2.38 2.54zM40.45 9.52h-4.6c-1.42 0-2.53-1.11-2.53-2.38V2.38A2.44 2.44 0 0135.7 0h4.6c1.42 0 2.53 1.11 2.53 2.38v4.6c0 1.43-1.1 2.54-2.38 2.54zM63.46 9.52h-4.6a2.34 2.34 0 01-2.38-2.38V2.38A2.34 2.34 0 0158.86 0h4.6a2.34 2.34 0 012.38 2.38v4.6c.16 1.43-.95 2.54-2.38 2.54zM86.62 9.52h-4.6a2.34 2.34 0 01-2.38-2.38V2.38A2.34 2.34 0 0182.02 0h4.6A2.34 2.34 0 0189 2.38v4.6c0 1.43-1.11 2.54-2.38 2.54zM7.14 26.5H2.38A2.44 2.44 0 010 24.1v-4.6a2.34 2.34 0 012.38-2.38h4.6a2.34 2.34 0 012.38 2.38v4.6c.16 1.27-.95 2.38-2.22 2.38zM30.14 26.5h-4.6a2.34 2.34 0 01-2.38-2.39v-4.6a2.34 2.34 0 012.38-2.38h4.6a2.34 2.34 0 012.38 2.38v4.6c.16 1.27-.95 2.38-2.38 2.38zM53.3 26.5h-4.6a2.34 2.34 0 01-2.38-2.39v-4.6a2.34 2.34 0 012.38-2.38h4.6a2.34 2.34 0 012.38 2.38v4.6c0 1.27-.95 2.38-2.38 2.38zM76.47 26.5h-4.6a2.34 2.34 0 01-2.38-2.39v-4.6a2.34 2.34 0 012.38-2.38h4.6a2.34 2.34 0 012.38 2.38v4.6a2.44 2.44 0 01-2.38 2.38zM19.99 43.47h-4.6A2.34 2.34 0 0113 41.09v-4.6a2.34 2.34 0 012.38-2.38h4.6a2.34 2.34 0 012.38 2.38v4.6c0 1.27-.95 2.38-2.38 2.38zM43.15 43.47h-4.6a2.34 2.34 0 01-2.38-2.38v-4.6a2.34 2.34 0 012.38-2.38h4.6a2.34 2.34 0 012.38 2.38v4.6a2.44 2.44 0 01-2.38 2.38zM66.16 43.47h-4.6a2.34 2.34 0 01-2.39-2.38v-4.6a2.34 2.34 0 012.38-2.38h4.6a2.34 2.34 0 012.38 2.38v4.6c.16 1.27-.95 2.38-2.37 2.38zM9.84 60.44h-4.6a2.34 2.34 0 01-2.38-2.38v-4.6a2.34 2.34 0 012.38-2.38h4.6a2.34 2.34 0 012.38 2.38v4.6a2.34 2.34 0 01-2.38 2.38zM32.84 60.44h-4.6a2.34 2.34 0 01-2.38-2.38v-4.6a2.34 2.34 0 012.38-2.38h4.6a2.34 2.34 0 012.38 2.38v4.6c.16 1.43-.95 2.38-2.38 2.38zM56 60.44h-4.6a2.34 2.34 0 01-2.38-2.38v-4.6a2.34 2.34 0 012.38-2.38H56a2.34 2.34 0 012.38 2.38v4.6c.16 1.43-.95 2.38-2.38 2.38z"/></g><defs><clipPath id="clip0"><path fill="#fff" d="M0 0h89v60.44H0z"/></clipPath></defs></svg>