<svg xmlns="http://www.w3.org/2000/svg" fill="none" viewBox="0 0 85 127"><defs/><g clip-path="url(#clip0)"><path fill="#FFD900" d="M.9.76v.5l.51-.5h-.5z"/><path fill="#000" d="M1.41.76l-.5.5v7L8.4.76h-7z"/><path fill="#000" d="M29.08.76L.9 29V36L36.07.76h-6.99z"/><path fill="#000" d="M14.66.76L.9 14.52v6.99L21.65.76h-6.99z"/><path fill="#000" d="M42.99.76L.9 42.99v6.99L49.98.76h-7z"/><path fill="#000" d="M56.82.76L.9 56.9v6.99L63.81.76h-6.99z"/><path fill="#000" d="M70.44.76L.9 70.44v6.99L77.43.76h-7z"/><path fill="#000" d="M85 .76h-.58L.9 84.49v7L85 7.16V.76z"/><path fill="#000" d="M85 13.94L.9 98.25v7L85 20.92v-7z"/><path fill="#000" d="M85 27.99L.9 112.31v6.99L85 34.98v-6.99z"/><path fill="#000" d="M85 41.9L.9 126.2v.73h6.34L85 48.9v-7z"/><path fill="#000" d="M85 55.3l-71.36 71.64h6.92L85 62.28V55.3z"/><path fill="#000" d="M85 69.86l-57.01 57h6.99L85 76.86v-7z"/><path fill="#000" d="M85 83.62l-43.25 43.25h6.99L85 90.6v-7z"/><path fill="#000" d="M85 97.38l-29.49 29.49h7L85 104.37v-7z"/><path fill="#000" d="M76.34 126.87L85 118.2v-6.99l-15.58 15.66h6.92z"/><path fill="#60CABC" d="M56.97 63.08H42.92v63.79h14.05V63.08z"/><path fill="#8E44B1" d="M71.02 63.08H56.97v63.79h14.05V63.08z"/></g><defs><clipPath id="clip0"><path fill="#fff" d="M0 0h84.1v126.18H0z" transform="translate(.9 .76)"/></clipPath></defs></svg>