<svg xmlns="http://www.w3.org/2000/svg" fill="none" viewBox="0 0 93 95"><defs/><g clip-path="url(#clip0)"><path fill="#FFD900" d="M93.1 94.8V23.2c-.8-.1-1.6-.1-2.5-.1H30.9c-11.7-.1-14.8 8.8-16.5 13.7-1.7 4.8-8.2 38.4-14.4 58h93.1z"/><path fill="#60CABC" fill-rule="evenodd" d="M84.9.7c-.4 4.4-1.9 6.6-3.4 9.6-1.4 2.9-3.6 9.7-8.2 7-1.8-1.1-2.6-5.7-3.6-8.6-.7-2-4-7.7-1.2-8.4 2-.5 3.3 3 4.1 4.3 1.2 2.1 2.1 3.5 2.9 5.3 2.1-1.8 5.1-12.8 9.4-9.2z" clip-rule="evenodd"/><path fill="#60CABC" fill-rule="evenodd" d="M60.9 31.5c2.1-2.9 3.1-8.3 7.4-8.2-1.3 3.2-1.9 13.8-6 14.9-4.5 1.1-7.3-7.1-8.6-10.1-.7-1.5-3.2-4.8-.2-5.3 3.3-.4 5.4 7.7 7.4 8.7z" clip-rule="evenodd"/><path fill="#60CABC" fill-rule="evenodd" d="M48.5 3c.1 2-2 1.8-2.6 3.1-1.7 3.9-2.1 17.4-8.9 15.8-3-.7-5.7-9.5-6.7-13.4-.6-2.2-.9-4.4 1-4.8 3.8-.7 4.9 8.4 6.7 10.1C39.9 8.9 41.2 1 48.5 3z" clip-rule="evenodd"/></g><defs><clipPath id="clip0"><path fill="#fff" d="M0 0h93.1v94.8H0z"/></clipPath></defs></svg>