<svg xmlns="http://www.w3.org/2000/svg" fill="none" viewBox="0 0 140 40"><g fill="#000" fill-rule="evenodd" clip-path="url(#clip0)" clip-rule="evenodd"><path d="M30.9 26.17a26.47 26.47 0 01-2.33 4.33c-1.52 2.29-3.66 5.14-6.32 5.16-2.36.01-2.95-1.53-6.16-1.51-3.19.02-3.86 1.52-6.21 1.5-2.64 0-4.68-2.6-6.2-4.9-4.22-6.38-4.67-13.9-2.06-17.89 1.87-2.85 4.79-4.5 7.55-4.5 2.8 0 4.58 1.52 6.89 1.52 2.25 0 3.62-1.52 6.87-1.52 2.46 0 5.06 1.32 6.9 3.62-6.06 3.3-5.06 11.9 1.06 14.19z"/><path d="M20.49 5.78c1.17-1.5 2.08-3.62 1.75-5.78a8.52 8.52 0 00-5.5 2.93c-1.2 1.45-2.18 3.58-1.8 5.66 2.1.06 4.27-1.18 5.55-2.8zM139.9 29.18h-8.52a3.73 3.73 0 001.24 2.82c.7.6 1.65.87 2.79.87a9.3 9.3 0 003.45-.62l.45 1.95c-1.21.52-2.65.77-4.3.77-1.98 0-3.53-.57-4.67-1.74a6.41 6.41 0 01-1.7-4.65c0-1.92.52-3.5 1.58-4.79a5.48 5.48 0 014.48-2.03c1.85 0 3.24.67 4.18 2.03a6.96 6.96 0 011.14 4.05c-.02.5-.05 1.02-.12 1.34zm-12.13-4.67a4.78 4.78 0 00-.92-.06c-1 0-1.78.38-2.33 1.11-.48.66-.73 1.5-.73 2.51v6.5H121v-8.55c0-1.46-.07-2.75-.12-4.06h2.48l.1 2.62h.08a4.6 4.6 0 011.42-2.07 3.5 3.5 0 012.08-.7c.27 0 .56-.02.73.02v2.68h.02zm-10.27 8.57a6.08 6.08 0 01-4.7 1.94 5.76 5.76 0 01-4.49-1.85 6.75 6.75 0 01-1.67-4.67c0-1.97.58-3.58 1.72-4.84a5.97 5.97 0 014.64-1.88c1.89 0 3.4.6 4.53 1.85a6.64 6.64 0 011.64 4.64 6.83 6.83 0 01-1.67 4.81zm-11.7-8.81h-2.97v6.06c0 1.57.5 2.34 1.6 2.34.51 0 .9-.03 1.22-.13l.07 2.13a6.4 6.4 0 01-2.22.31c-1.12 0-2.03-.32-2.66-1.01-.64-.67-.97-1.82-.97-3.43v-6.29h-1.82v-2.3h1.82v-2.24l2.97-.83v3.08h2.98v2.3h-.02zm-10 9.17C94.66 34.48 93.04 35 90.98 35a8.42 8.42 0 01-4.6-1.1l.66-2.35a8.03 8.03 0 004.1 1.1c1.07 0 1.9-.24 2.51-.72.6-.47.9-1.11.9-1.93 0-.7-.25-1.31-.73-1.8-.5-.5-1.3-.94-2.45-1.37-3.1-1.14-4.66-2.81-4.66-5.03 0-1.44.55-2.63 1.64-3.55a6.55 6.55 0 014.36-1.38c1.62 0 2.96.28 4.03.84l-.7 2.3c-1.02-.55-2.14-.81-3.41-.81-1.01 0-1.79.24-2.35.72-.48.44-.7.97-.7 1.59 0 .69.26 1.26.8 1.72.48.4 1.34.87 2.58 1.36a8.68 8.68 0 013.37 2.15 4.5 4.5 0 011.07 3.04c0 1.53-.53 2.74-1.58 3.67zm-16.42-.1a5.23 5.23 0 01-3.94 1.68c-1.69 0-2.83-.6-3.66-1.8V40h-2.8V26.22c0-1.36-.05-2.6-.12-4.25h2.5l.16 2.13h.05a4.87 4.87 0 014.31-2.29c1.5 0 2.78.57 3.79 1.77a6.95 6.95 0 011.52 4.67c-.02 2.15-.62 3.85-1.8 5.1zm-14.06 0a5.23 5.23 0 01-3.94 1.68c-1.7 0-2.83-.6-3.65-1.8V40h-2.81V26.22c0-1.36-.07-2.6-.14-4.25h2.5l.16 2.13h.05a4.87 4.87 0 014.33-2.29c1.5 0 2.76.57 3.79 1.77a6.95 6.95 0 011.52 4.67c-.02 2.15-.62 3.85-1.8 5.1zm-15.2 1.25l-1.65-5.08h-5.76l-1.59 5.08h-2.94l5.7-17.53h3.54l5.75 17.53h-3.04zm84.36-10.88c-.92 0-1.68.48-2.26 1.23-.48.6-.76 1.28-.84 2.26h5.91a3.82 3.82 0 00-.54-2.24 2.59 2.59 0 00-2.27-1.25zm-88.91-4.2h-.05c-.19.83-.47 1.92-.85 3.38l-1.47 4.66h4.76l-1.49-4.66c-.16-.47-.46-1.74-.9-3.37zm29.37 4.51c-.71 0-1.34.23-1.9.7a3.15 3.15 0 00-1.12 1.8c-.09.35-.14.65-.14.88v2.11c0 .92.3 1.7.86 2.35a2.9 2.9 0 002.23.95c1.08 0 1.92-.41 2.52-1.23.59-.82.89-1.9.89-3.25a5.2 5.2 0 00-.85-3.05 2.97 2.97 0 00-2.49-1.26zm37.97-.18c-1.14 0-2 .51-2.6 1.51a5.69 5.69 0 00-.76 3.05c0 1.16.25 2.16.76 3 .61 1 1.47 1.5 2.58 1.5 1.07 0 1.93-.5 2.54-1.54.53-.83.8-1.85.8-3.01 0-1.17-.25-2.16-.76-3-.6-1-1.46-1.5-2.56-1.5zm-52.03.18c-.7 0-1.34.23-1.9.7a3.24 3.24 0 00-1.12 1.8c-.09.35-.13.65-.13.88v2.11c0 .92.28 1.7.85 2.35.57.62 1.3.95 2.23.95 1.08 0 1.92-.41 2.52-1.23.6-.82.89-1.9.89-3.25a5.2 5.2 0 00-.84-3.05 2.97 2.97 0 00-2.5-1.26z"/></g><defs><clipPath id="clip0"><path fill="#fff" d="M0 0h140v40H0z"/></clipPath></defs></svg>