<svg xmlns="http://www.w3.org/2000/svg" fill="none" viewBox="0 0 158 40"><g fill="#000" clip-path="url(#clip0)"><path d="M76.35 22.74a5.96 5.96 0 00-6.09 6.09c0 3.39 2.68 6.08 6.1 6.08 3.4 0 6.08-2.55 6.08-6.08a5.89 5.89 0 00-6.09-6.1zm0 9.62c-1.84 0-3.39-1.55-3.39-3.68 0-2.12 1.55-3.68 3.4-3.68 1.83 0 3.38 1.42 3.38 3.68 0 2.13-1.56 3.68-3.39 3.68zM63.2 22.74a5.96 5.96 0 00-6.09 6.09c0 3.39 2.68 6.08 6.09 6.08 3.4 0 6.09-2.55 6.09-6.08 0-3.69-2.7-6.1-6.09-6.1zm0 9.62c-1.84 0-3.4-1.55-3.4-3.68 0-2.12 1.56-3.68 3.4-3.68 1.84 0 3.4 1.42 3.4 3.68 0 2.13-1.56 3.68-3.4 3.68zm-15.7-7.78v2.55h6.1a5.27 5.27 0 01-1.43 3.24 6.24 6.24 0 01-4.67 1.85 6.6 6.6 0 01-6.65-6.79 6.67 6.67 0 016.65-6.78c1.99 0 3.54.86 4.67 1.84L54 18.65a9.02 9.02 0 00-6.36-2.55c-5.09 0-9.48 4.25-9.48 9.33 0 5.1 4.37 9.34 9.48 9.34 2.82 0 4.81-.86 6.5-2.68a8.52 8.52 0 002.27-5.94c0-.57 0-1.14-.15-1.55l-8.77-.02zm64.21 1.98c-.56-1.42-1.98-3.8-5.08-3.8-3.12 0-5.65 2.4-5.65 6.08a5.93 5.93 0 0010.9 3.41l-1.99-1.42c-.71.99-1.55 1.7-2.97 1.7-1.42 0-2.26-.57-2.97-1.85L112 27.3l-.3-.73zm-8.2 1.97c0-2.26 1.84-3.53 3.12-3.53.98 0 1.98.56 2.26 1.27l-5.38 2.26zm-6.65 5.82h2.7V16.66h-2.69v17.69h-.01zM92.62 24a4.65 4.65 0 00-3.25-1.42c-2.97 0-5.8 2.68-5.8 6.09 0 3.4 2.68 5.94 5.8 5.94 1.42 0 2.55-.7 3.12-1.42h.14v.86c0 2.26-1.27 3.53-3.24 3.53a3.16 3.16 0 01-2.97-2.11l-2.26.98A5.85 5.85 0 0089.53 40c3.12 0 5.66-1.84 5.66-6.22V23.03h-2.56l-.01.98zm-3.12 8.35c-1.84 0-3.4-1.55-3.4-3.68 0-2.12 1.56-3.68 3.4-3.68 1.84 0 3.24 1.55 3.24 3.68s-1.4 3.68-3.24 3.68zM124 16.66h-6.36v17.69h2.68v-6.66H124c2.97 0 5.8-2.11 5.8-5.52 0-3.4-2.83-5.5-5.8-5.5zm.15 8.48h-3.83v-6.09h3.83a3.1 3.1 0 013.11 2.97c-.16 1.57-1.29 3.12-3.11 3.12zm16.26-2.53c-1.99 0-3.96.86-4.67 2.68l2.4.98c.57-.98 1.43-1.27 2.41-1.27 1.43 0 2.69.85 2.83 2.26v.14a5.46 5.46 0 00-2.68-.7c-2.55 0-5.09 1.41-5.09 3.95 0 2.4 2.12 3.95 4.38 3.95 1.84 0 2.68-.85 3.4-1.7h.14v1.43h2.55v-6.78c-.31-3.1-2.7-4.94-5.67-4.94zm-.3 9.75c-.85 0-2.1-.42-2.1-1.55 0-1.42 1.54-1.84 2.82-1.84 1.13 0 1.7.3 2.4.57a3.3 3.3 0 01-3.11 2.82zM155 23.03L152 30.67h-.14l-3.12-7.64h-2.82l4.66 10.75-2.68 5.95h2.68l7.22-16.68H155v-.02zM131.2 34.35h2.68V16.66h-2.68v17.69z"/><path fill-rule="evenodd" d="M24.38 12.74L2.22 0l17.5 17.41 4.66-4.67zM.18.13C.1.29 0 .46 0 .66v36.06c0 .1.05.22.1.33L18.6 18.49.18.13zM19.73 19.54L1.57 37.74l.16-.07 22.96-13.2-4.96-4.93zM33.07 17.74l-7.33-4.21-4.94 4.94 5.23 5.21 7.04-4.05a1.1 1.1 0 000-1.9z" clip-rule="evenodd"/><g clip-path="url(#clip1)"><path d="M76.35 22.74a5.96 5.96 0 00-6.09 6.09c0 3.39 2.68 6.08 6.1 6.08 3.4 0 6.08-2.55 6.08-6.08a5.89 5.89 0 00-6.09-6.1zm0 9.62c-1.84 0-3.39-1.55-3.39-3.68 0-2.12 1.55-3.68 3.4-3.68 1.83 0 3.38 1.42 3.38 3.68 0 2.13-1.56 3.68-3.39 3.68zM63.2 22.74a5.96 5.96 0 00-6.09 6.09c0 3.39 2.68 6.08 6.09 6.08 3.4 0 6.09-2.55 6.09-6.08 0-3.69-2.7-6.1-6.09-6.1zm0 9.62c-1.84 0-3.4-1.55-3.4-3.68 0-2.12 1.56-3.68 3.4-3.68 1.84 0 3.4 1.42 3.4 3.68 0 2.13-1.56 3.68-3.4 3.68zm-15.7-7.78v2.55h6.1a5.27 5.27 0 01-1.43 3.24 6.24 6.24 0 01-4.67 1.85 6.6 6.6 0 01-6.65-6.79 6.67 6.67 0 016.65-6.78c1.99 0 3.54.86 4.67 1.84L54 18.65a9.02 9.02 0 00-6.36-2.55c-5.09 0-9.48 4.25-9.48 9.33 0 5.1 4.37 9.34 9.48 9.34 2.82 0 4.81-.86 6.5-2.68a8.52 8.52 0 002.27-5.94c0-.57 0-1.14-.15-1.55l-8.77-.02zm64.21 1.98c-.56-1.42-1.98-3.8-5.08-3.8-3.12 0-5.65 2.4-5.65 6.08a5.93 5.93 0 0010.9 3.41l-1.99-1.42c-.71.99-1.55 1.7-2.97 1.7-1.42 0-2.26-.57-2.97-1.85L112 27.3l-.3-.73zm-8.2 1.97c0-2.26 1.84-3.53 3.12-3.53.98 0 1.98.56 2.26 1.27l-5.38 2.26zm-6.65 5.82h2.7V16.66h-2.69v17.69h-.01zM92.62 24a4.65 4.65 0 00-3.25-1.42c-2.97 0-5.8 2.68-5.8 6.09 0 3.4 2.68 5.94 5.8 5.94 1.42 0 2.55-.7 3.12-1.42h.14v.86c0 2.26-1.27 3.53-3.24 3.53a3.16 3.16 0 01-2.97-2.11l-2.26.98A5.85 5.85 0 0089.53 40c3.12 0 5.66-1.84 5.66-6.22V23.03h-2.56l-.01.98zm-3.12 8.35c-1.84 0-3.4-1.55-3.4-3.68 0-2.12 1.56-3.68 3.4-3.68 1.84 0 3.24 1.55 3.24 3.68s-1.4 3.68-3.24 3.68zM124 16.66h-6.36v17.69h2.68v-6.66H124c2.97 0 5.8-2.11 5.8-5.52 0-3.4-2.83-5.5-5.8-5.5zm.15 8.48h-3.83v-6.09h3.83a3.1 3.1 0 013.11 2.97c-.16 1.57-1.29 3.12-3.11 3.12zm16.26-2.53c-1.99 0-3.96.86-4.67 2.68l2.4.98c.57-.98 1.43-1.27 2.41-1.27 1.43 0 2.69.85 2.83 2.26v.14a5.46 5.46 0 00-2.68-.7c-2.55 0-5.09 1.41-5.09 3.95 0 2.4 2.12 3.95 4.38 3.95 1.84 0 2.68-.85 3.4-1.7h.14v1.43h2.55v-6.78c-.31-3.1-2.7-4.94-5.67-4.94zm-.3 9.75c-.85 0-2.1-.42-2.1-1.55 0-1.42 1.54-1.84 2.82-1.84 1.13 0 1.7.3 2.4.57a3.3 3.3 0 01-3.11 2.82zM155 23.03L152 30.67h-.14l-3.12-7.64h-2.82l4.66 10.75-2.68 5.95h2.68l7.22-16.68H155v-.02zM131.2 34.35h2.68V16.66h-2.68v17.69z"/><path fill-rule="evenodd" d="M24.38 12.74L2.22 0l17.5 17.41 4.66-4.67zM.18.13C.1.29 0 .46 0 .66v36.06c0 .1.05.22.1.33L18.6 18.49.18.13zM19.73 19.54L1.57 37.74l.16-.07 22.96-13.2-4.96-4.93zM33.07 17.74l-7.33-4.21-4.94 4.94 5.23 5.21 7.04-4.05a1.1 1.1 0 000-1.9z" clip-rule="evenodd"/></g></g><defs><clipPath id="clip0"><path fill="#fff" d="M0 0h157.81v40H0z"/></clipPath><clipPath id="clip1"><path fill="#fff" d="M0 0h157.81v40H0z"/></clipPath></defs></svg>