<svg xmlns="http://www.w3.org/2000/svg" fill="none" viewBox="0 0 1920 116"><g clip-path="url(#clip0)"><path fill="#FFD900" d="M113.87 1.73H0v56.89h113.87V1.73z"/><path fill="#60CABC" d="M204.96 1.73h-91.1v56.99h91.1V1.73z"/><path fill="#8E44B1" d="M204.96 58.62h-91.1v56.98h91.1V58.62z"/><path fill="#181716" d="M216.3 1.73h-11.34v77.6h11.34V1.72zM239.08 1.73h-11.34v77.6h11.34V1.72zM261.75 1.73h-11.34v77.69h11.34V1.73zM284.62 1.63H273.3v77.7h11.33V1.62z"/><path fill="#fff" d="M178.25 26.78l-.99-1-14-13.99-.2-.2c-2.16-2.07-4.73-2.56-6.7-.49l-15.77 15.58 5.62 5.52 13.4-13.21 13.21 13.2 5.43-5.41z"/><path fill="#60CABC" d="M56.98 109.79v5.71h56.99V58.62h-7.3c-33.52 0-49.69 16.76-49.69 51.17z"/><path fill="#FF6903" d="M0 109.79v5.71h56.89V58.62h-7.3C16.27 58.62 0 75.38 0 109.79z"/><path fill="#8E44B1" d="M455.48 1.73H284.72v83.4h170.76V1.74z"/><path fill="#FF6903" d="M399.87 1.73h-59.74c-40.13 0-55.5 15.88-55.5 58.07v25.34h35V61.77c0-27.7 7.09-30.46 31.64-30.46h37.36c24.55 0 31.65 2.76 31.65 30.46v23.47h35.2V59.8c0-42.2-15.48-58.07-55.6-58.07z"/><path fill="#fff" fill-rule="evenodd" d="M438.32 13.66c-.4 4.34-1.87 6.5-3.35 9.47-1.38 2.86-3.55 9.56-8.08 6.9-1.78-1.09-2.57-5.62-3.55-8.48-.7-1.97-3.95-7.6-1.19-8.28 1.98-.5 3.26 2.96 4.05 4.24 1.18 2.07 2.07 3.35 2.86 5.22 2.07-1.77 5.02-12.62 9.26-9.07zM419.3 21.84c.1 1.98-1.98 1.78-2.57 3.06-1.68 3.85-2.07 17.16-8.77 15.58-2.96-.7-5.62-9.37-6.6-13.21-.6-2.17-.9-4.34.98-4.74 3.74-.69 4.83 8.29 6.6 9.96 1.88-4.83 3.26-12.62 10.36-10.65z" clip-rule="evenodd"/><path fill="#fff" d="M21 44.62h62.8l-5.23 14h7.6l4.33-11.63 5.13 11.63h7.79l-9.37-21.2 2.57-7.2h7.98v-7.2H74.43c-1.87 0-2.56 2.97-.39 3.56l14.99 3.55-2.67 7.2h-63.2l2.87-9.27c2.17-7 12.91-5.03 18.43-5.03v-7.2c-9.36 0-21.69-1.77-25.23 10.16L9.27 58.52h7.4l1.86-6.01 5.43 6.01h9.56L21 44.62z"/><path fill="#60CABC" d="M512.46 1.73h-56.98V115.6h56.98V1.73z"/><path fill="#fff" d="M505.07 42.55l-1.09-1.08-15.18-15.48-.3-.3c-2.36-2.27-5.12-2.86-7.3-.6l-17.05 17.26 6.12 6.11 14.49-14.68 14.3 14.78 6-6.01zM505.07 73.01l-1.09-1.08-15.18-15.48-.3-.3c-2.36-2.26-5.12-2.86-7.3-.59l-17.05 17.26 6.12 6.1 14.49-14.68 14.3 14.79 6-6.02zM490.87 102.3v-7c0-3.75-1.77-5.63-5.32-5.63h-1.78c-3.55 0-5.32 1.88-5.32 5.62v7h12.42z"/><path fill="#FFD900" d="M284.72 79.32h-79.76v36.28h79.76V79.32z"/><path fill="#fff" d="M455.48 85.14H284.62v30.46h170.86V85.14z"/><path fill="#181716" d="M455.48 111.26H284.62v4.34h170.86v-4.34zM455.48 102.59H284.62v4.34h170.86v-4.34zM455.48 93.81H284.62v4.34h170.86v-4.34zM455.48 85.14H284.62v4.34h170.86v-4.34z"/><path fill="#fff" d="M356.89 83.66c0-7-5.62-12.62-12.62-12.62-7 0-12.62 5.62-12.62 12.62 0 7 5.62 12.62 12.62 12.62 7 0 12.62-5.72 12.62-12.62zM408.45 83.66c0-7-5.62-12.62-12.62-12.62-7 0-12.62 5.62-12.62 12.62 0 7 5.62 12.62 12.62 12.62 7 0 12.62-5.72 12.62-12.62z"/><path fill="#FF6903" d="M198.26 72.91l-7.2-7.2-24.45-24.34a10.36 10.36 0 00-14.49 0l-2.96 2.95-21.39 21.4-7.2 7.2 31.35 31.34.2.2a10.23 10.23 0 0013.4.89c.4-.3.7-.6 1-.89l14-14 17.74-17.55z"/><path fill="#181716" d="M159.02 88.69L143.54 73.1l16.17-15.97 15.48 15.58-16.17 15.97z"/></g><g clip-path="url(#clip1)"><path fill="#FF6903" d="M1920 1.63h-113.87V115.5H1920V1.63z"/><path fill="#181716" fill-rule="evenodd" d="M1881.65 101.2l-30.76-60.62 19.32 5.62-.1-30.27h23.07l.1 30.27 19.23-5.62-30.86 60.63z" clip-rule="evenodd"/><path fill="#fff" fill-rule="evenodd" d="M1847.34 17.5l-33.72 66.55 21.1-6.2v21.78h25.24V77.84l21.1 6.21-33.72-66.54z" clip-rule="evenodd"/></g><g clip-path="url(#clip2)"><path fill="#FFD900" d="M1407.34 1.73h-113.87v56.89h113.87V1.73z"/><path fill="#60CABC" d="M1498.44 1.73h-91.1v56.99h91.1V1.73z"/><path fill="#8E44B1" d="M1498.44 58.62h-91.1v56.98h91.1V58.62z"/><path fill="#181716" d="M1509.78 1.73h-11.34v77.6h11.34V1.72zM1532.55 1.73h-11.34v77.6h11.34V1.72zM1555.22 1.73h-11.33v77.69h11.33V1.73zM1578.1 1.63h-11.34v77.7h11.34V1.62z"/><path fill="#fff" d="M1471.72 26.78l-.99-1-14-13.99-.19-.2c-2.17-2.07-4.73-2.56-6.71-.49l-15.77 15.58 5.62 5.52 13.41-13.21 13.21 13.2 5.42-5.41z"/><path fill="#60CABC" d="M1350.46 109.79v5.71h56.98V58.62h-7.29c-33.52 0-49.69 16.76-49.69 51.17z"/><path fill="#FF6903" d="M1293.47 109.79v5.71h56.89V58.62h-7.3c-33.32 0-49.59 16.76-49.59 51.17z"/><path fill="#8E44B1" d="M1748.95 1.73H1578.2v83.4h170.75V1.74z"/><path fill="#FF6903" d="M1693.35 1.73h-59.75c-40.12 0-55.5 15.88-55.5 58.07v25.34h35V61.77c0-27.7 7.09-30.46 31.64-30.46h37.37c24.55 0 31.64 2.76 31.64 30.46v23.47h35.2V59.8c0-42.2-15.48-58.07-55.6-58.07z"/><path fill="#fff" fill-rule="evenodd" d="M1731.8 13.66c-.4 4.34-1.88 6.5-3.36 9.47-1.38 2.86-3.55 9.56-8.08 6.9-1.78-1.09-2.56-5.62-3.55-8.48-.69-1.97-3.94-7.6-1.18-8.28 1.97-.5 3.25 2.96 4.04 4.24 1.18 2.07 2.07 3.35 2.86 5.22 2.07-1.77 5.03-12.62 9.27-9.07zM1712.77 21.84c.1 1.98-1.97 1.78-2.57 3.06-1.67 3.85-2.07 17.16-8.77 15.58-2.96-.7-5.62-9.37-6.6-13.21-.6-2.17-.89-4.34.98-4.74 3.75-.69 4.83 8.29 6.61 9.96 1.87-4.83 3.25-12.62 10.35-10.65z" clip-rule="evenodd"/><path fill="#fff" d="M1314.47 44.62h62.8l-5.22 14h7.59l4.34-11.63 5.12 11.63h7.79l-9.36-21.2 2.56-7.2h7.99v-7.2h-30.17c-1.88 0-2.57 2.97-.4 3.56l14.99 3.55-2.66 7.2h-63.2l2.86-9.27c2.17-7 12.92-5.03 18.44-5.03v-7.2c-9.37 0-21.69-1.77-25.24 10.16l-9.96 32.53h7.4l1.87-6.01 5.42 6.01h9.56l-12.52-13.9z"/><path fill="#60CABC" d="M1805.93 1.73h-56.98V115.6h56.98V1.73z"/><path fill="#fff" d="M1798.54 42.55l-1.08-1.08-15.19-15.48-.29-.3c-2.37-2.27-5.13-2.86-7.3-.6l-17.05 17.26 6.11 6.11 14.49-14.68 14.3 14.78 6.01-6.01zM1798.54 73.01l-1.08-1.08-15.19-15.48-.29-.3c-2.37-2.26-5.13-2.86-7.3-.59l-17.05 17.26 6.11 6.1 14.49-14.68 14.3 14.79 6.01-6.02zM1784.34 102.3v-7c0-3.75-1.77-5.63-5.32-5.63h-1.78c-3.54 0-5.32 1.88-5.32 5.62v7h12.42z"/><path fill="#FFD900" d="M1578.2 79.32h-79.76v36.28h79.76V79.32z"/><path fill="#fff" d="M1748.95 85.14H1578.1v30.46h170.85V85.14z"/><path fill="#181716" d="M1748.95 111.26H1578.1v4.34h170.85v-4.34zM1748.95 102.59H1578.1v4.34h170.85v-4.34zM1748.95 93.81H1578.1v4.34h170.85v-4.34zM1748.95 85.14H1578.1v4.34h170.85v-4.34z"/><path fill="#fff" d="M1650.36 83.66c0-7-5.62-12.62-12.62-12.62-7 0-12.62 5.62-12.62 12.62 0 7 5.62 12.62 12.62 12.62 7 0 12.62-5.72 12.62-12.62zM1701.92 83.66c0-7-5.62-12.62-12.62-12.62-7 0-12.62 5.62-12.62 12.62 0 7 5.62 12.62 12.62 12.62 7 0 12.62-5.72 12.62-12.62z"/><path fill="#FF6903" d="M1491.73 72.91l-7.19-7.2-24.45-24.34a10.35 10.35 0 00-14.49 0l-2.96 2.95-21.4 21.4-7.19 7.2 31.35 31.34.2.2a10.22 10.22 0 0013.4.89c.4-.3.69-.6.99-.89l14-14 17.74-17.55z"/><path fill="#181716" d="M1452.5 88.69l-15.48-15.58 16.17-15.97 15.47 15.58-16.16 15.97z"/></g><g clip-path="url(#clip3)"><path fill="#FFD900" d="M1114.54 1.63h-113.87V115.5h113.87V1.63z"/><path fill="#FF6903" d="M1000.67 1.63v5.53c0 34.6 16.07 51.46 49.29 51.46h16.07c28.79 0 44.76-12.72 48.51-38.65V1.63h-113.87z"/><path fill="#181716" fill-rule="evenodd" d="M1078.55 14.75c.2 2.36-2.27 7.4-4.14 8.77-2.36-1.58.1-7.3 2.66-9.17.5 0 .99 0 1.48.4zM1083.28 30.72c5.03.69-3.74 15.38-6.11 14.4-2.27-.9 1.38-9.57 3.75-13.02.49-.7 1.48-1.48 2.36-1.38zM1059.53 20.07c2.56.2 1.28 3.65.29 6.11-.79 1.97-2.07 5.42-3.45 4.83-1.28-.59.3-7 .99-8.77.59-1.38 1.28-2.27 2.17-2.17zM1089 44.82c3.06.3.69 4.53-.98 7.4-1.58 2.55-3.85 6.5-5.03 5.9-1.58-.68 1.77-7.39 2.46-8.87.89-2.26 1.98-4.04 3.55-4.43zM1066.72 38.4c1.87.2 1.18 2.67.49 4.35-1.18 2.76-3.74 7.2-5.02 6.7-2.27-.89 2.17-11.34 4.53-11.04zM1032.12 47.38c-3.06-1.48 1.08-8.87 3.25-11.73.79-1.09 2.56-2.27 3.65-.7.89 1.39-1.58 5.04-2.86 7.1-1.28 2.27-2.56 4.64-4.04 5.33zM1046.22 44.62c4.33 1.18-3.45 14.69-6.51 13.4-3.85-1.57 2.96-14.39 6.51-13.4zM1065.54 57.63c4.14.3-1.68 10.45-3.45 12.82-.69.98-1.68 1.58-2.37 1.18-1.58-.79 0-3.55.99-6.01 1.08-2.66 2.56-8.09 4.83-7.99zM1075.2 68.67c3.75.8-3.75 12.33-5.62 11.44-1.58-.79 2.76-12.03 5.62-11.44zM1049.86 61.08c.5 2.67-1.77 7.4-3.74 9.86-2.47-1.38.39-8.18 2.76-10.05h.79c0 .1.09.2.19.2zM1028.27 56.65c5.33-.3-2.96 12.22-4.53 11.63-2.17-.79 2.17-10.35 4.53-11.63zM1061.2 84.15c4.73.9-2.27 12.92-4.53 12.03-1.98-.79-.1-8.18 2.56-11.14.49-.6 1.28-.98 1.97-.89zM1030.15 75.18c2.66.89.19 5.62-1.58 8.38-1.78 2.86-2.96 5.42-4.64 4.44-1.28-.8 1.39-9.07 3.46-11.64.59-.78 1.77-1.57 2.76-1.18zM1047.3 84.75c4.24.59-2.76 13.3-5.42 11.73-1.88-1.09 2.07-10.95 4.83-11.83.2-.1.49.1.59.1z" clip-rule="evenodd"/></g><g clip-path="url(#clip4)"><path fill="#8E44B1" d="M899.52 26.18V1.63H886.3V115.5h113.86V93.81h-36.08c-46.63 0-64.57-18.43-64.57-67.63z"/><path fill="#60CABC" d="M931.56 19.08V1.63h-32.04v24.55c0 49.2 17.94 67.63 64.57 67.63h36.08V64.83h-24.94c-31.45 0-43.67-12.42-43.67-45.75z"/><path fill="#130D11" d="M966.06 1.63v13.8c0 6.61.6 11.15 2.27 14.1 0 .1.1.1.1.2l.1.1c.3.5.59.89.88 1.28 2.96 3.75 8.38 4.34 17.26 4.34h13.6V1.63h-34.2z"/><path fill="#fff" d="M969.32 31.11c-.3-.4-.6-.79-.89-1.28l-.1-.1c0-.1-.1-.1-.1-.2-1.67-3.05-2.17-7.59-2.17-14.2V1.64h-34.5v17.45c0 33.33 12.22 45.75 43.67 45.75h24.94V35.35h-13.3c-8.88.1-14.4-.4-17.55-4.24z"/><path fill="#fff" d="M968.43 29.73l.1.1c-.1 0-.1-.1-.1-.1z"/></g><g clip-path="url(#clip5)"><path fill="#8E44B1" d="M1170.93 57.53h-27.61v56.99h27.61V57.53z"/><path fill="#FF6903" d="M1242.5.65h-128.46v113.87h29.28v-84.2h97.02c17.74 0 23.75 5.43 23.75 21.4v11.93c0 15.97-6.01 21.39-23.75 21.39h-12.43v29.48h14.59c34.51 0 51.17-15.97 51.17-49V49.65c0-33.03-16.66-49-51.17-49z"/><path fill="#FFD900" d="M1170.93 30.22h-27.61v27.31h27.61v-27.3z"/><path fill="#000001" d="M1171.03 57.63l-27.71-27.4h27.71v27.4z"/><path fill="#8E44B1" d="M1240.43 30.22h-12.52v27.31h36.28v-5.91c0-15.97-6.01-21.4-23.76-21.4z"/><path fill="#60CABC" d="M1189.96 30.22h-19.03v84.2h19.03v-84.2z"/><path fill="#8E44B1" d="M1208.98 30.22h-19.02v84.2h19.02v-84.2z"/><path fill="#60CABC" d="M1228.01 30.22h-19.03v84.2h19.03v-84.2z"/></g><g clip-path="url(#clip6)"><path fill="#8E44B1" d="M772.53 1.63H754.5v18.93h18.04V1.63zM772.53 39.6H754.5v18.92h18.04V39.6z"/><path fill="#fff" d="M772.53 20.56H754.5V39.5h18.04V20.56z"/><path fill="#FF6903" d="M754.5 1.63h-18.05v18.93h18.04V1.63zM754.5 39.6h-18.05v18.92h18.04V39.6z"/><path fill="#fff" d="M754.5 20.56h-18.05V39.5h18.04V20.56zM736.45 1.63h-18.04v18.93h18.04V1.63zM736.45 39.6h-18.04v18.92h18.04V39.6z"/><path fill="#FF6903" d="M736.45 20.56h-18.04V39.5h18.04V20.56z"/><path fill="#1E1E1E" d="M718.31 1.63h-18.04v18.93h18.04V1.63zM718.31 39.6h-18.04v18.92h18.04V39.6z"/><path fill="#fff" d="M718.31 20.56h-18.04V39.5h18.04V20.56zM700.27 1.63h-18.04v18.93h18.04V1.63zM700.27 39.6h-18.04v18.92h18.04V39.6z"/><path fill="#FF6903" d="M700.27 20.56h-18.04V39.5h18.04V20.56z"/><path fill="#1E1E1E" d="M682.23 1.63h-18.04v18.93h18.04V1.63z"/><path fill="#FF6903" d="M682.23 39.6h-18.04v18.92h18.04V39.6z"/><path fill="#fff" d="M682.23 20.56h-18.04V39.5h18.04V20.56zM664.09 1.63h-18.04v18.93h18.04V1.63zM664.09 39.6h-18.04v18.92h18.04V39.6zM664.09 20.56h-18.04V39.5h18.04V20.56z"/><path fill="#1E1E1E" d="M646.05 1.63H628v18.93h18.04V1.63z"/><path fill="#fff" d="M646.05 39.6H628v18.92h18.04V39.6zM646.05 20.56H628V39.5h18.04V20.56z"/></g><g clip-path="url(#clip7)"><path fill="#8E44B1" d="M626.53 1.63H512.66V115.5h113.87V1.63z"/><path fill="#60CABC" d="M569.64 1.63a57.01 57.01 0 0156.99 56.99 57.01 57.01 0 01-56.99 56.98c-31.45-.1-56.98-25.63-56.98-56.98a57.01 57.01 0 0156.98-56.99z"/><path fill="#fff" d="M546.18 54.28l10.65-1.18v62.4h25.53V53.1L593 54.28c1.08.1 1.97-.99 1.48-2.07L570.91 2.42c-.49-1.08-2.07-1.08-2.66 0L544.7 52.21c-.5 1.08.4 2.17 1.48 2.07z"/></g><path fill="#FFD900" d="M887.3 58.81H627.01V116h260.27V58.8z"/><path fill="#181716" d="M690.24 84.45h-16.27a13.4 13.4 0 00-10.74 5.22l-11.84 14.89c-.59.79-.78 1.67-.68 2.56.1.89.59 1.68 1.28 2.27.59.5 1.28.69 2.07.69 1.08 0 1.97-.5 2.66-1.28l11.83-14.89a7.1 7.1 0 015.52-2.66h16.17c.5 0 .89.4.89.89v14.59a3.32 3.32 0 003.35 3.35 3.32 3.32 0 003.35-3.35v-14.6a7.55 7.55 0 00-7.6-7.68zM723.86 93.42h-13.8a2.86 2.86 0 010-5.72h13.8a4.73 4.73 0 004.73-4.73V72.42a4.73 4.73 0 00-4.73-4.73h-13.8a4.73 4.73 0 00-4.74 4.73 2.86 2.86 0 01-5.72 0c0-5.72 4.64-10.45 10.45-10.45h13.8c5.73 0 10.46 4.63 10.46 10.45v10.55a10.58 10.58 0 01-10.45 10.45z"/><path fill="#181716" d="M680.48 104.95a4.38 4.38 0 01-4.34 4.34 4.38 4.38 0 01-4.34-4.34 4.38 4.38 0 014.34-4.34 4.38 4.38 0 014.34 4.34zM688.86 68.97a4.38 4.38 0 01-4.34 4.34 4.38 4.38 0 01-4.34-4.34 4.38 4.38 0 014.34-4.34 4.31 4.31 0 014.34 4.34zM757.08 66.3c-2.07-2.16-4.24-.1-6.11 1.59.2 1.97-.79 3.15-3.25 5.61-2.57 2.47-6.12 5.82-5.43 11.64a3.61 3.61 0 003.55 3.15h.4a3.56 3.56 0 003.15-3.94c-.2-2.07.79-3.25 3.25-5.62 2.47-2.37 5.82-5.52 5.53-10.84-.3-.6-.7-1.09-1.09-1.58zM851.04 82.97c3.05 1.77 4.33 2.66 4.63 4.73.3 2.07-.79 3.25-3.35 5.72-2.66 2.46-6.21 5.91-5.52 11.83.49 4.24 2.95 6.7 5.42 8.48 1.28.1 2.56-.1 3.65-.8a4.57 4.57 0 001.77-2.06c.2-.7.2-1.48.1-2.27-2.47-1.48-3.55-2.36-3.75-4.24-.3-2.07.8-3.25 3.36-5.72 2.66-2.46 6.2-5.91 5.52-11.83-.7-5.81-5.03-8.38-8.19-10.15-3.05-1.78-4.33-2.66-4.63-4.73-.2-1.78.5-2.96 2.37-4.83-.1-.2-.1-.5-.2-.7-1.09-3.25-3.35-3.54-5.92-3.35-2.07 2.27-3.94 5.33-3.45 9.76.8 5.82 5.03 8.38 8.19 10.16zM805 79.62a3.37 3.37 0 00-2.47-2.86l-29.87-8.78c-1.78-.49-3.75.5-4.24 2.37-.5 1.77.5 3.75 2.37 4.24l22.57 6.6-18.63 11.64a3.71 3.71 0 00-1.58 2.27l-2.27 12.71.5.5c.78.69 1.77 1.38 2.86 1.38 1.38 0 2.76-.99 3.74-2.27l1.78-9.56 23.86-14.8a4.1 4.1 0 001.38-3.44zM810.42 107.12c-1.09 0-2.17-.1-3.26-.2a3.15 3.15 0 01-2.66-3.64 3.15 3.15 0 013.65-2.67c4.14.6 8.38-.39 11.73-2.95a15.88 15.88 0 006.21-10.35c.6-4.14-.4-8.38-2.96-11.74a15.88 15.88 0 00-10.35-6.2 3.15 3.15 0 01-2.66-3.66 3.15 3.15 0 013.65-2.66 22.36 22.36 0 0114.6 8.68 21.78 21.78 0 014.13 16.46 22.35 22.35 0 01-8.67 14.6 23.35 23.35 0 01-13.41 4.33zM736.67 99.33c-.1-.69 0-1.38.4-1.97a2.98 2.98 0 013.94-.88l10.55 6.8 7.4-9.66a2.85 2.85 0 014.04-.5 2.85 2.85 0 01.49 4.05L754.42 109a2.9 2.9 0 01-3.85.69l-12.71-8.28a3.21 3.21 0 01-1.19-2.08zM672.5 78.93c-.4.49-.9.88-1.59 1.08-1.47.3-2.85-.59-3.15-2.07l-2.46-11.53-11.34 1.57a2.59 2.59 0 01-2.96-2.26 2.59 2.59 0 012.27-2.96l13.8-1.78c1.38-.2 2.66.7 2.96 2.07l2.96 13.9c.1.6-.1 1.39-.5 1.98z"/><g clip-path="url(#clip8)"><path fill="#60CABC" d="M829.81 52.8v5.72h56.99V1.63h-7.3c-33.42 0-49.69 16.76-49.69 51.17z"/><path fill="#FF6903" d="M772.93 52.8v5.72h56.89V1.63h-7.3c-33.32 0-49.59 16.76-49.59 51.17z"/></g><defs><clipPath id="clip0"><path fill="#fff" d="M0 0h512.46v113.97H0z" transform="translate(0 1.63)"/></clipPath><clipPath id="clip1"><path fill="#fff" d="M0 0h113.87v113.87H0z" transform="translate(1806.13 1.63)"/></clipPath><clipPath id="clip2"><path fill="#fff" d="M0 0h512.46v113.97H0z" transform="translate(1293.47 1.63)"/></clipPath><clipPath id="clip3"><path fill="#fff" d="M0 0h113.87v113.87H0z" transform="translate(1000.67 1.63)"/></clipPath><clipPath id="clip4"><path fill="#fff" d="M0 0h113.87v113.87H0z" transform="translate(886.3 1.63)"/></clipPath><clipPath id="clip5"><path fill="#fff" d="M0 0h179.63v113.87H0z" transform="translate(1114.04 .65)"/></clipPath><clipPath id="clip6"><path fill="#fff" d="M0 0h144.63v56.98H0z" transform="translate(628 1.63)"/></clipPath><clipPath id="clip7"><path fill="#fff" d="M0 0h113.87v113.87H0z" transform="translate(512.66 1.63)"/></clipPath><clipPath id="clip8"><path fill="#fff" d="M0 0h113.87v56.98H0z" transform="translate(772.93 1.63)"/></clipPath></defs></svg>