<svg xmlns="http://www.w3.org/2000/svg" fill="none" viewBox="0 0 170 29"><defs/><g fill="#EE712F" clip-path="url(#clip0)"><path d="M85.12.23H62.23v28.58h.2v.07h8.21v-.07h.46V20.7h13.94c6.1 0 9.1-2.9 9.1-8.8V9.03c.07-5.95-2.92-8.8-9.02-8.8zm.11 11.08c0 1.97-.7 2.63-2.76 2.63H71.14V7.18h11.33c2.07 0 2.76.66 2.76 2.63v1.5z"/><path d="M24.72 0H4.77C2 .12 0 1.43 0 4.1v24.55h8.95V7.18h15.77V0z"/><path d="M169.92 22.05h-3.68V4.29c0-2.78-2.15-4.17-5.07-4.17h-15.59c-3.03-.04-3.88 2.31-4.3 3.59-.46 1.27-2.15 10.23-3.76 15.4-.7 2.24-1.88 2.78-3.03 2.9-.85.08-3.34.08-3.34.08v6.87h38.89v-6.83c-.08-.04-.08-.04-.12-.08zm-12.67 0L145.7 22l3.6-14.6c2.39-.03 7.95 0 7.95 0v14.64z"/><path d="M118.75.3h-11.02c-7.41 0-10.25 2.94-10.25 10.82v7.03c0 7.88 2.88 10.81 10.25 10.81h11.02c7.4 0 10.25-2.93 10.25-10.81v-7.03C129 3.28 126.16.31 118.75.31zm2.22 17.04c0 4.28-1.11 4.79-4.87 4.79h-5.72c-3.77 0-4.88-.47-4.88-4.8v-5.28c0-4.29 1.11-4.71 4.88-4.71H116.09c3.77 0 4.88.42 4.88 4.7v5.3z"/><path d="M48.64.3H37.58c-7.4 0-10.24 2.94-10.24 10.82v7.03c0 7.88 2.87 10.81 10.25 10.81H48.6c7.41 0 10.25-2.93 10.25-10.81v-7.03C58.9 3.28 56.05.31 48.65.31zm2.23 17.04c0 4.28-1.11 4.79-4.88 4.79H40.28c-3.77 0-4.88-.47-4.88-4.8v-5.28c0-4.29 1.11-4.71 4.87-4.71H46c3.77 0 4.88.42 4.88 4.7v5.3z"/></g><defs><clipPath id="clip0"><path fill="#fff" d="M0 0h170v29H0z"/></clipPath></defs></svg>