<svg xmlns="http://www.w3.org/2000/svg" fill="none" viewBox="0 0 64 64"><g clip-path="url(#clip0)"><path fill="#FFD900" d="M38 49.1l5.5 9.6c.4.7.4 1.5 0 2.1-.4.7-1.1 1.1-1.8 1.1s-1.5-.4-1.8-1.1l-6.7-11.7H38zM26 49.1l-5.5 9.6c-.4.7-.4 1.5 0 2.1.4.7 1.1 1.1 1.8 1.1s1.5-.4 1.8-1.1l6.7-11.7H26z"/><path fill="#FFD900" d="M34.1 50.1v10.7c0 1.2-1 2.1-2.1 2.1-1.2 0-2.1-1-2.1-2.1V50.1h4.2z"/><path fill="#BF4D00" d="M57.6 48h3.2c1.2 0 2.1-1 2.1-2.1V7.5c0-1.2-1-2.1-2.1-2.1H3.2c-1.2 0-2.1 1-2.1 2.1v38.4C1.1 47 2 48 3.2 48h54.4z"/><path fill="#FF6903" d="M54.7 48h3c1.1 0 2-1 2-2.1V7.5c0-1.1-.9-2.1-2-2.1H3.1c-1.1 0-2 1-2 2.1v38.4C1 47 1.9 48 3.1 48h51.6z"/><path fill="#607D8B" d="M44.8 3.2v2.1H19.2V3.2c0-1.2 1-2.1 2.1-2.1h21.3c1.2 0 2.2.9 2.2 2.1z"/><path fill="#B4BEC1" d="M57.6 44.8v4.3c0 1.2-1 2.1-2.1 2.1h-47c-1.2 0-2.1-1-2.1-2.1v-4.3h51.2z"/><path fill="#CFD8DC" d="M41.6 3.2v2.1H19.2V3.2c0-1.2 1-2.1 2.1-2.1h18.1c1.2 0 2.2.9 2.2 2.1zM54.4 44.8v4.3c0 1.2-1 2.1-2.1 2.1H8.5c-1.2 0-2.1-1-2.1-2.1v-4.3h48z"/><path fill="#F5F5F5" d="M32 37.3a11.7 11.7 0 100-23.4 11.7 11.7 0 000 23.4z"/><path fill="#E91E63" d="M29.9 20.3l7.4 5.3-7.4 5.3V20.3z"/><path fill="#000" d="M60.8 4.3H45.9V3.2c0-1.8-1.4-3.2-3.2-3.2H21.3c-1.8 0-3.2 1.4-3.2 3.2v1.1H3.2C1.4 4.3 0 5.7 0 7.5v38.4c0 1.8 1.4 3.2 3.2 3.2h2.1c0 1.8 1.4 3.2 3.2 3.2H23l-3.4 5.9a3.18 3.18 0 002.8 4.8c.3 0 .6 0 .8-.1.8-.2 1.5-.8 1.9-1.5l3.6-6.3v5.8c0 1.8 1.4 3.2 3.2 3.2 1.8 0 3.2-1.4 3.2-3.2V55l3.6 6.3c.4.7 1.1 1.3 1.9 1.5.3.1.6.1.8.1a3.17 3.17 0 003.1-2.3c.2-.8.1-1.7-.3-2.4L41 52.3h14.5c1.8 0 3.2-1.4 3.2-3.2h2.1c1.8 0 3.2-1.4 3.2-3.2V7.5c0-1.8-1.4-3.2-3.2-3.2zM20.3 3.2c0-.6.5-1.1 1.1-1.1h21.3c.6 0 1.1.5 1.1 1.1v1.1H20.3V3.2zm3 57.1c-.2.3-.5.5-.9.5s-.7-.2-.9-.5c-.2-.3-.2-.7 0-1.1l4-6.9H28l-4.7 8zm8.7 1.6c-.6 0-1.1-.5-1.1-1.1v-8.5H33v8.5c.1.6-.4 1.1-1 1.1zm10.5-2.7c.1.2.2.5.1.8-.1.3-.3.5-.5.6-.2.1-.5.2-.8.1-.3-.1-.5-.3-.7-.5l-4.6-8h2.5l4 7zm14-10.1c0 .6-.5 1.1-1.1 1.1H8.5c-.6 0-1.1-.5-1.1-1.1v-3.2h49.1v3.2zm5.4-3.2c0 .6-.5 1.1-1.1 1.1h-2.1v-2.1c0-.6-.5-1.1-1.1-1.1H6.4c-.6 0-1.1.5-1.1 1.1V47H3.2c-.6 0-1.1-.5-1.1-1.1V7.5c0-.6.5-1.1 1.1-1.1h57.6c.6 0 1.1.5 1.1 1.1v38.4z"/><path fill="#000" d="M32 12.8c-7.1 0-12.8 5.7-12.8 12.8 0 7.1 5.7 12.8 12.8 12.8 7.1 0 12.8-5.7 12.8-12.8 0-7.1-5.7-12.8-12.8-12.8zm0 23.5a10.71 10.71 0 010-21.4 10.71 10.71 0 010 21.4z"/><path fill="#000" d="M38 24.7l-7.5-5.3c-.3-.2-.8-.3-1.1-.1-.3.2-.6.5-.6.9v10.7c0 .4.2.8.6.9.4.2.8.2 1.1-.1l7.5-5.3c.3-.2.4-.5.4-.9s-.2-.6-.4-.8zm-7.1 4.2v-6.5l4.6 3.3-4.6 3.2z"/></g><defs><clipPath id="clip0"><path fill="#fff" d="M0 0h64v64H0z"/></clipPath></defs></svg>